<?xml version="1.0" encoding="utf-8"?>
<!-- Generator: Adobe Illustrator 21.0.0, SVG Export Plug-In . SVG Version: 6.00 Build 0)  -->
<svg version="1.1" id="圖層_1" xmlns="http://www.w3.org/2000/svg" xmlns:xlink="http://www.w3.org/1999/xlink" x="0px" y="0px"
	 viewBox="0 0 283.5 283.5" style="enable-background:new 0 0 283.5 283.5;" xml:space="preserve">
<style type="text/css">
	.st0{fill:#FFFFFF;}
</style>
<path class="st0" d="M109.1,159.9H87.1c-3.6,0-6.6-3-6.6-6.6v-21.9c0-3.6,3-6.6,6.6-6.6h21.9c3.6,0,6.6,3,6.6,6.6v21.9
	C115.6,156.9,112.7,159.9,109.1,159.9z M168.3,153.3v-21.9c0-3.6-3-6.6-6.6-6.6h-21.9c-3.6,0-6.6,3-6.6,6.6v21.9
	c0,3.6,3,6.6,6.6,6.6h21.9C165.3,159.9,168.3,156.9,168.3,153.3z M220.9,153.3v-21.9c0-3.6-3-6.6-6.6-6.6h-21.9
	c-3.6,0-6.6,3-6.6,6.6v21.9c0,3.6,3,6.6,6.6,6.6h21.9C217.9,159.9,220.9,156.9,220.9,153.3z M168.3,205.9V184c0-3.6-3-6.6-6.6-6.6
	h-21.9c-3.6,0-6.6,3-6.6,6.6v21.9c0,3.6,3,6.6,6.6,6.6h21.9C165.3,212.5,168.3,209.5,168.3,205.9z M115.6,205.9V184
	c0-3.6-3-6.6-6.6-6.6H87.1c-3.6,0-6.6,3-6.6,6.6v21.9c0,3.6,3,6.6,6.6,6.6h21.9C112.7,212.5,115.6,209.5,115.6,205.9z M220.9,205.9
	V184c0-3.6-3-6.6-6.6-6.6h-21.9c-3.6,0-6.6,3-6.6,6.6v21.9c0,3.6,3,6.6,6.6,6.6h21.9C217.9,212.5,220.9,209.5,220.9,205.9z
	 M273.5,63.4v193c0,14.5-11.8,26.3-26.3,26.3h-193c-14.5,0-26.3-11.8-26.3-26.3v-193c0-14.5,11.8-26.3,26.3-26.3h26.3V8.6
	c0-3.6,3-6.6,6.6-6.6h21.9c3.6,0,6.6,3,6.6,6.6v28.5h70.2V8.6c0-3.6,3-6.6,6.6-6.6h21.9c3.6,0,6.6,3,6.6,6.6v28.5h26.3
	C261.7,37.1,273.5,48.9,273.5,63.4z M247.2,253.1V89.7h-193v163.4c0,1.8,1.5,3.3,3.3,3.3h186.4C245.7,256.4,247.2,254.9,247.2,253.1
	z"/>
</svg>
