<?xml version="1.0" encoding="utf-8"?>
<!-- Generator: Adobe Illustrator 21.0.0, SVG Export Plug-In . SVG Version: 6.00 Build 0)  -->
<svg version="1.1" id="圖層_1" xmlns="http://www.w3.org/2000/svg" xmlns:xlink="http://www.w3.org/1999/xlink" x="0px" y="0px"
	 viewBox="0 0 514.4 475.9" style="enable-background:new 0 0 514.4 475.9;" xml:space="preserve">
<style type="text/css">
	.st0{opacity:0.3;}
	.st1{opacity:0.5;}
	.st2{fill:url(#Rectangle_418_1_);}
	.st3{fill:#F2F2F2;}
	.st4{fill:#E0E0E0;}
	.st5{opacity:0.7;fill:url(#Rectangle_421_1_);enable-background:new    ;}
	.st6{fill:url(#Rectangle_429_1_);}
	.st7{fill:#F5F5F5;}
	.st8{fill:url(#Rectangle_431_1_);}
	.st9{fill:#FFFFFF;}
	.st10{opacity:0.4;fill:#009599;enable-background:new    ;}
	.st11{fill:url(#Rectangle_432_1_);}
	.st12{fill:url(#Rectangle_434_1_);}
	.st13{fill:url(#Rectangle_435_1_);}
	.st14{opacity:0.7;fill:url(#Rectangle_440_1_);enable-background:new    ;}
	.st15{opacity:0.7;fill:url(#Rectangle_441_1_);enable-background:new    ;}
	.st16{opacity:0.7;fill:url(#Rectangle_443_1_);enable-background:new    ;}
	.st17{fill:url(#Rectangle_445_1_);}
	.st18{fill:url(#Path_101_1_);}
	.st19{fill:url(#Path_102_1_);}
	.st20{fill:url(#Path_103_1_);}
	.st21{fill:url(#Path_104_1_);}
	.st22{fill:url(#Path_105_1_);}
	.st23{fill:url(#Path_106_1_);}
	.st24{fill:#47E6B1;}
	.st25{fill:url(#Rectangle_453_1_);}
	.st26{fill:url(#Path_107_1_);}
	.st27{fill:url(#Path_108_1_);}
	.st28{fill:url(#Path_109_1_);}
	.st29{fill:url(#Ellipse_11_1_);}
	.st30{fill:url(#Ellipse_12_1_);}
	.st31{fill:url(#Ellipse_13_1_);}
	.st32{opacity:0.5;fill:url(#Ellipse_14_1_);enable-background:new    ;}
</style>
<g id="Group_305" transform="translate(0 0.017)" class="st0">
	<g id="Group_296" transform="translate(94.183 79.55)" class="st1">
		
			<linearGradient id="Rectangle_418_1_" gradientUnits="userSpaceOnUse" x1="20.8973" y1="298.151" x2="20.8973" y2="299.151" gradientTransform="matrix(273.99 0 0 -368.179 -5588.6499 110141.1172)">
			<stop  offset="0" style="stop-color:#808080;stop-opacity:0.251"/>
			<stop  offset="0.54" style="stop-color:#808080;stop-opacity:0.122"/>
			<stop  offset="1" style="stop-color:#808080;stop-opacity:0.102"/>
		</linearGradient>
		<rect id="Rectangle_418" x="0" y="0" class="st2" width="274" height="368.2"/>
	</g>
	<rect id="Rectangle_419" x="97.8" y="84.5" class="st3" width="265.4" height="355.3"/>
	<rect id="Rectangle_420" x="118.4" y="99.5" class="st4" width="91.3" height="2.9"/>
	
		<linearGradient id="Rectangle_421_1_" gradientUnits="userSpaceOnUse" x1="114.2408" y1="411.7413" x2="114.2408" y2="410.7413" gradientTransform="matrix(91.33 0 0 -2.853 -10269.5049 1287.0698)">
		<stop  offset="0" style="stop-color:#7396BF"/>
		<stop  offset="1" style="stop-color:#92C4D1"/>
	</linearGradient>
	<rect id="Rectangle_421" x="118.4" y="112.4" class="st5" width="91.3" height="2.9"/>
	<rect id="Rectangle_422" x="223.3" y="99.5" class="st4" width="91.3" height="2.9"/>
	<rect id="Rectangle_423" x="237.6" y="180.9" class="st4" width="91.3" height="2.9"/>
	<rect id="Rectangle_424" x="239.7" y="188.7" class="st4" width="91.3" height="2.9"/>
	<rect id="Rectangle_425" x="244" y="196.6" class="st4" width="91.3" height="2.9"/>
	<rect id="Rectangle_426" x="237.6" y="307.2" class="st4" width="91.3" height="2.9"/>
	<rect id="Rectangle_427" x="239.7" y="315" class="st4" width="91.3" height="2.9"/>
	<rect id="Rectangle_428" x="244" y="322.9" class="st4" width="91.3" height="2.9"/>
	<g id="Group_297" transform="translate(119.16 151.615)" class="st1">
		
			<linearGradient id="Rectangle_429_1_" gradientUnits="userSpaceOnUse" x1="-4.8451" y1="226.7928" x2="-4.8451" y2="227.7928" gradientTransform="matrix(97.037 0 0 -98.466 518.6743 22429.8457)">
			<stop  offset="0" style="stop-color:#808080;stop-opacity:0.251"/>
			<stop  offset="0.54" style="stop-color:#808080;stop-opacity:0.122"/>
			<stop  offset="1" style="stop-color:#808080;stop-opacity:0.102"/>
		</linearGradient>
		<rect id="Rectangle_429" x="0" y="0" class="st6" width="97" height="98.5"/>
	</g>
	<rect id="Rectangle_430" x="119.8" y="153.8" class="st7" width="95.5" height="94.2"/>
	<g id="Group_298" transform="translate(123.138 159.467)" class="st1">
		
			<linearGradient id="Rectangle_431_1_" gradientUnits="userSpaceOnUse" x1="-8.9289" y1="219.5242" x2="-8.9289" y2="220.5242" gradientTransform="matrix(89.082 0 0 -61.361 839.9493 13531.5869)">
			<stop  offset="0" style="stop-color:#808080;stop-opacity:0.251"/>
			<stop  offset="0.54" style="stop-color:#808080;stop-opacity:0.122"/>
			<stop  offset="1" style="stop-color:#808080;stop-opacity:0.102"/>
		</linearGradient>
		<rect id="Rectangle_431" x="0" y="0" class="st8" width="89.1" height="61.4"/>
	</g>
	<rect id="_Rectangle_" x="123.7" y="160.2" class="st9" width="87.9" height="59.2"/>
	<g id="Group_306" transform="translate(127.005 162.32)">
		<circle id="Ellipse_9" class="st10" cx="6.4" cy="6.4" r="6.4"/>
	</g>
	<g id="Group_300" transform="translate(119.16 277.912)" class="st1">
		
			<linearGradient id="Rectangle_432_1_" gradientUnits="userSpaceOnUse" x1="-4.8451" y1="100.4958" x2="-4.8451" y2="101.4958" gradientTransform="matrix(97.037 0 0 -98.466 518.6743 9993.8867)">
			<stop  offset="0" style="stop-color:#808080;stop-opacity:0.251"/>
			<stop  offset="0.54" style="stop-color:#808080;stop-opacity:0.122"/>
			<stop  offset="1" style="stop-color:#808080;stop-opacity:0.102"/>
		</linearGradient>
		<rect id="Rectangle_432" x="0" y="0" class="st11" width="97" height="98.5"/>
	</g>
	<rect id="Rectangle_433" x="119.8" y="280" class="st7" width="95.5" height="94.2"/>
	<g id="Group_301" transform="translate(123.138 285.763)" class="st1">
		
			<linearGradient id="Rectangle_434_1_" gradientUnits="userSpaceOnUse" x1="-8.9289" y1="93.2282" x2="-8.9289" y2="94.2282" gradientTransform="matrix(89.082 0 0 -61.361 839.9493 5781.9375)">
			<stop  offset="0" style="stop-color:#808080;stop-opacity:0.251"/>
			<stop  offset="0.54" style="stop-color:#808080;stop-opacity:0.122"/>
			<stop  offset="1" style="stop-color:#808080;stop-opacity:0.102"/>
		</linearGradient>
		<rect id="Rectangle_434" x="0" y="0" class="st12" width="89.1" height="61.4"/>
	</g>
	<rect id="_Rectangle_2" x="123.7" y="286.5" class="st9" width="87.9" height="59.2"/>
	<g id="Group_303" transform="translate(134.408 61.358)" class="st1">
		
			<linearGradient id="Rectangle_435_1_" gradientUnits="userSpaceOnUse" x1="-18.7158" y1="316.4723" x2="-18.7158" y2="317.8152" gradientTransform="matrix(71.7653 -361.1181 -268.7347 -53.4059 86719.5547 10381.7422)">
			<stop  offset="0" style="stop-color:#808080;stop-opacity:0.251"/>
			<stop  offset="0.54" style="stop-color:#808080;stop-opacity:0.122"/>
			<stop  offset="1" style="stop-color:#808080;stop-opacity:0.102"/>
		</linearGradient>
		<polygon id="Rectangle_435" class="st13" points="0,361.1 71.8,0 340.5,53.4 268.7,414.5 		"/>
	</g>
	
		<rect id="Rectangle_436" x="126.6" y="134.4" transform="matrix(0.1949 -0.9808 0.9808 0.1949 -17.026 513.4234)" class="st9" width="355.3" height="265.4"/>
	
		<rect id="Rectangle_437" x="315.1" y="12.4" transform="matrix(0.1949 -0.9808 0.9808 0.1949 150.3155 396.2452)" class="st4" width="2.9" height="188.4"/>
	
		<rect id="Rectangle_438" x="262.5" y="276.9" transform="matrix(0.1949 -0.9808 0.9808 0.1949 -151.4783 557.6619)" class="st4" width="2.9" height="188.4"/>
	
		<rect id="Rectangle_439" x="238.3" y="310.2" transform="matrix(0.1949 -0.9808 0.9808 0.1949 -182.6515 543.521)" class="st4" width="2.9" height="145.6"/>
	
		<linearGradient id="Rectangle_440_1_" gradientUnits="userSpaceOnUse" x1="113.0784" y1="403.2457" x2="113.0784" y2="402.2457" gradientTransform="matrix(53.1849 10.5695 0.5561 -2.7983 -6046.2676 322.0342)">
		<stop  offset="0" style="stop-color:#7396BF"/>
		<stop  offset="1" style="stop-color:#92C4D1"/>
	</linearGradient>
	<polygon id="Rectangle_440" class="st14" points="165.5,383.5 218.6,394.1 218.1,396.9 164.9,386.3 	"/>
	
		<linearGradient id="Rectangle_441_1_" gradientUnits="userSpaceOnUse" x1="114.1058" y1="403.2457" x2="114.1058" y2="402.2457" gradientTransform="matrix(92.3765 18.3581 0.5561 -2.7983 -10497.5303 -854.2894)">
		<stop  offset="0" style="stop-color:#7396BF"/>
		<stop  offset="1" style="stop-color:#92C4D1"/>
	</linearGradient>
	<polygon id="Rectangle_441" class="st15" points="221.2,102.9 313.6,121.3 313,124.1 220.7,105.7 	"/>
	
		<rect id="Rectangle_442" x="299.6" y="52" transform="matrix(0.1949 -0.9808 0.9808 0.1949 108.038 405.5102)" class="st4" width="2.9" height="169.8"/>
	
		<linearGradient id="Rectangle_443_1_" gradientUnits="userSpaceOnUse" x1="112.3268" y1="403.2457" x2="112.3268" y2="402.2457" gradientTransform="matrix(40.5883 8.0661 0.5561 -2.7983 -4548.2754 361.476)">
		<stop  offset="0" style="stop-color:#7396BF"/>
		<stop  offset="1" style="stop-color:#92C4D1"/>
	</linearGradient>
	<polygon id="Rectangle_443" class="st16" points="214.8,135.1 255.4,143.2 254.9,146 214.3,137.9 	"/>
	
		<rect id="Rectangle_444" x="302.3" y="76.8" transform="matrix(0.1949 -0.9808 0.9808 0.1949 76.8612 435.5367)" class="st4" width="2.9" height="188.4"/>
	<g id="Group_304" transform="translate(208.998 219.18)" class="st1">
		
			<linearGradient id="Rectangle_445_1_" gradientUnits="userSpaceOnUse" x1="-92.7688" y1="159.3795" x2="-92.7688" y2="159.9535" gradientTransform="matrix(18.9144 -95.1758 -165.8585 -32.9612 28308.0391 -3506.6553)">
			<stop  offset="0" style="stop-color:#808080;stop-opacity:0.251"/>
			<stop  offset="0.54" style="stop-color:#808080;stop-opacity:0.122"/>
			<stop  offset="1" style="stop-color:#808080;stop-opacity:0.102"/>
		</linearGradient>
		<polygon id="Rectangle_445" class="st17" points="0,95.2 18.9,0 184.8,33 165.9,128.1 		"/>
	</g>
	
		<rect id="Rectangle_446" x="254" y="199.4" transform="matrix(0.1949 -0.9808 0.9808 0.1949 -34.7557 523.4579)" class="st9" width="94.9" height="167"/>
	
		<rect id="Rectangle_447" x="299.1" y="92.9" transform="matrix(0.1949 -0.9808 0.9808 0.1949 58.4935 445.3617)" class="st4" width="2.9" height="188.4"/>
	
		<linearGradient id="Path_101_1_" gradientUnits="userSpaceOnUse" x1="115.0251" y1="377.8271" x2="115.0251" y2="378.8271" gradientTransform="matrix(242.1676 0 0 -247.3478 -27469.4609 93886.6719)">
		<stop  offset="0" style="stop-color:#B3B3B3;stop-opacity:0.251"/>
		<stop  offset="0.54" style="stop-color:#B3B3B3;stop-opacity:0.102"/>
		<stop  offset="1" style="stop-color:#B3B3B3;stop-opacity:5.100000e-02"/>
	</linearGradient>
	<path id="Path_101" class="st18" d="M428.6,213.8c-36.5-37.9-96.8-39.1-134.7-2.6c-0.6,0.5-1.1,1.1-1.6,1.6
		c-36,36.3-36.7,95.5-1.4,132.6c32,33.7,83.6,39.4,122.1,13.5l68.9,71.6c1.8,1.8,4.7,1.9,6.6,0.1l17.2-16.5c1.8-1.8,1.9-4.7,0.1-6.6
		L436.9,336C464.1,298.7,460.6,247.2,428.6,213.8z M407.1,329c-27.1,26.1-70.2,25.2-96.3-1.9c-26.1-27.1-25.2-70.2,1.9-96.3
		c27.1-26.1,70.2-25.2,96.3,1.9C435.1,259.8,434.3,302.9,407.1,329C407.1,329,407.1,329,407.1,329L407.1,329z"/>
	
		<linearGradient id="Path_102_1_" gradientUnits="userSpaceOnUse" x1="105.505" y1="385.4208" x2="105.505" y2="386.4208" gradientTransform="matrix(11.5057 0 0 -11.908 -904.4537 4862.4155)">
		<stop  offset="0" style="stop-color:#000000;stop-opacity:0.122"/>
		<stop  offset="0.55" style="stop-color:#000000;stop-opacity:9.000000e-02"/>
		<stop  offset="1" style="stop-color:#000000;stop-opacity:2.000000e-02"/>
	</linearGradient>
	<path id="Path_102" class="st19" d="M309.5,260.9c-7.7,0-7.7,11.9,0,11.9S317.1,260.9,309.5,260.9z"/>
	
		<linearGradient id="Path_103_1_" gradientUnits="userSpaceOnUse" x1="114.3799" y1="380.0523" x2="114.3799" y2="381.0523" gradientTransform="matrix(102.6696 0 0 -36.4077 -11379.1885 14095.9941)">
		<stop  offset="0" style="stop-color:#000000;stop-opacity:0.122"/>
		<stop  offset="0.55" style="stop-color:#000000;stop-opacity:9.000000e-02"/>
		<stop  offset="1" style="stop-color:#000000;stop-opacity:2.000000e-02"/>
	</linearGradient>
	<path id="Path_103" class="st20" d="M362.9,222.8c-20.6-0.5-39.4,9.9-49.4,25.5c-3.3,5.1,6,9.6,9.2,4.5c8.3-12.9,24-21.1,40.9-20.7
		c17.4,0.6,33.4,9.9,42.6,24.8c3.3,5.4,11.8,0.5,8.6-4.8C404.3,234.9,384.2,223.3,362.9,222.8z"/>
	
		<linearGradient id="Path_104_1_" gradientUnits="userSpaceOnUse" x1="115.0251" y1="378.8271" x2="115.0251" y2="377.8271" gradientTransform="matrix(242.162 0 0 -247.3443 -27461.3398 93881.7266)">
		<stop  offset="0" style="stop-color:#7396BF"/>
		<stop  offset="1" style="stop-color:#92C4D1"/>
	</linearGradient>
	<path id="Path_104" class="st21" d="M436,210.2c-36.5-37.9-96.8-39.1-134.7-2.6c-0.6,0.5-1.1,1.1-1.6,1.6
		c-36,36.3-36.7,95.5-1.4,132.6c32,33.7,83.6,39.4,122.1,13.5l68.8,71.6c1.8,1.8,4.7,1.9,6.6,0.1l17.2-16.5c1.8-1.8,1.9-4.7,0.1-6.6
		l-68.9-71.6C471.5,295,468.1,243.5,436,210.2z M414.6,325.3c-27.1,26.1-70.2,25.2-96.3-1.9c-26.1-27.1-25.2-70.2,1.9-96.3
		c27.1-26.1,70.2-25.2,96.3,1.9C442.6,256.1,441.7,299.2,414.6,325.3C414.6,325.3,414.6,325.3,414.6,325.3z"/>
	
		<linearGradient id="Path_105_1_" gradientUnits="userSpaceOnUse" x1="105.5059" y1="386.4208" x2="105.5059" y2="385.4208" gradientTransform="matrix(11.5068 0 0 -11.908 -897.1071 4858.7925)">
		<stop  offset="0" style="stop-color:#7396BF"/>
		<stop  offset="1" style="stop-color:#92C4D1"/>
	</linearGradient>
	<path id="Path_105" class="st22" d="M316.9,257.3c-7.7,0-7.7,11.9,0,11.9S324.6,257.3,316.9,257.3z"/>
	
		<linearGradient id="Path_106_1_" gradientUnits="userSpaceOnUse" x1="114.3799" y1="381.0528" x2="114.3799" y2="380.0528" gradientTransform="matrix(102.6689 0 0 -36.4007 -11371.6387 14089.7324)">
		<stop  offset="0" style="stop-color:#7396BF"/>
		<stop  offset="1" style="stop-color:#92C4D1"/>
	</linearGradient>
	<path id="Path_106" class="st23" d="M370.3,219.2c-20.6-0.5-39.4,9.9-49.4,25.5c-3.3,5.1,6,9.6,9.2,4.5c8.3-12.9,24-21.1,40.9-20.7
		c17.4,0.6,33.4,9.9,42.6,24.7c3.3,5.4,11.8,0.5,8.6-4.8C411.8,231.2,391.6,219.6,370.3,219.2z"/>
	<rect id="Rectangle_452" x="74.2" y="405.6" class="st24" width="2.1" height="12.1"/>
	
		<linearGradient id="Rectangle_453_1_" gradientUnits="userSpaceOnUse" x1="71.0659" y1="368.9608" x2="71.0659" y2="367.9608" gradientTransform="matrix(1.309148e-16 2.138 12.128 -7.426259e-16 -4393.417 259.754)">
		<stop  offset="0" style="stop-color:#73B3BF"/>
		<stop  offset="1" style="stop-color:#92D1CC"/>
	</linearGradient>
	<rect id="Rectangle_453" x="69.2" y="410.6" class="st25" width="12.1" height="2.1"/>
	
		<linearGradient id="Path_107_1_" gradientUnits="userSpaceOnUse" x1="103.5276" y1="388.3445" x2="103.5276" y2="387.3445" gradientTransform="matrix(9.6055 0 0 -9.5945 -649.0121 3725.9614)">
		<stop  offset="0" style="stop-color:#73B3BF"/>
		<stop  offset="1" style="stop-color:#92D1CC"/>
	</linearGradient>
	<path id="Path_107" class="st26" d="M349.4,4.9c-1.2-0.5-1.9-1.9-1.5-3.2c0-0.1,0-0.2,0.1-0.3l0,0c0-0.7-0.5-1.4-1.2-1.4
		c-0.4,0-0.9,0.2-1.1,0.5l0,0c-0.1,0.1-0.1,0.2-0.1,0.3c-0.5,1.2-1.9,1.9-3.2,1.5c-0.1,0-0.2,0-0.3-0.1l0,0
		c-0.7-0.1-1.4,0.5-1.4,1.2c0,0.5,0.2,0.9,0.5,1.2l0,0c0.1,0.1,0.2,0.1,0.3,0.1c1.2,0.5,1.9,1.9,1.5,3.2c0,0.1,0,0.2-0.1,0.3l0,0
		c-0.1,0.7,0.5,1.4,1.2,1.4c0.5,0,0.9-0.2,1.2-0.6l0,0c0.1-0.1,0.1-0.2,0.1-0.3c0.5-1.2,1.9-1.9,3.2-1.5c0.1,0,0.2,0,0.3,0.1l0,0
		c0.7,0,1.4-0.5,1.4-1.2c0-0.4-0.2-0.9-0.5-1.1l0,0C349.6,4.9,349.5,4.9,349.4,4.9z"/>
	
		<linearGradient id="Path_108_1_" gradientUnits="userSpaceOnUse" x1="103.4843" y1="388.369" x2="103.4843" y2="387.369" gradientTransform="matrix(9.5708 0 0 -9.5708 -910.4525 3806.9038)">
		<stop  offset="0" style="stop-color:#E8A48B"/>
		<stop  offset="1" style="stop-color:#E8D18A"/>
	</linearGradient>
	<path id="Path_108" class="st27" d="M84,94.8c-1.2-0.5-1.9-1.9-1.5-3.2c0-0.1,0-0.2,0.1-0.3l0,0c0-0.7-0.5-1.4-1.2-1.4
		c-0.4,0-0.9,0.2-1.1,0.5l0,0c-0.1,0.1-0.1,0.2-0.1,0.3c-0.5,1.2-1.9,1.9-3.2,1.5c-0.1,0-0.2,0-0.3-0.1l0,0c-0.7,0-1.4,0.5-1.4,1.2
		c0,0.4,0.2,0.9,0.5,1.1l0,0c0.1,0.1,0.2,0.1,0.3,0.1c1.2,0.5,1.9,1.9,1.5,3.2c0,0.1,0,0.2-0.1,0.3l0,0c0,0.7,0.5,1.4,1.2,1.4
		c0.4,0,0.9-0.2,1.1-0.5l0,0c0.1-0.1,0.1-0.2,0.1-0.3c0.5-1.2,1.9-1.9,3.2-1.5c0.1,0,0.2,0,0.3,0.1l0,0c0.7,0,1.4-0.5,1.4-1.2
		c0-0.4-0.2-0.9-0.5-1.1l0,0C84.2,94.8,84.1,94.8,84,94.8z"/>
	
		<linearGradient id="Path_109_1_" gradientUnits="userSpaceOnUse" x1="103.4832" y1="388.3681" x2="103.4832" y2="387.3681" gradientTransform="matrix(9.5699 0 0 -9.5717 -532.8994 4178.2407)">
		<stop  offset="0" style="stop-color:#73B3BF"/>
		<stop  offset="1" style="stop-color:#92D1CC"/>
	</linearGradient>
	<path id="Path_109" class="st28" d="M461.4,465.8c-1.2-0.5-1.9-1.9-1.5-3.2c0-0.1,0-0.2,0.1-0.3l0,0c0.1-0.7-0.5-1.4-1.2-1.4
		c-0.4,0-0.9,0.2-1.1,0.5l0,0c-0.1,0.1-0.1,0.2-0.1,0.3c-0.5,1.2-1.9,1.9-3.2,1.5c-0.1,0-0.2,0-0.3-0.1l0,0c-0.7,0-1.4,0.5-1.4,1.2
		c0,0.4,0.2,0.9,0.5,1.1l0,0c0.1,0.1,0.2,0.1,0.3,0.1c1.2,0.5,1.9,1.9,1.5,3.2c0,0.1,0,0.2-0.1,0.3l0,0c-0.1,0.7,0.5,1.4,1.2,1.4
		c0.4,0,0.9-0.2,1.1-0.5l0,0c0.1-0.1,0.1-0.2,0.1-0.3c0.5-1.2,1.9-1.9,3.2-1.5c0.1,0,0.2,0,0.3,0.1l0,0c0.7,0,1.4-0.5,1.4-1.2
		c0-0.4-0.2-0.9-0.5-1.1l0,0C461.6,465.9,461.5,465.8,461.4,465.8z"/>
	
		<linearGradient id="Ellipse_11_1_" gradientUnits="userSpaceOnUse" x1="102.0748" y1="389.5334" x2="102.0748" y2="388.5334" gradientTransform="matrix(8.566 0 0 -8.566 -678.155 3378.4788)">
		<stop  offset="0" style="stop-color:#73B3BF"/>
		<stop  offset="1" style="stop-color:#92D1CC"/>
	</linearGradient>
	<circle id="Ellipse_11" class="st29" cx="196.2" cy="46" r="4.3"/>
	
		<linearGradient id="Ellipse_12_1_" gradientUnits="userSpaceOnUse" x1="102.0748" y1="389.5334" x2="102.0748" y2="388.5334" gradientTransform="matrix(8.566 0 0 -8.566 -371.343 3431.9888)">
		<stop  offset="0" style="stop-color:#E8A48B"/>
		<stop  offset="1" style="stop-color:#E8D18A"/>
	</linearGradient>
	<circle id="Ellipse_12" class="st30" cx="503" cy="99.5" r="4.3"/>
	
		<linearGradient id="Ellipse_13_1_" gradientUnits="userSpaceOnUse" x1="102.0748" y1="389.5334" x2="102.0748" y2="388.5334" gradientTransform="matrix(8.566 0 0 -8.566 -395.599 3559.7087)">
		<stop  offset="0" style="stop-color:#73B3BF"/>
		<stop  offset="1" style="stop-color:#92D1CC"/>
	</linearGradient>
	<circle id="Ellipse_13" class="st31" cx="478.8" cy="227.2" r="4.3"/>
	
		<linearGradient id="Ellipse_14_1_" gradientUnits="userSpaceOnUse" x1="102.0748" y1="389.5334" x2="102.0748" y2="388.5334" gradientTransform="matrix(8.566 0 0 -8.566 -870.09 3349.9338)">
		<stop  offset="0" style="stop-color:#E8A48B"/>
		<stop  offset="1" style="stop-color:#E8D18A"/>
	</linearGradient>
	<circle id="Ellipse_14" class="st32" cx="4.3" cy="17.5" r="4.3"/>
</g>
</svg>
