<svg id="圖層_1" data-name="圖層 1" xmlns="http://www.w3.org/2000/svg" viewBox="0 0 200 200"><defs><style>.cls-1{fill:#fff;}</style></defs><title>ICONNNN_0610</title><path class="cls-1" d="M194.07,32.65H111.31a3.45,3.45,0,0,0-3.45,3.45V84.37a3.45,3.45,0,0,0,3.45,3.45h31V49.89H163V87.82h31a3.45,3.45,0,0,0,3.45-3.45V36.1A3.45,3.45,0,0,0,194.07,32.65Z"/><path class="cls-1" d="M169.93,108.51H135.45A3.45,3.45,0,0,0,132,112h41.38A3.45,3.45,0,0,0,169.93,108.51Z"/><path class="cls-1" d="M149.24,56.79h6.9v44.83h-6.9Z"/><path class="cls-1" d="M11.31,132.65v62.07H101v-6.9h69v6.9h6.9v-6.9h6.9v6.9h6.9V132.65Z"/><path class="cls-1" d="M4.41,118.86H197.52v6.9H4.41Z"/><path class="cls-1" d="M51.13,21A33.15,33.15,0,1,0,84.28,54.13,33.15,33.15,0,0,0,51.13,21Zm0,58A24.86,24.86,0,1,1,76,54.13,24.89,24.89,0,0,1,51.13,79ZM71.85,54.13a4.14,4.14,0,0,1-4.14,4.14H51.13A4.14,4.14,0,0,1,47,54.13V37.56a4.14,4.14,0,1,1,8.29,0V50H67.7A4.14,4.14,0,0,1,71.85,54.13Z"/></svg>