<?xml version="1.0" encoding="utf-8"?>
<!-- Generator: Adobe Illustrator 21.0.0, SVG Export Plug-In . SVG Version: 6.00 Build 0)  -->
<svg version="1.1" id="圖層_1" xmlns="http://www.w3.org/2000/svg" xmlns:xlink="http://www.w3.org/1999/xlink" x="0px" y="0px"
	 viewBox="0 0 200 200" style="enable-background:new 0 0 200 200;" xml:space="preserve">
<style type="text/css">
	.st0{fill:#FFFFFF;}
</style>
<title>ICONNNN_0610</title>
<path id="plane-solid" class="st0" d="M127.7,28.1l-19.6,30.1l-66.6-3.8c-1.8-0.1-3.5,0.8-4.5,2.3L25.9,74c-1.5,2.3-0.9,5.4,1.5,7
	c0.4,0.3,0.8,0.5,1.3,0.6L82.3,98l-17.6,27.1l-22.6,1.5c-1.6,0.1-3,1-3.9,2.3l-6.9,10.6c-1.5,2.3-0.9,5.4,1.5,7
	c0.3,0.2,0.7,0.4,1.1,0.5l33.9,10.2L91,184.1c1.9,2,5.1,2.2,7.1,0.3c0.3-0.3,0.6-0.6,0.8-0.9l6.9-10.6c0.9-1.3,1.1-3,0.5-4.5
	l-7.8-21.3l17.6-27.1l36.9,42.3c1.8,2.1,5,2.3,7.1,0.5c0.4-0.3,0.7-0.7,0.9-1.1l11.2-17.3c1-1.5,1.1-3.4,0.3-5l-30.5-59.3L161.5,50
	c6.1-9.3,8.9-30.2-0.4-36.3C151.8,7.7,133.8,18.8,127.7,28.1z"/>
</svg>
