<svg id="圖層_1" data-name="圖層 1" xmlns="http://www.w3.org/2000/svg" viewBox="0 0 200 200"><defs><style>.cls-1{fill:none;}.cls-2,.cls-3{fill:#fff;}.cls-3{stroke:#fff;stroke-miterlimit:10;}</style></defs><title>ICONNNN_0610</title><path class="cls-1" d="M154.46,121.49a5.18,5.18,0,0,0-8.94-3.57v7.14a5.18,5.18,0,0,0,8.94-3.57Z"/><path class="cls-1" d="M46.91,126.07h67.93a5.11,5.11,0,0,0,0-10.23H46.91a5.11,5.11,0,0,0,0,10.23Z"/><path class="cls-1" d="M120,141.42a5.11,5.11,0,0,0-5.11-5.11H46.91a5.11,5.11,0,0,0,0,10.23h67.93A5.11,5.11,0,0,0,120,141.42Z"/><path class="cls-1" d="M46.91,105.62h67.93a5.11,5.11,0,0,0,0-10.23H46.91a5.11,5.11,0,1,0,0,10.23Z"/><path class="cls-1" d="M46.91,85.16H71.59a5.11,5.11,0,1,0,0-10.23H46.91a5.11,5.11,0,1,0,0,10.23Z"/><path class="cls-1" d="M180.4,173.37H145.52v2a5.07,5.07,0,0,1-1.12,3.16h36a2.59,2.59,0,1,0,0-5.19Z"/><path class="cls-1" d="M149.28,112.41a9.08,9.08,0,1,1-3.75,17.34v2.79a11.67,11.67,0,1,0,0-22.08v2.79A9,9,0,0,1,149.28,112.41Z"/><path class="cls-2" d="M144,44.89h0L106.58,7.45A5.07,5.07,0,0,0,106,7V45.44H144.5A4.93,4.93,0,0,0,144,44.89Z"/><path d="M145.52,132.53v-2.79a9.06,9.06,0,0,1,0-16.51v-2.79a11.66,11.66,0,0,0,0,22.08Z"/><path d="M145.52,173.37H118.15a2.59,2.59,0,1,0,0,5.19H144.4a5.07,5.07,0,0,0,1.12-3.16Z"/><path d="M144.09,121.49a5.16,5.16,0,0,0,1.44,3.57v-7.14A5.16,5.16,0,0,0,144.09,121.49Z"/><path class="cls-3" d="M107.77,173.37A10.38,10.38,0,0,1,118.15,163h15.56a5.2,5.2,0,0,0,5.19-5.19V133a15.49,15.49,0,0,1,6.62-26.61V55.67H100.92a5.11,5.11,0,0,1-5.11-5.11h0V5.95H21.34a5.11,5.11,0,0,0-5.11,5.11V175.4a5.11,5.11,0,0,0,5.11,5.11h87.88v-2A10.26,10.26,0,0,1,107.77,173.37ZM46.91,74.93H71.59a5.11,5.11,0,1,1,0,10.23H46.91a5.11,5.11,0,1,1,0-10.23Zm0,20.46h67.93a5.11,5.11,0,0,1,0,10.23H46.91a5.11,5.11,0,1,1,0-10.23Zm0,20.46h67.93a5.11,5.11,0,0,1,0,10.23H46.91a5.11,5.11,0,0,1,0-10.23Zm-5.11,25.57a5.11,5.11,0,0,1,5.11-5.11h67.93a5.11,5.11,0,0,1,0,10.23H46.91A5.11,5.11,0,0,1,41.79,141.42Z"/><path class="cls-2" d="M149.28,105.93A15.51,15.51,0,0,1,159.65,133v24.79a5.2,5.2,0,0,0,5.19,5.19H180.4a10.38,10.38,0,0,1,10.38,10.38,10.26,10.26,0,0,1-1.44,5.19v5.19H109.21v-5.19a10.26,10.26,0,0,1-1.44-5.19A10.38,10.38,0,0,1,118.15,163h15.56a5.2,5.2,0,0,0,5.19-5.19V133a15.55,15.55,0,0,1,10.38-27.09m0,27.24a11.71,11.71,0,1,0-3.75-.63,11.69,11.69,0,0,0,3.75.63m-31.13,45.39H180.4a2.59,2.59,0,1,0,0-5.19H118.15a2.59,2.59,0,1,0,0,5.19m31.13-77.63a20.5,20.5,0,0,0-15.38,34.14v22.74a.21.21,0,0,1-.19.19H118.15a15.39,15.39,0,0,0-15.38,15.38,15.2,15.2,0,0,0,1.44,6.4v9h90.13v-9a15.2,15.2,0,0,0,1.44-6.4A15.39,15.39,0,0,0,180.4,158H164.84a.21.21,0,0,1-.19-.19V135.07a20.5,20.5,0,0,0-15.38-34.14Zm0,27.24a6.67,6.67,0,1,1,6.67-6.67,6.62,6.62,0,0,1-6.67,6.67Z"/><path class="cls-2" d="M149.28,112.41a9.11,9.11,0,1,1-3.75.82,9.09,9.09,0,0,1,3.75-.82m0,14.27a5.21,5.21,0,1,0-3.75-1.62,5.19,5.19,0,0,0,3.75,1.62m0-19.27a14,14,0,0,0-5.83,1.27,14.06,14.06,0,0,0,0,25.61,14,14,0,0,0,5.83,1.27,14.08,14.08,0,0,0,0-28.16Zm0,14.27a.19.19,0,0,1,0-.38.19.19,0,0,1,0,.38Z"/></svg>