<svg id="圖層_1" data-name="圖層 1" xmlns="http://www.w3.org/2000/svg" viewBox="0 0 200 200"><defs><style>.cls-1{fill:#fff;}</style></defs><title>ICONNNN_0610</title><path class="cls-1" d="M139.08,110.22a35.15,35.15,0,1,0,35.15,35.15A35.19,35.19,0,0,0,139.08,110.22Zm0,63.45a28.3,28.3,0,1,1,28.3-28.3A28.33,28.33,0,0,1,139.08,173.67Z"/><path class="cls-1" d="M149.78,128a3.42,3.42,0,0,0-4.71,1.12L127.27,158a3.42,3.42,0,1,0,5.83,3.59l17.81-28.89a3.42,3.42,0,0,0-1.12-4.71Z"/><path class="cls-1" d="M41.34,156.37l-.52-.33a12.58,12.58,0,0,1-4-17.31A3.42,3.42,0,1,0,31,135.1a19.42,19.42,0,0,0,6.15,26.75l.52.33a3.42,3.42,0,1,0,3.63-5.8Z"/><path class="cls-1" d="M111.19,43.6l.52.33a12.57,12.57,0,0,1,4,17.31,3.42,3.42,0,1,0,5.8,3.63,19.43,19.43,0,0,0-6.15-26.75l-.52-.33a3.42,3.42,0,0,0-3.63,5.8Z"/><path class="cls-1" d="M105.31,118.17h0l28.53-45.58a34,34,0,0,0-10.77-46.8l-.52-.33a33.95,33.95,0,0,0-46.8,10.77L18.69,127.38a34,34,0,0,0,10.77,46.8l.52.33a34,34,0,0,0,46.8-10.77l28.53-45.58h0ZM81.55,39.86a27.1,27.1,0,0,1,37.37-8.6l.52.33A27.11,27.11,0,0,1,128,69l-26.71,42.67L54.84,82.54ZM71,160.11a27.1,27.1,0,0,1-37.37,8.6l-.52-.33A27.11,27.11,0,0,1,24.49,131L51.2,88.34l46.49,29.1Z"/></svg>