<svg id="圖層_1" data-name="圖層 1" xmlns="http://www.w3.org/2000/svg" viewBox="0 0 200 200"><defs><style>.cls-1{fill:#fff;}.cls-2{fill:none;stroke:#fff;stroke-linecap:round;stroke-linejoin:round;stroke-width:15px;}</style></defs><title>typeimg_urgent</title><g id="Layer_1" data-name="Layer 1"><path class="cls-1" d="M199.66,91a3.55,3.55,0,0,0-3.22-2H185.92a78,78,0,1,0-9.14,53.26,7.1,7.1,0,0,0-12.29-7.11A64,64,0,1,1,171.4,89H161a3.55,3.55,0,0,0-2.73,5.82L176,116.13a3.55,3.55,0,0,0,5.45,0l17.75-21.3A3.55,3.55,0,0,0,199.66,91Z"/><path class="cls-1" d="M109.16,42.86a7.1,7.1,0,0,0-7.1,7.1V93a12.41,12.41,0,0,0,7.1,22.6,12.27,12.27,0,0,0,5.24-1.2l24.69,14.25a7,7,0,0,0,3.54,1,7.1,7.1,0,0,0,3.55-13.24l-24.72-14.27A12.36,12.36,0,0,0,116.26,93V50A7.11,7.11,0,0,0,109.16,42.86Zm0,65.66a5.32,5.32,0,1,1,5.32-5.32A5.33,5.33,0,0,1,109.16,108.52Z"/></g><line class="cls-2" x1="28.77" y1="50.29" x2="53.77" y2="50.29"/><line class="cls-2" x1="11.57" y1="72.79" x2="41.27" y2="72.79"/><line class="cls-2" x1="41.87" y1="142.79" x2="22.77" y2="142.79"/><line class="cls-2" x1="32.32" y1="115.29" x2="22.77" y2="115.29"/></svg>