<svg id="圖層_1" data-name="圖層 1" xmlns="http://www.w3.org/2000/svg" viewBox="0 0 200 200"><defs><style>.cls-1{fill:#fff;}</style></defs><title>ICONNNN_0610</title><path class="cls-1" d="M31.93,41.53V18.23a5.83,5.83,0,0,1,11.65,0V41.53a5.83,5.83,0,0,1-11.65,0Zm99,5.83a5.82,5.82,0,0,0,5.83-5.83V18.23a5.83,5.83,0,0,0-11.65,0V41.53A5.82,5.82,0,0,0,131,47.36Zm64.09,104.87a46.61,46.61,0,1,1-46.61-46.61A46.61,46.61,0,0,1,195.06,152.23Zm-11.65,0a35,35,0,1,0-35,35A35,35,0,0,0,183.41,152.23ZM55.23,82.31H31.93v23.3H55.23ZM31.93,140.57H55.23V117.27H31.93Zm35-35H90.19V82.31H66.89Zm0,35H90.19V117.27H66.89ZM20.28,151.07V70.66H148.45V94H160.1V48.52A12.71,12.71,0,0,0,147.48,35.7h-4.86v5.83a11.65,11.65,0,1,1-23.3,0V35.7H49.41v5.83a11.65,11.65,0,1,1-23.3,0V35.7H21.25A12.72,12.72,0,0,0,8.62,48.52V151.07a12.73,12.73,0,0,0,12.63,12.81H90.19V152.23H21.25A1.1,1.1,0,0,1,20.28,151.07Zm104.87-45.45V82.31h-23.3v23.3Zm48,35.25a5.82,5.82,0,0,0-8.24,0l-20.6,20.6L132,149.11a5.83,5.83,0,0,0-8.24,8.24l16.48,16.48a5.83,5.83,0,0,0,8.24,0l24.71-24.72A5.82,5.82,0,0,0,173.17,140.87Z"/></svg>