<svg id="圖層_1" data-name="圖層 1" xmlns="http://www.w3.org/2000/svg" viewBox="0 0 200 200"><defs><style>.cls-1,.cls-2{fill:#fff;}.cls-2{stroke:#fff;stroke-miterlimit:10;}</style></defs><title>ICONNNN_0610</title><path class="cls-1" d="M170,172.29v9.91h9.86a14.46,14.46,0,0,0,14.36-14.51v-9.27h-9.91A14.11,14.11,0,0,0,170,172.29Z"/><path class="cls-1" d="M20.13,182.2h9.42v-9.91a13.73,13.73,0,0,0-13.87-13.87H5.77v9.27A14.46,14.46,0,0,0,20.13,182.2Z"/><path class="cls-1" d="M184.33,82.24h9.91V72.39A14.34,14.34,0,0,0,179.87,58H170v9.91A14.49,14.49,0,0,0,184.33,82.24Z"/><path class="cls-1" d="M70.5,34.83a6.67,6.67,0,0,1,6.58-6.75h45.85a6.67,6.67,0,0,1,6.58,6.75V53.62h7V34.83A13.72,13.72,0,0,0,122.93,21H77.07a13.72,13.72,0,0,0-13.62,13.8V53.62h7Z"/><path class="cls-1" d="M29.55,67.93V58H20.13A14.34,14.34,0,0,0,5.77,72.39v9.85h9.91A14.11,14.11,0,0,0,29.55,67.93Z"/><path class="cls-2" d="M36.59,172.29v9.91H163v-9.91a21.16,21.16,0,0,1,21.36-20.92h9.91V89.28h-9.91A21.54,21.54,0,0,1,163,67.93V58H36.59v9.91A21.16,21.16,0,0,1,15.67,89.28H5.77v62.09h9.91a20.79,20.79,0,0,1,20.92,20.92Z"/></svg>