<svg id="圖層_1" data-name="圖層 1" xmlns="http://www.w3.org/2000/svg" viewBox="0 0 200 200"><defs><style>.cls-1{fill:#fff;}</style></defs><title>ICONNNN_0610</title><g id="sun-umbrella"><g id="Group_14" data-name="Group 14"><g id="Group_13" data-name="Group 13"><path id="Path_1-3" data-name="Path 1-3" class="cls-1" d="M78.18,105.43l12.75-7-12.75-7,7.69-12.65-14.4.59L72,64.5l-12.19,8L53.13,59.25,46.42,72.48l-12.19-8,.56,14.94-14.4-.59L28.08,91.5l-12.75,7,12.75,7L20.4,118.08l14.4-.59-.56,14.94,12.19-8,6.71,13.23,6.71-13.23,12.19,8-.56-14.94,14.4.59Zm-25,12.65c-10.44,0-18.9-8.78-18.9-19.61s8.46-19.61,18.9-19.61S72,87.63,72,98.46s-8.46,19.61-18.9,19.61Z"/></g></g><g id="Group_16" data-name="Group 16"><g id="Group_15" data-name="Group 15"><path id="Path_2" data-name="Path 2" class="cls-1" d="M173.65,176.1c-3.48,2.54-6,4.38-11.7,4.38s-8.22-1.84-11.7-4.38c-3.86-2.82-8.67-6.32-17.63-6.32s-13.77,3.51-17.63,6.32c-3.48,2.54-6,4.38-11.7,4.38s-8.22-1.84-11.7-4.38c-3.86-2.82-8.67-6.32-17.63-6.32s-13.77,3.51-17.63,6.32c-3.48,2.54-6,4.38-11.7,4.38s-8.21-1.84-11.7-4.38c-3.86-2.82-8.66-6.32-17.63-6.32v10.69c5.7,0,8.22,1.84,11.7,4.38,3.86,2.82,8.67,6.32,17.63,6.32s13.77-3.51,17.63-6.32c3.48-2.54,6-4.38,11.7-4.38s8.21,1.84,11.7,4.38c3.86,2.82,8.67,6.32,17.63,6.32s13.77-3.51,17.63-6.32c3.48-2.54,6-4.38,11.7-4.38s8.22,1.84,11.7,4.38c3.86,2.82,8.67,6.32,17.63,6.32s13.77-3.51,17.63-6.32c3.48-2.54,6-4.38,11.7-4.38V169.77C182.31,169.77,177.51,173.28,173.65,176.1Z"/></g></g><g id="Group_18" data-name="Group 18"><g id="Group_17" data-name="Group 17"><path id="Path_3" data-name="Path 3" class="cls-1" d="M185.95,47.78a57.38,57.38,0,0,0-27.23-28.36l2.43-6.93-9.69-3.66L149,15.77c-28-7.69-57.65,8-67.75,36.76L79.2,58.45l6,1.15A86.68,86.68,0,0,1,112.65,70l1.2.71h1.9a51.7,51.7,0,0,1,13.39,1.77l-24,68.47-1.82,0a137.67,137.67,0,0,0-46.49,8,139.47,139.47,0,0,0-26.9,13,44.89,44.89,0,0,1,9,5.37c3,2.2,3.33,2.43,5.77,2.43s2.75-.22,5.77-2.43c4.24-3.09,11.33-8.27,23.56-8.27s19.32,5.18,23.55,8.27c3,2.2,3.33,2.43,5.77,2.43s2.75-.22,5.77-2.43c4.24-3.09,11.33-8.27,23.56-8.27s19.32,5.18,23.56,8.27c3,2.2,3.33,2.43,5.77,2.43s2.75-.22,5.77-2.43a44.9,44.9,0,0,1,9-5.38,139.46,139.46,0,0,0-26.9-13,137.37,137.37,0,0,0-33.89-7.47l22.93-65.37A53.39,53.39,0,0,1,150.58,84l1.05.93,1.36.26A86.69,86.69,0,0,1,180.46,95.6l5.3,3.11,2.08-5.93A60.46,60.46,0,0,0,185.95,47.78Z"/></g></g></g></svg>