<svg id="圖層_1" data-name="圖層 1" xmlns="http://www.w3.org/2000/svg" viewBox="0 0 200 200"><defs><style>.cls-1{fill:#fff;}</style></defs><title>ICONNNN_0610</title><path class="cls-1" d="M161,184.26V37.34l-8.23-8.23V9.41H42.66v19.7l-8.23,8.23V184.26H26.2v8.23h143v-8.23ZM130.49,14.74a5.81,5.81,0,1,1-5.81,5.81A5.89,5.89,0,0,1,130.49,14.74Zm-16.31,0a5.81,5.81,0,1,1-5.81,5.81A5.79,5.79,0,0,1,114.19,14.74Zm-16.47,0a5.79,5.79,0,0,1,5.81,5.81,5.65,5.65,0,0,1-5.81,5.65,5.73,5.73,0,1,1,0-11.46Zm-16.47,0a5.81,5.81,0,1,1-5.81,5.81A5.89,5.89,0,0,1,81.25,14.74Zm-16.31,0a5.81,5.81,0,1,1-5.81,5.81A5.79,5.79,0,0,1,64.94,14.74ZM122.42,85v16.47H106V85ZM106,72.05V55.58h16.47V72.05Zm.32,42.14h16.47v16.47H106.28Zm46.5-43.43V87.23H136.47V70.76Zm-16.31-8.88V45.57h16.47V62H136.47ZM152.77,95.3v16.47H136.47V95.3Zm0,23.89v16.47H136.47V119.2Zm0,24.7v16.47H136.47V143.9Zm-79.6-42.62V85H89.65v16.47l-16.47-.16Zm15.66,12.92v16.47H72.53V114.19ZM73.18,72.05V55.58H89.65V72.05ZM42.66,45.57H59V62H42.66Zm0,25.19H59V87.23H42.66Zm0,24.54H59v16.47H42.66Zm0,23.41H59v16.47H42.66Zm0,24.7H59v16.47H42.66Zm38.75,6.94h32.77v33.9H81.41Z"/><path class="cls-1" d="M190.47,161.21a30.37,30.37,0,0,1-60.75,0h7.59a22.78,22.78,0,1,0,22.78-22.78v-7.59A30.38,30.38,0,0,1,190.47,161.21Zm-30.37-19a19,19,0,1,0,19,19h-19Z"/></svg>