<svg id="圖層_1" data-name="圖層 1" xmlns="http://www.w3.org/2000/svg" viewBox="0 0 200 200"><defs><style>.cls-1{fill:#fff;}</style></defs><title>ICONNNN_0610</title><path class="cls-1" d="M170.55,48.1H135V50a14.59,14.59,0,0,1-14.58,14.58H78.83A14.59,14.59,0,0,1,64.26,50V48.1H28.75A21.15,21.15,0,0,0,7.6,69.25v81.27a21.15,21.15,0,0,0,21.15,21.15H170.58a21.15,21.15,0,0,0,21.15-21.15V69.25A21.16,21.16,0,0,0,170.55,48.1ZM46.48,93.74a20.43,20.43,0,0,1-.56-2h0a14.78,14.78,0,0,1,0-6.54,14.49,14.49,0,0,1,3.79-6.69,18.78,18.78,0,0,1,3.53-2.93,15.49,15.49,0,0,1,3.42-1.77h0a12.08,12.08,0,0,1,3.12-.6,12.83,12.83,0,0,1,7.81,1.65,9.93,9.93,0,0,1,3.79,3.53s6.31.45,4.17,13.3a10.23,10.23,0,0,1-.56,2c1.28-.11,2.74.6,1.35,5.56-1,3.61-2,4.62-2.71,4.7-.68,4.28-4.1,9.77-9.47,11.68a10.5,10.5,0,0,1-7,0c-5.49-1.92-8.79-7.4-9.47-11.72-.71-.08-1.69-1.09-2.71-4.7C43.74,94.35,45.24,93.59,46.48,93.74Zm14.43,50.35H30.1c.15-12.77-.34-19.61,7.93-22.62a70.75,70.75,0,0,0,12-5.82L55.84,134l.79,2.48,2.59-7.36c-6-8.34.45-8.72,1.58-8.72h0c1.13,0,7.51.41,1.58,8.72L65,136.46l.79-2.48,5.79-18.33a70.75,70.75,0,0,0,12,5.82c8.3,3,7.78,9.84,7.93,22.62ZM171,130.45h-61.8v-7.89H171Zm0-16.61h-61.8V106H171Zm0-16.64h-61.8V89.31H171Z"/><path class="cls-1" d="M78.83,57.56h41.59A7.55,7.55,0,0,0,128,50V44.86a7.55,7.55,0,0,0-7.55-7.55h-2.37V34.12a5.79,5.79,0,0,0-5.79-5.79H87a5.79,5.79,0,0,0-5.79,5.79v3.19H78.83a7.55,7.55,0,0,0-7.55,7.55V50A7.55,7.55,0,0,0,78.83,57.56Z"/></svg>