<svg id="圖層_1" data-name="圖層 1" xmlns="http://www.w3.org/2000/svg" viewBox="0 0 200 200"><defs><style>.cls-1{fill:#fff;}</style></defs><title>white</title><g id="Mask_Group_11" data-name="Mask Group 11"><g id="file"><path id="Path_87" data-name="Path 87" class="cls-1" d="M185.59,43.72l-42-42a5.69,5.69,0,0,0-.62-.52V44.33h43.18a5.54,5.54,0,0,0-.53-.62Z"/><path id="Path_88" data-name="Path 88" class="cls-1" d="M137.2,55.82a5.74,5.74,0,0,1-5.74-5.74h0V0H47.86a5.74,5.74,0,0,0-5.74,5.74h0V190.23A5.74,5.74,0,0,0,47.86,196H181.53a5.74,5.74,0,0,0,5.74-5.74V55.82ZM76.57,77.44h27.7a5.74,5.74,0,1,1,0,11.48H76.57a5.74,5.74,0,1,1,0-11.48Zm76.26,80.38H76.57a5.74,5.74,0,1,1,0-11.48h76.26a5.74,5.74,0,0,1,0,11.48Zm0-23H76.57a5.74,5.74,0,1,1,0-11.48h76.26a5.74,5.74,0,0,1,0,11.48Zm0-23H76.57a5.74,5.74,0,1,1,0-11.48h76.26a5.74,5.74,0,1,1,0,11.48Z"/></g></g></svg>