<?xml version="1.0" encoding="UTF-8"?>
<svg width="1920px" height="596px" viewBox="0 0 1920 596" version="1.1" xmlns="http://www.w3.org/2000/svg" xmlns:xlink="http://www.w3.org/1999/xlink">
    <!-- Generator: Sketch 48.2 (47327) - http://www.bohemiancoding.com/sketch -->
    <title>Page 1</title>
    <desc>Created with Sketch.</desc>
    <defs>
        <polygon id="path-1" points="0.669003323 0.152 99.2045303 0.152 99.2045303 101.793229 0.669003323 101.793229"></polygon>
        <polygon id="path-3" points="0 0.240521022 200.421926 0.240521022 200.421926 199.125634 0 199.125634"></polygon>
        <polygon id="path-5" points="0 0 119 0 119 117 0 117"></polygon>
        <polygon id="path-7" points="0.805307479 0.265501246 227.817 0.265501246 227.817 222.67266 0.805307479 222.67266"></polygon>
    </defs>
    <g id="生日禮" stroke="none" stroke-width="1" fill="none" fill-rule="evenodd" transform="translate(0.000000, -2.000000)">
        <g id="Page-1" transform="translate(-46.000000, 2.000000)">
            <g id="Group" transform="translate(64.000000, 49.000000)">
                <path d="M1779.7416,67.0607 C1779.7416,70.1177 1777.2636,72.5857 1774.2066,72.5857 C1771.1606,72.5857 1768.6826,70.1177 1768.6826,67.0607 C1768.6826,64.0137 1771.1606,61.5347 1774.2066,61.5347 C1777.2636,61.5347 1779.7416,64.0137 1779.7416,67.0607" id="Fill-1" fill="#FAF0E6"></path>
                <path d="M1827.2396,268.2668 C1827.2396,271.6568 1824.4946,274.4128 1821.0956,274.4128 C1817.7046,274.4128 1814.9476,271.6568 1814.9476,268.2668 C1814.9476,264.8788 1817.7046,262.1218 1821.0956,262.1218 C1824.4946,262.1218 1827.2396,264.8788 1827.2396,268.2668" id="Fill-3" fill="#FAF0E6"></path>
                <path d="M1687.2689,404.5055 C1687.2689,407.6575 1684.7229,410.2005 1681.5719,410.2005 C1678.4309,410.2005 1675.8849,407.6575 1675.8849,404.5055 C1675.8849,401.3625 1678.4309,398.8185 1681.5719,398.8185 C1684.7229,398.8185 1687.2689,401.3625 1687.2689,404.5055" id="Fill-5" fill="#FAF0E6"></path>
                <path d="M1821.0936,91.8742 C1821.0936,96.4682 1817.3696,100.1982 1812.7766,100.1982 C1808.1806,100.1982 1804.4476,96.4682 1804.4476,91.8742 C1804.4476,87.2892 1808.1806,83.5582 1812.7766,83.5582 C1817.3696,83.5582 1821.0936,87.2892 1821.0936,91.8742" id="Fill-7" fill="#FAF0E6"></path>
                <path d="M1812.7699,320.6676 C1812.7699,323.2096 1810.7099,325.2726 1808.1529,325.2726 C1805.6219,325.2726 1803.5479,323.2096 1803.5479,320.6676 C1803.5479,318.1106 1805.6219,316.0466 1808.1529,316.0466 C1810.7099,316.0466 1812.7699,318.1106 1812.7699,320.6676" id="Fill-9" fill="#FAF0E6"></path>
                <path d="M1817.1014,113.3459 C1817.1014,116.4359 1814.5984,118.9359 1811.5094,118.9359 C1808.4334,118.9359 1805.9304,116.4359 1805.9304,113.3459 C1805.9304,110.2689 1808.4334,107.7669 1811.5094,107.7669 C1814.5984,107.7669 1817.1014,110.2689 1817.1014,113.3459" id="Fill-11" fill="#FAF0E6"></path>
                <path d="M1710.8998,408.0866 C1710.8998,409.4466 1709.8108,410.5466 1708.4448,410.5466 C1707.0848,410.5466 1705.9858,409.4466 1705.9858,408.0866 C1705.9858,406.7206 1707.0848,405.6196 1708.4448,405.6196 C1709.8108,405.6196 1710.8998,406.7206 1710.8998,408.0866" id="Fill-13" fill="#FAF0E6"></path>
                <path d="M1628.3544,123.8664 C1628.3544,126.9764 1625.8304,129.4984 1622.7094,129.4984 C1619.6004,129.4984 1617.0784,126.9764 1617.0784,123.8664 C1617.0784,120.7454 1619.6004,118.2344 1622.7094,118.2344 C1625.8304,118.2344 1628.3544,120.7454 1628.3544,123.8664" id="Fill-15" fill="#FAF0E6"></path>
                <path d="M1480.2538,28.841 C1480.2538,32.005 1477.6778,34.581 1474.5128,34.581 C1471.3378,34.581 1468.7738,32.005 1468.7738,28.841 C1468.7738,25.678 1471.3378,23.102 1474.5128,23.102 C1477.6778,23.102 1480.2538,25.678 1480.2538,28.841" id="Fill-17" fill="#FAF0E6"></path>
                <path d="M1793.4799,294.0329 C1793.4799,298.1579 1790.1369,301.5119 1785.9979,301.5119 C1781.8619,301.5119 1778.5169,298.1579 1778.5169,294.0329 C1778.5169,289.8939 1781.8619,286.5399 1785.9979,286.5399 C1790.1369,286.5399 1793.4799,289.8939 1793.4799,294.0329" id="Fill-19" fill="#FAF0E6"></path>
                <path d="M1645.9237,80.1325 C1645.9237,81.4895 1644.8347,82.6005 1643.4647,82.6005 C1642.1067,82.6005 1641.0057,81.4895 1641.0057,80.1325 C1641.0057,78.7745 1642.1067,77.6625 1643.4647,77.6625 C1644.8347,77.6625 1645.9237,78.7745 1645.9237,80.1325" id="Fill-21" fill="#FAF0E6"></path>
                <path d="M37.5277,80.5534 C37.5277,78.4704 39.2147,76.7924 41.2777,76.7924 C43.3517,76.7924 45.0407,78.4704 45.0407,80.5534 C45.0407,82.6164 43.3517,84.3044 41.2777,84.3044 C39.2147,84.3044 37.5277,82.6164 37.5277,80.5534" id="Fill-23" fill="#FAF0E6"></path>
                <path d="M0.2044,267.5465 C0.2044,263.3895 3.5804,260.0125 7.7384,260.0125 C11.8964,260.0125 15.2744,263.3895 15.2744,267.5465 C15.2744,271.7155 11.8964,275.0925 7.7384,275.0925 C3.5804,275.0925 0.2044,271.7155 0.2044,267.5465" id="Fill-25" fill="#FAF0E6"></path>
                <path d="M14.0345,504.151 C14.0345,501.012 16.5895,498.452 19.7325,498.452 C22.8725,498.452 25.4285,501.012 25.4285,504.151 C25.4285,507.293 22.8725,509.848 19.7325,509.848 C16.5895,509.848 14.0345,507.293 14.0345,504.151" id="Fill-27" fill="#FAF0E6"></path>
                <path d="M21.078,472.4421 C21.078,469.0431 23.847,466.2761 27.245,466.2761 C30.642,466.2761 33.412,469.0431 33.412,472.4421 C33.412,475.8421 30.642,478.5981 27.245,478.5981 C23.847,478.5981 21.078,475.8421 21.078,472.4421" id="Fill-29" fill="#FAF0E6"></path>
                <path d="M126.9837,66.8312 C126.9837,63.7422 129.4737,61.2502 132.5517,61.2502 C135.6297,61.2502 138.1307,63.7422 138.1307,66.8312 C138.1307,69.8982 135.6297,72.3882 132.5517,72.3882 C129.4737,72.3882 126.9837,69.8982 126.9837,66.8312" id="Fill-31" fill="#FAF0E6"></path>
                <path d="M357.554,15.5295 C357.554,12.9865 359.606,10.9235 362.149,10.9235 C364.694,10.9235 366.746,12.9865 366.746,15.5295 C366.746,18.0625 364.694,20.1365 362.149,20.1365 C359.606,20.1365 357.554,18.0625 357.554,15.5295" id="Fill-33" fill="#FAF0E6"></path>
                <path d="M32.5789,256.5812 C32.5789,254.3252 34.4059,252.4882 36.6699,252.4882 C38.9369,252.4882 40.7759,254.3252 40.7759,256.5812 C40.7759,258.8472 38.9369,260.6952 36.6699,260.6952 C34.4059,260.6952 32.5789,258.8472 32.5789,256.5812" id="Fill-35" fill="#FAF0E6"></path>
                <path d="M383.9813,43.7443 C383.9813,40.1853 386.8553,37.3123 390.4163,37.3123 C393.9733,37.3123 396.8503,40.1853 396.8503,43.7443 C396.8503,47.3043 393.9733,50.1783 390.4163,50.1783 C386.8553,50.1783 383.9813,47.3043 383.9813,43.7443" id="Fill-37" fill="#FAF0E6"></path>
                <path d="M387.7694,8.7736 C387.7694,4.3826 391.3294,0.8236 395.7114,0.8236 C400.1034,0.8236 403.6644,4.3826 403.6644,8.7736 C403.6644,13.1566 400.1034,16.7266 395.7114,16.7266 C391.3294,16.7266 387.7694,13.1566 387.7694,8.7736" id="Fill-39" fill="#FAF0E6"></path>
                <path d="M12.2606,361.3742 C12.2606,360.0182 13.3506,358.9172 14.7196,358.9172 C16.0746,358.9172 17.1776,360.0182 17.1776,361.3742 C17.1776,362.7312 16.0746,363.8432 14.7196,363.8432 C13.3506,363.8432 12.2606,362.7312 12.2606,361.3742" id="Fill-41" fill="#FAF0E6"></path>
                <path d="M1760.6927,103.5465 C1764.2877,103.5465 1767.2007,106.4595 1767.2007,110.0545 C1767.2007,113.6505 1764.2877,116.5575 1760.6927,116.5575 C1757.0977,116.5575 1754.1797,113.6505 1754.1797,110.0545 C1754.1797,106.4595 1757.0977,103.5465 1760.6927,103.5465" id="Fill-43" fill="#FCEB9E"></path>
                <path d="M165.7362,435.6129 C168.3722,435.6129 170.5082,437.7539 170.5082,440.3909 C170.5082,443.0319 168.3722,445.1639 165.7362,445.1639 C163.0972,445.1639 160.9612,443.0319 160.9612,440.3909 C160.9612,437.7539 163.0972,435.6129 165.7362,435.6129" id="Fill-45" fill="#FCEB9E"></path>
                <path d="M23.6385,94.8244 C26.5715,94.8244 28.9475,97.2034 28.9475,100.1304 C28.9475,103.0614 26.5715,105.4364 23.6385,105.4364 C20.7095,105.4364 18.3335,103.0614 18.3335,100.1304 C18.3335,97.2034 20.7095,94.8244 23.6385,94.8244" id="Fill-47" fill="#FCEB9E"></path>
                <path d="M161.2528,461.4972 C163.9678,461.4972 166.1688,463.6942 166.1688,466.4112 C166.1688,469.1272 163.9678,471.3312 161.2528,471.3312 C158.5368,471.3312 156.3348,469.1272 156.3348,466.4112 C156.3348,463.6942 158.5368,461.4972 161.2528,461.4972" id="Fill-49" fill="#FCEB9E"></path>
                <path d="M1760.6903,332.9167 C1763.6283,332.9167 1766.0133,335.2957 1766.0133,338.2367 C1766.0133,341.1777 1763.6283,343.5577 1760.6903,343.5577 C1757.7523,343.5577 1755.3673,341.1777 1755.3673,338.2367 C1755.3673,335.2957 1757.7523,332.9167 1760.6903,332.9167" id="Fill-51" fill="#FCEB9E"></path>
                <path d="M21.5721,52.6769 C23.7721,52.6769 25.5581,54.4679 25.5581,56.6649 C25.5581,58.8629 23.7721,60.6489 21.5721,60.6489 C19.3721,60.6489 17.5881,58.8629 17.5881,56.6649 C17.5881,54.4679 19.3721,52.6769 21.5721,52.6769" id="Fill-53" fill="#FCEB9E"></path>
                <path d="M1593.6459,490.9284 C1596.3339,490.9284 1598.5149,493.1074 1598.5149,495.7954 C1598.5149,498.4884 1596.3339,500.6674 1593.6459,500.6674 C1590.9579,500.6674 1588.7769,498.4884 1588.7769,495.7954 C1588.7769,493.1074 1590.9579,490.9284 1593.6459,490.9284" id="Fill-55" fill="#FCEB9E"></path>
                <path d="M118.7157,42.9059 C121.4527,42.9059 123.6737,45.1269 123.6737,47.8659 C123.6737,50.6019 121.4527,52.8269 118.7157,52.8269 C115.9777,52.8269 113.7587,50.6019 113.7587,47.8659 C113.7587,45.1269 115.9777,42.9059 118.7157,42.9059" id="Fill-57" fill="#FCEB9E"></path>
                <path d="M488,43.761 C488,41.678 489.687,40 491.75,40 C493.824,40 495.513,41.678 495.513,43.761 C495.513,45.824 493.824,47.512 491.75,47.512 C489.687,47.512 488,45.824 488,43.761" id="Fill-59" fill="#FAF0E6"></path>
                <path d="M577.8533,30.2799 C577.8533,27.1909 580.3433,24.6989 583.4213,24.6989 C586.4993,24.6989 589.0003,27.1909 589.0003,30.2799 C589.0003,33.3469 586.4993,35.8359 583.4213,35.8359 C580.3433,35.8359 577.8533,33.3469 577.8533,30.2799" id="Fill-61" fill="#FAF0E6"></path>
                <path d="M474.305,58 C477.238,58 479.614,60.379 479.614,63.306 C479.614,66.238 477.238,68.613 474.305,68.613 C471.376,68.613 469,66.238 469,63.306 C469,60.379 471.376,58 474.305,58" id="Fill-63" fill="#FCEB9E"></path>
                <path d="M471.984,16 C474.184,16 475.97,17.791 475.97,19.988 C475.97,22.185 474.184,23.971 471.984,23.971 C469.784,23.971 468,22.185 468,19.988 C468,17.791 469.784,16 471.984,16" id="Fill-65" fill="#FCEB9E"></path>
                <path d="M569.5853,6.3547 C572.3223,6.3547 574.5433,8.5757 574.5433,11.3147 C574.5433,14.0497 572.3223,16.2747 569.5853,16.2747 C566.8463,16.2747 564.6283,14.0497 564.6283,11.3147 C564.6283,8.5757 566.8463,6.3547 569.5853,6.3547" id="Fill-67" fill="#FCEB9E"></path>
                <path d="M1499.9095,63.6159 C1503.4795,63.6159 1506.3725,66.5049 1506.3725,70.0819 C1506.3725,73.6489 1503.4795,76.5429 1499.9095,76.5429 C1496.3425,76.5429 1493.4465,73.6489 1493.4465,70.0819 C1493.4465,66.5049 1496.3425,63.6159 1499.9095,63.6159" id="Fill-69" fill="#FCEB9E"></path>
                <path d="M1696.9677,75.8649 C1698.1387,75.8649 1699.0947,76.8089 1699.0947,77.9879 C1699.0947,79.1609 1698.1387,80.1149 1696.9677,80.1149 C1695.7937,80.1149 1694.8377,79.1609 1694.8377,77.9879 C1694.8377,76.8089 1695.7937,75.8649 1696.9677,75.8649" id="Fill-71" fill="#FCEB9E"></path>
                <path d="M1365.0116,13.1842 C1365.0116,16.2422 1362.5336,18.7092 1359.4756,18.7092 C1356.4296,18.7092 1353.9516,16.2422 1353.9516,13.1842 C1353.9516,10.1372 1356.4296,7.6582 1359.4756,7.6582 C1362.5336,7.6582 1365.0116,10.1372 1365.0116,13.1842" id="Fill-73" fill="#FAF0E6"></path>
                <path d="M1406.3636,37.9977 C1406.3636,42.5927 1402.6396,46.3217 1398.0466,46.3217 C1393.4506,46.3217 1389.7176,42.5927 1389.7176,37.9977 C1389.7176,33.4127 1393.4506,29.6817 1398.0466,29.6817 C1402.6396,29.6817 1406.3636,33.4127 1406.3636,37.9977" id="Fill-75" fill="#FAF0E6"></path>
                <path d="M1402.371,59.4699 C1402.371,62.5599 1399.868,65.0599 1396.779,65.0599 C1393.703,65.0599 1391.2,62.5599 1391.2,59.4699 C1391.2,56.3919 1393.703,53.8909 1396.779,53.8909 C1399.868,53.8909 1402.371,56.3919 1402.371,59.4699" id="Fill-77" fill="#FAF0E6"></path>
                <path d="M1345.9623,49.6706 C1349.5573,49.6706 1352.4703,52.5836 1352.4703,56.1786 C1352.4703,59.7736 1349.5573,62.6816 1345.9623,62.6816 C1342.3673,62.6816 1339.4493,59.7736 1339.4493,56.1786 C1339.4493,52.5836 1342.3673,49.6706 1345.9623,49.6706" id="Fill-79" fill="#FCEB9E"></path>
                <path d="M1282.2372,21.9889 C1283.4082,21.9889 1284.3642,22.9329 1284.3642,24.1119 C1284.3642,25.2849 1283.4082,26.2389 1282.2372,26.2389 C1281.0632,26.2389 1280.1072,25.2849 1280.1072,24.1119 C1280.1072,22.9329 1281.0632,21.9889 1282.2372,21.9889" id="Fill-81" fill="#FCEB9E"></path>
            </g>
            <g id="Group-132" transform="translate(212.000000, 0.000000)">
                <path d="M115.4242,46.3162 C99.5632,43.6772 83.7982,40.1442 67.8002,38.4162 C66.6002,38.2852 66.6522,36.4032 67.8612,36.5312 C83.8582,38.2612 99.6192,41.7942 115.4832,44.4322 C116.6642,44.6292 116.6182,46.5132 115.4242,46.3162" id="Fill-83" fill="#FBF7EF"></path>
                <path d="M91.2635,51.8655 C77.6505,42.3875 62.1445,35.6765 48.0165,26.9565 C32.9725,17.6645 17.9165,8.2385 1.2725,2.0315 C0.1395,1.6085 0.6895,-0.1945 1.8295,0.2315 C18.0695,6.2875 32.8425,15.3565 47.5265,24.4365 C54.9245,29.0115 62.3155,33.5345 70.0285,37.5635 C77.6155,41.5285 85.2375,45.3775 92.2775,50.2765 C93.2715,50.9695 92.2645,52.5615 91.2635,51.8655" id="Fill-85" fill="#FBF7EF"></path>
                <g id="Group-89">
                    <mask id="mask-2" fill="white">
                        <use xlink:href="#path-1"></use>
                    </mask>
                    <g id="Clip-88"></g>
                    <path d="M1.8299,0.2313 C11.9319,4.5563 21.0509,12.6573 28.5479,20.5603 C36.6619,29.1153 44.3589,39.2023 48.5529,50.3043 C50.4359,55.2913 51.9249,60.3783 54.4499,65.0983 C57.5479,70.8883 62.9989,75.4883 68.1009,79.4453 C77.8509,87.0033 88.9709,92.5793 98.8159,100.0143 C99.7759,100.7403 98.7729,102.3383 97.8009,101.6053 C80.6219,88.6273 57.3319,80.2273 49.4639,58.4763 C47.6719,53.5293 46.1159,48.5183 43.6189,43.8623 C40.3489,37.7603 35.9879,32.1133 31.5769,26.8063 C23.5339,17.1333 12.9879,7.0433 1.2719,2.0313 C0.1689,1.5583 0.7129,-0.2467 1.8299,0.2313" id="Fill-87" fill="#FBF7EF" mask="url(#mask-2)"></path>
                </g>
                <path d="M54.3055,64.8943 C57.9465,87.2963 64.1975,109.3533 72.1275,130.6023 C72.5525,131.7403 70.7105,132.1483 70.2935,131.0303 C62.3625,109.7813 56.1095,87.7233 52.4725,65.3203 C52.2795,64.1243 54.1115,63.6933 54.3055,64.8943" id="Fill-90" fill="#FBF7EF"></path>
                <path d="M126.6966,83.9261 C113.8816,82.3431 103.2866,73.9881 91.7386,68.9331 C90.6366,68.4521 91.1816,66.6471 92.2926,67.1341 C103.6386,72.1001 114.1866,80.4921 126.7546,82.0431 C127.9496,82.1921 127.9016,84.0761 126.6966,83.9261" id="Fill-92" fill="#FBF7EF"></path>
                <path d="M105.4915,89.202 C99.7975,84.136 96.3195,77.061 92.4855,70.599 C87.4135,62.05 80.4505,55.493 72.6305,49.442 C60.6755,40.19 47.1335,33.522 33.6125,26.926 C32.5235,26.397 33.5485,24.812 34.6285,25.34 C48.1935,31.958 61.5505,38.722 73.6465,47.854 C80.0285,52.673 86.6025,58.215 91.0915,64.897 C96.2335,72.553 99.8845,81.705 106.8795,87.927 C107.7845,88.734 106.3885,90.002 105.4915,89.202" id="Fill-94" fill="#FBF7EF"></path>
                <path d="M27.3792,19.6282 C32.5632,24.0542 38.3072,27.7372 43.4912,32.1552 C49.5382,37.3102 55.3732,42.7382 60.9702,48.3792 C71.1992,58.6912 79.9952,70.2442 88.4712,82.0072 C89.1732,82.9772 87.7942,84.2662 87.0822,83.2782 C78.5942,71.4982 69.7592,60.0392 59.5812,49.6532 C54.4082,44.3732 48.9242,39.4062 43.3712,34.5342 C37.8302,29.6742 31.6032,25.6902 25.9902,20.9022 C25.0702,20.1132 26.4662,18.8462 27.3792,19.6282" id="Fill-96" fill="#FBF7EF"></path>
                <path d="M87.7655,121.7527 C79.1855,115.1517 70.7775,107.9337 61.2385,102.7337 C60.1725,102.1517 61.1905,100.5667 62.2525,101.1447 C71.7925,106.3427 80.2015,113.5627 88.7795,120.1627 C89.7355,120.8987 88.7285,122.4937 87.7655,121.7527" id="Fill-98" fill="#FBF7EF"></path>
                <path d="M61.013,96.5643 C58.659,108.4943 56.847,120.5513 58.317,132.7103 C58.464,133.9033 56.63,134.3413 56.482,133.1383 C54.971,120.6313 56.791,108.2813 59.214,96.0073 C59.447,94.8183 61.246,95.3853 61.013,96.5643" id="Fill-100" fill="#FBF7EF"></path>
                <path d="M116.8871,40.9485 C114.9941,38.4075 110.1771,39.7665 113.1261,44.3695 C110.9751,44.2665 109.7271,44.6705 109.7151,46.5105 C110.3731,47.7435 111.5081,48.1325 112.5081,48.3255 C109.2151,50.9015 111.2111,53.3735 114.5911,51.9505 C114.8931,54.6985 117.7671,55.8245 119.4651,53.4545 C123.1101,55.4995 125.3321,52.4185 123.5971,49.5955 C126.6771,49.1415 127.5311,44.9885 123.5001,44.9395 C125.4801,42.7285 122.9891,39.9395 120.1331,42.3965 C122.0181,39.0295 118.2151,37.2685 116.8871,40.9485" id="Fill-102" fill="#FBF7EF"></path>
                <path d="M101.2459,56.6483 C104.0929,57.2043 106.5219,53.3163 101.6869,52.0223 C103.2079,50.7573 103.8079,49.7143 102.6829,48.4693 C101.4749,48.0403 100.4669,48.4773 99.6749,48.9583 C100.3129,45.1903 97.4459,44.7443 96.0319,47.7893 C94.1369,46.1113 91.5009,47.1223 91.8109,49.7703 C88.0839,50.6283 88.4789,54.0843 91.3859,54.9253 C89.5789,57.1293 91.5619,60.4603 94.3169,58.0223 C94.3399,60.7303 97.7429,61.0823 98.1599,57.6623 C98.9539,61.1003 102.6149,59.9563 101.2459,56.6483" id="Fill-104" fill="#FBF7EF"></path>
                <path d="M109.846,94.0281 C110.124,97.1561 105.665,99.3361 104.804,93.9861 C103.28,95.4811 102.088,96.0051 100.866,94.6541 C100.538,93.3091 101.122,92.2731 101.736,91.4681 C97.598,91.7361 97.442,88.5901 100.88,87.4071 C99.288,85.1761 100.671,82.4501 103.49,83.0751 C104.833,79.1571 108.518,79.9681 109.094,83.2031 C111.672,81.5041 115.054,84.0101 112.099,86.7111 C115.026,87.0381 115.018,90.7501 111.291,90.8121 C114.909,92.0561 113.261,95.8741 109.846,94.0281" id="Fill-106" fill="#FBF7EF"></path>
                <path d="M72.9715,83.8299 C73.6425,87.5029 75.8435,91.3339 77.3935,94.7359 C79.2945,98.9029 81.5145,102.9219 84.2335,106.6179 C84.9455,107.5859 83.5655,108.8699 82.8445,107.8919 C80.2735,104.3969 78.1595,100.6689 76.2685,96.7669 C74.3995,92.9129 71.9115,88.4969 71.1375,84.2569 C70.9205,83.0649 72.7535,82.6339 72.9715,83.8299" id="Fill-108" fill="#FBF7EF"></path>
                <path d="M50.5306,142.7523 C49.5286,146.5913 54.6146,150.2563 56.8246,143.7683 C58.4086,145.9623 59.7826,146.8693 61.5906,145.4443 C62.2826,143.8293 61.7816,142.4193 61.1896,141.2873 C66.2846,142.5023 67.1516,138.6193 63.1146,136.4163 C65.5766,133.9743 64.4306,130.2803 60.7886,130.4693 C59.9446,125.2943 55.1856,125.5233 53.7786,129.4233 C50.9276,126.7603 46.1856,129.1673 49.2836,133.1543 C45.5736,132.9403 44.7896,137.5613 49.4256,138.4393 C44.6546,139.2153 45.8926,144.3263 50.5306,142.7523" id="Fill-110" fill="#FBF7EF"></path>
                <path d="M100.3529,97.7005 C98.4599,95.1595 93.6419,96.5145 96.5939,101.1185 C94.4349,101.0165 93.1889,101.4285 93.1769,103.2625 C93.8399,104.4945 94.9739,104.8855 95.9709,105.0785 C92.6829,107.6525 94.6769,110.1265 98.0549,108.7025 C98.3569,111.4535 101.2329,112.5685 102.9279,110.2045 C106.5759,112.2515 108.7989,109.1655 107.0579,106.3465 C110.1439,105.8945 110.9949,101.7385 106.9679,101.6915 C108.9459,99.4755 106.4529,96.6945 103.5979,99.1515 C105.4869,95.7855 101.6829,94.0175 100.3529,97.7005" id="Fill-112" fill="#FBF7EF"></path>
                <path d="M95.6556,125.0433 C98.4966,125.5933 100.9256,121.7123 96.0926,120.4133 C97.6166,119.1543 98.2066,118.1133 97.0866,116.8633 C95.8796,116.4433 94.8726,116.8713 94.0776,117.3543 C94.7186,113.5853 91.8476,113.1423 90.4356,116.1853 C88.5406,114.5083 85.9056,115.5213 86.2146,118.1663 C82.4876,119.0213 82.8816,122.4823 85.7926,123.3153 C83.9876,125.5183 85.9646,128.8623 88.7186,126.4153 C88.7446,129.1293 92.1436,129.4773 92.5656,126.0593 C93.3586,129.4993 97.0156,128.3513 95.6556,125.0433" id="Fill-114" fill="#FBF7EF"></path>
                <path d="M88.5746,106.5086 C90.7006,105.3506 90.1986,101.5616 86.4026,103.2866 C86.7156,101.6696 86.5416,100.6846 85.1526,100.4706 C84.1506,100.8366 83.7346,101.6536 83.4796,102.3886 C81.8876,99.6176 79.8036,100.8556 80.5106,103.5646 C78.3986,103.4926 77.2416,105.5416 78.8416,107.0866 C76.8966,109.6166 78.9856,111.6336 81.3076,110.6286 C81.3126,113.0066 84.3626,114.1076 84.8366,111.0656 C86.2916,112.8036 88.6716,111.2196 87.1236,108.7996 C89.4646,110.5916 91.2146,107.9116 88.5746,106.5086" id="Fill-116" fill="#FBF7EF"></path>
                <path d="M94.5345,87.2322 C96.1275,89.9422 93.0425,93.8252 89.9645,89.3672 C89.2285,91.3702 88.3815,92.3572 86.6915,91.6672 C85.8245,90.5882 85.9005,89.4012 86.1055,88.4152 C82.4875,90.4372 80.9925,87.6672 83.5895,85.1172 C81.1895,83.7922 81.2665,80.7342 84.0805,80.0852 C83.6085,75.9672 87.2825,75.1202 89.1915,77.7852 C90.7855,75.1452 94.9185,75.9522 93.4165,79.6542 C96.1985,78.6962 97.7895,82.0442 94.4545,83.7112 C98.2525,83.2762 98.4075,87.4322 94.5345,87.2322" id="Fill-118" fill="#FBF7EF"></path>
                <path d="M125.4764,77.2635 C124.3904,74.5775 119.8134,74.6595 121.3554,79.4125 C119.4684,78.8265 118.2734,78.8955 117.8374,80.5205 C118.1314,81.7615 119.0434,82.3695 119.8814,82.7725 C116.3724,84.2855 117.5624,86.9355 120.8834,86.4615 C120.5134,88.9675 122.7944,90.6285 124.8404,88.9275 C127.5934,91.5835 130.2794,89.3725 129.3944,86.4755 C132.2264,86.7905 133.9514,83.3105 130.4044,82.3285 C132.6634,80.8355 131.1054,77.7905 128.0084,79.3025 C130.4624,76.7625 127.5034,74.3195 125.4764,77.2635" id="Fill-120" fill="#FBF7EF"></path>
                <path d="M81.5135,133.0135 C84.5295,133.8855 84.9475,138.8315 79.6455,137.6945 C80.4885,139.6575 80.5475,140.9555 78.8455,141.6085 C77.4715,141.4225 76.7195,140.5025 76.1895,139.6455 C74.9355,143.5995 71.9505,142.6045 72.0975,138.9705 C69.4335,139.6465 67.3975,137.3705 69.0055,134.9675 C65.8345,132.2955 67.9275,129.1595 71.1505,129.7915 C70.4985,126.7745 74.0625,124.5315 75.5075,128.2565 C76.8715,125.6535 80.3265,127.0015 79.0395,130.5055 C81.5085,127.5785 84.4725,130.4975 81.5135,133.0135" id="Fill-122" fill="#FBF7EF"></path>
                <path d="M45.6126,111.7503 C43.2646,112.3343 42.7926,116.1283 46.9026,115.4173 C46.1926,116.9033 46.1106,117.9003 47.4006,118.4503 C48.4666,118.3543 49.0726,117.6753 49.5066,117.0223 C50.3456,120.1043 52.6716,119.4353 52.6746,116.6343 C54.7036,117.2363 56.3416,115.5473 55.1776,113.6513 C57.6986,111.6903 56.1896,109.2113 53.6906,109.5983 C54.2826,107.2923 51.6126,105.4613 50.3816,108.2813 C49.4196,106.2333 46.7136,107.1613 47.5966,109.8993 C45.7876,107.5713 43.4166,109.7213 45.6126,111.7503" id="Fill-124" fill="#FBF7EF"></path>
                <path d="M110.807,67.8904 C112.934,66.7334 112.435,62.9414 108.631,64.6704 C108.945,63.0504 108.774,62.0654 107.383,61.8564 C106.38,62.2234 105.965,63.0364 105.711,63.7674 C104.12,61.0024 102.037,62.2364 102.743,64.9424 C100.629,64.8734 99.469,66.9254 101.074,68.4634 C99.13,70.9994 101.217,73.0154 103.539,72.0074 C103.543,74.3894 106.59,75.4934 107.068,72.4494 C108.525,74.1884 110.901,72.6054 109.359,70.1824 C111.697,71.9734 113.443,69.2914 110.807,67.8904" id="Fill-126" fill="#FBF7EF"></path>
                <path d="M55.2801,74.1155 C52.6831,79.7095 49.1191,84.6875 44.8001,89.0745 C43.9481,89.9415 42.6731,88.5525 43.5271,87.6885 C47.7381,83.4055 51.1621,78.5515 53.6911,73.1005 C54.2011,72.0055 55.7841,73.0285 55.2801,74.1155" id="Fill-128" fill="#FBF7EF"></path>
                <path d="M49.4847,88.0091 C51.6147,86.8551 51.1147,83.0631 47.3117,84.7891 C47.6257,83.1721 47.4547,82.1871 46.0657,81.9751 C45.0597,82.3421 44.6387,83.1551 44.3897,83.8891 C42.8007,81.1221 40.7107,82.3611 41.4177,85.0701 C39.3067,84.9971 38.1447,87.0501 39.7517,88.5891 C37.8077,91.1231 39.8987,93.1361 42.2177,92.1291 C42.2227,94.5141 45.2737,95.6151 45.7477,92.5711 C47.2017,94.3061 49.5817,92.7251 48.0347,90.3001 C50.3757,92.0981 52.1247,89.4141 49.4847,88.0091" id="Fill-130" fill="#FBF7EF"></path>
            </g>
            <g id="Group-181" transform="translate(1695.000000, 27.000000)" fill="#FBF7EF">
                <path d="M100.5419,109.0032 C100.2259,94.5382 100.7179,80.0112 99.5789,65.5742 C99.4919,64.4872 101.1829,64.3812 101.2659,65.4732 C102.4129,79.9092 101.9219,94.4382 102.2329,108.9042 C102.2559,109.9912 100.5649,110.1032 100.5419,109.0032" id="Fill-133"></path>
                <path d="M91.6376,88.5916 C94.8186,81.5056 96.9626,74.0626 99.2016,66.6466 C101.3416,59.5596 103.9556,52.6696 106.6106,45.7616 C112.2666,31.0466 117.9866,16.2826 120.6696,0.6776 C120.8506,-0.4014 122.5156,-0.0634 122.3296,1.0156 C119.7136,16.2676 114.1936,30.7436 108.6636,45.1316 C105.7076,52.8216 102.8206,60.5006 100.4356,68.3906 C98.2996,75.4856 96.1976,82.5676 93.1586,89.3376 C92.7106,90.3376 91.1886,89.5876 91.6376,88.5916" id="Fill-135"></path>
                <path d="M122.33,1.0154 C120.296,10.2234 115.027,19.1564 109.653,26.8054 C103.285,35.8764 95.371,44.8004 85.855,50.6284 C81.255,53.4484 76.47,55.8084 72.441,59.4734 C68.25,63.2884 65.391,68.6884 62.898,73.6984 C58.1,83.3484 55.058,93.7624 50.265,103.4214 C49.778,104.4024 48.257,103.6554 48.741,102.6734 C57.488,85.0514 60.98,63.5174 79.021,52.6404 C83.681,49.8314 88.445,47.4034 92.437,43.6384 C96.847,39.4834 100.984,35.1924 104.787,30.4664 C111.558,22.0474 118.307,11.3594 120.669,0.6784 C120.904,-0.3886 122.565,-0.0576 122.33,1.0154" id="Fill-137"></path>
                <path d="M73.8495,58.1673 C54.7145,65.1003 36.3275,74.2713 18.9245,84.7943 C17.9875,85.3573 17.0365,83.9573 17.9685,83.3923 C35.4965,72.7963 54.0355,63.5433 73.3055,56.5603 C74.3335,56.1893 74.8775,57.7923 73.8495,58.1673" id="Fill-139"></path>
                <path d="M69.1654,125.2527 C68.4264,113.6767 74.0674,102.8827 76.6074,91.8437 C76.8504,90.7807 78.5154,91.1107 78.2694,92.1797 C75.7704,103.0517 70.1284,113.7547 70.8564,125.1477 C70.9244,126.2377 69.2334,126.3437 69.1654,125.2527" id="Fill-141"></path>
                <path d="M60.8885,107.5936 C64.1685,102.0976 69.3025,98.0486 74.0715,93.8966 C80.7865,88.0516 85.5735,81.3396 89.7555,73.4836 C96.4435,60.9426 100.2615,47.2806 104.0015,33.6496 C104.2825,32.6046 105.9465,32.9296 105.6545,33.9876 C102.1115,46.9426 98.4095,59.7486 92.4835,71.8626 C89.1235,78.7376 85.0635,85.6626 79.6235,91.1036 C73.9175,96.8166 66.6215,101.2886 62.4075,108.3426 C61.8515,109.2786 60.3275,108.5346 60.8885,107.5936" id="Fill-143"></path>
                <path d="M109.5389,26.6375 C106.4849,31.9605 104.1909,37.6585 101.1449,42.9775 C97.7629,48.9005 94.1209,54.6835 90.2839,60.3255 C82.7079,71.4755 73.7209,81.4995 64.4529,91.2575 C63.7019,92.0515 62.4139,90.9395 63.1689,90.1465 C71.8919,80.9665 80.3089,71.5585 87.6299,61.2015 C91.6569,55.4995 95.3099,49.5445 98.8589,43.5395 C102.2329,37.8245 104.7159,31.6535 108.0149,25.8915 C108.5569,24.9465 110.0799,25.6895 109.5389,26.6375" id="Fill-145"></path>
                <path d="M29.2504,97.1629 C33.6204,88.5439 38.5864,79.9639 41.5684,70.7339 C41.9004,69.7049 43.5694,70.0319 43.2334,71.0699 C40.2024,80.4519 35.2124,89.1539 30.7714,97.9099 C30.2754,98.8849 28.7514,98.1409 29.2504,97.1629" id="Fill-147"></path>
                <path d="M47.1805,69.3641 C36.1565,69.2711 25.1425,69.6861 14.5525,73.0361 C13.5105,73.3631 12.9605,71.7601 14.0045,71.4301 C24.7385,68.0351 35.8965,67.5781 47.0795,67.6711 C48.1625,67.6781 48.2765,69.3711 47.1805,69.3641" id="Fill-149"></path>
                <path d="M105.5428,109.4857 C107.4708,107.3857 105.4708,103.3547 101.8858,106.7327 C101.6168,104.8097 101.0558,103.7737 99.4238,104.0697 C98.4468,104.8577 98.2878,105.9247 98.2838,106.8437 C95.4578,104.3637 93.6048,106.5387 95.4308,109.2917 C93.0458,110.0147 92.5358,112.7477 94.9138,113.8507 C93.7138,117.4177 96.8058,118.8687 99.0158,116.8597 C99.9298,119.5117 103.7458,119.5727 103.1178,115.9987 C105.4028,117.3817 107.4518,114.7117 104.8018,112.5977 C108.0968,113.7037 109.0218,110.0427 105.5428,109.4857" id="Fill-151"></path>
                <path d="M89.0477,98.2762 C89.0327,100.8822 92.8717,102.3832 93.2147,97.8932 C94.5857,99.0262 95.6057,99.3802 96.5207,98.1782 C96.6957,97.0422 96.1437,96.2192 95.5867,95.5982 C99.0267,95.5402 98.9417,92.9242 96.0087,92.1852 C97.1747,90.2292 95.8417,88.0652 93.5557,88.7822 C92.1707,85.6322 89.1847,86.5552 88.9247,89.2672 C86.6707,88.0392 84.0587,90.3452 86.6777,92.3772 C84.2857,92.8452 84.5457,95.9162 87.6377,95.7152 C84.7277,96.9892 86.3507,100.0372 89.0477,98.2762" id="Fill-153"></path>
                <path d="M57.4252,112.1204 C54.7062,112.8884 52.0352,109.3084 56.6252,107.6534 C55.0422,106.5574 54.3822,105.5884 55.3762,104.2804 C56.5112,103.7674 57.5222,104.1074 58.3412,104.5184 C57.4102,100.9074 60.1642,100.2434 61.7832,103.0864 C63.4932,101.3054 66.1322,102.0734 66.0492,104.6684 C69.7432,105.2034 69.6372,108.5974 66.8712,109.6424 C68.8072,111.6414 67.1542,115.0494 64.2702,112.8904 C64.4712,115.5324 61.1882,116.1454 60.5112,112.8604 C60.0162,116.2654 56.3672,115.4474 57.4252,112.1204" id="Fill-155"></path>
                <path d="M60.2211,77.8353 C53.6581,80.5983 46.7841,86.5063 41.9761,91.6173 C41.2331,92.4153 39.9501,91.3073 40.6971,90.5093 C45.8081,85.0683 52.7561,79.1433 59.6771,76.2313 C60.6861,75.8063 61.2261,77.4123 60.2211,77.8353" id="Fill-157"></path>
                <path d="M4.4369,67.8006 C0.8789,67.5546 -1.5141,72.6646 4.5889,73.5346 C2.9159,75.3036 2.3419,76.6676 3.9019,78.0296 C5.4449,78.3726 6.6079,77.6936 7.5139,76.9806 C7.2919,81.6886 10.8659,81.8056 12.1419,77.8696 C14.7119,79.6406 17.7909,78.0106 17.0139,74.8206 C21.4479,73.2076 20.4559,69.0386 16.7689,68.4476 C18.6469,65.4786 15.7259,61.6866 12.7179,65.0966 C12.2819,61.7796 8.0689,61.8566 8.0689,66.1036 C6.5849,62.0106 2.2719,63.9586 4.4369,67.8006" id="Fill-159"></path>
                <path d="M52.5927,104.3397 C54.5227,102.2407 52.5247,98.2027 48.9467,101.5817 C48.6727,99.6557 48.1017,98.6237 46.4757,98.9217 C45.4967,99.7127 45.3437,100.7797 45.3397,101.6927 C42.5097,99.2147 40.6587,101.3917 42.4787,104.1437 C40.0997,104.8687 39.5917,107.5977 41.9687,108.7027 C40.7657,112.2677 43.8667,113.7207 46.0677,111.7097 C46.9817,114.3607 50.8007,114.4247 50.1737,110.8527 C52.4587,112.2337 54.4997,109.5617 51.8537,107.4477 C55.1487,108.5557 56.0727,104.8987 52.5927,104.3397" id="Fill-161"></path>
                <path d="M27.6332,104.7469 C27.6182,107.3499 31.4572,108.8509 31.8002,104.3639 C33.1672,105.4949 34.1872,105.8459 35.1062,104.6479 C35.2732,103.5089 34.7332,102.6879 34.1682,102.0669 C37.6122,102.0039 37.5202,99.3919 34.5942,98.6519 C35.7602,96.6969 34.4272,94.5349 32.1332,95.2489 C30.7562,92.0999 27.7662,93.0209 27.5142,95.7369 C25.2632,94.5079 22.6362,96.8139 25.2602,98.8429 C22.8632,99.3159 23.1232,102.3849 26.2152,102.1829 C23.3052,103.4569 24.9322,106.5029 27.6332,104.7469" id="Fill-163"></path>
                <path d="M42.8412,95.3924 C44.2172,97.0784 47.4842,96.0034 45.3282,92.9324 C46.8072,92.9374 47.6522,92.6214 47.6072,91.3584 C47.1172,90.5374 46.3272,90.2994 45.6332,90.1974 C47.8192,88.3294 46.3772,86.6894 44.0982,87.7684 C43.8042,85.8894 41.8022,85.2064 40.7042,86.8834 C38.1452,85.5834 36.7042,87.7684 37.9802,89.6524 C35.8822,90.0564 35.4172,92.9354 38.1832,92.8474 C36.8922,94.4264 38.6852,96.2644 40.5712,94.4934 C39.3792,96.8604 42.0372,97.9594 42.8412,95.3924" id="Fill-165"></path>
                <path d="M60.8773,97.4427 C58.7523,99.3037 54.8013,97.2237 58.2323,93.7567 C56.3363,93.4437 55.3223,92.8587 55.6503,91.2507 C56.4583,90.3017 57.5223,90.1717 58.4243,90.1877 C56.0353,87.3267 58.2363,85.5407 60.9223,87.4147 C61.6923,85.0677 64.4113,84.6267 65.4553,87.0087 C69.0193,85.9057 70.3803,89.0087 68.3423,91.1437 C70.9473,92.1107 70.9173,95.9007 67.3933,95.1927 C68.7083,97.4867 66.0113,99.4557 63.9773,96.7857 C64.9983,100.0727 61.3493,100.9017 60.8773,97.4427" id="Fill-167"></path>
                <path d="M74.8622,123.1434 C77.0572,121.7334 76.2192,117.7004 72.2722,119.8574 C72.4792,118.0914 72.2162,117.0434 70.7022,116.9274 C69.6602,117.3984 69.2712,118.3084 69.0572,119.1164 C67.1312,116.2634 64.9872,117.7574 65.9582,120.6184 C63.6792,120.7084 62.5982,123.0034 64.4412,124.5284 C62.5532,127.4064 64.9572,129.4114 67.3662,128.1474 C67.5652,130.7054 70.9322,131.6464 71.2052,128.3444 C72.8982,130.0934 75.3342,128.2074 73.4802,125.7224 C76.1382,127.4664 77.8022,124.4434 74.8622,123.1434" id="Fill-169"></path>
                <path d="M18.2245,93.5716 C17.9535,96.3846 13.6505,97.5806 13.7715,92.7016 C12.1755,93.7736 11.0375,94.0436 10.1755,92.6456 C10.1115,91.3986 10.7975,90.5806 11.4685,89.9696 C7.7665,89.5246 8.1465,86.7156 11.3825,86.2376 C10.3405,83.9996 12.0085,81.8176 14.4085,82.8366 C16.2405,79.5846 19.3685,80.9146 19.3415,83.8686 C21.9045,82.7906 24.4785,85.5666 21.4285,87.4676 C23.9575,88.2386 23.3435,91.5186 20.0255,90.9666 C23.0265,92.6566 20.9395,95.7646 18.2245,93.5716" id="Fill-171"></path>
                <path d="M31.038,58.2767 C30.124,56.2957 26.691,56.5107 28.005,60.0267 C26.574,59.6497 25.679,59.7407 25.408,60.9737 C25.667,61.9007 26.371,62.3227 27.023,62.5997 C24.434,63.8567 25.415,65.8007 27.891,65.3367 C27.702,67.2277 29.465,68.3947 30.947,67.0517 C33.102,68.9547 35.044,67.2067 34.284,65.0597 C36.424,65.1967 37.598,62.5307 34.9,61.9117 C36.545,60.7187 35.273,58.4827 33.002,59.7207 C34.756,57.7317 32.462,55.9927 31.038,58.2767" id="Fill-173"></path>
                <path d="M80.703,108.6068 C82.078,110.2928 85.346,109.2158 83.184,106.1428 C84.667,106.1498 85.513,105.8358 85.467,104.5718 C84.976,103.7468 84.187,103.5108 83.497,103.4098 C85.675,101.5438 84.241,99.9048 81.962,100.9808 C81.666,99.1018 79.662,98.4188 78.568,100.0938 C76.005,98.7968 74.566,100.9838 75.846,102.8678 C73.74,103.2678 73.272,106.1468 76.043,106.0588 C74.748,107.6378 76.545,109.4728 78.432,107.7068 C77.239,110.0748 79.899,111.1728 80.703,108.6068" id="Fill-175"></path>
                <path d="M66.0756,60.5848 C60.6246,59.2268 55.5526,56.8728 50.9016,53.7308 C49.9936,53.1228 51.1176,51.8468 52.0096,52.4528 C56.4086,55.4238 61.2586,57.6388 66.4146,58.9238 C67.4706,59.1828 67.1386,60.8468 66.0756,60.5848" id="Fill-177"></path>
                <path d="M52.6722,57.7371 C54.0502,59.4241 57.3182,58.3501 55.1562,55.2751 C56.6402,55.2841 57.4782,54.9651 57.4402,53.7061 C56.9452,52.8761 56.1522,52.6451 55.4682,52.5401 C57.6512,50.6751 56.2022,49.0351 53.9252,50.1121 C53.6392,48.2341 51.6282,47.5491 50.5392,49.2261 C47.9732,47.9311 46.5392,50.1131 47.8192,51.9991 C45.7092,52.3991 45.2452,55.2801 48.0182,55.1931 C46.7232,56.7691 48.5172,58.6091 50.4052,56.8391 C49.2072,59.2051 51.8722,60.3041 52.6722,57.7371" id="Fill-179"></path>
            </g>
            <g id="Group-181-Copy" transform="translate(1899.000000, 512.042903)" fill="#FBF7EF">
                <path d="M63.7271892,69.5029314 C63.4893696,60.1957264 63.8596457,50.8486287 63.0024415,41.5594397 C62.9369659,40.860032 64.2096017,40.7918285 64.272067,41.4944533 C65.1352919,50.7829989 64.7657684,60.1313835 64.999825,69.4392319 C65.0171347,70.1386396 63.7444989,70.2107037 63.7271892,69.5029314" id="Fill-133"></path>
                <path d="M58.0532269,57.2130105 C60.1195888,52.6359071 61.5123206,47.8282045 62.966764,43.0379421 C64.3568974,38.4601928 66.054939,34.0096929 67.7796139,29.5475661 C71.4537236,20.0426159 75.1694074,10.5060149 76.912271,0.426181633 C77.0298477,-0.27078345 78.1114235,-0.0524570384 77.9905988,0.644508045 C76.2912581,10.4963259 72.7054933,19.8468973 69.1132325,29.1406263 C67.1930295,34.1078751 65.3176486,39.0680187 63.7683643,44.1644547 C62.3808292,48.7473716 61.0153804,53.3218912 59.041261,57.6948788 C58.7502424,58.340815 57.7615587,57.8563629 58.0532269,57.2130105" id="Fill-135"></path>
                <path d="M76.9855195,0.638828869 C75.6884943,6.57909882 72.3285996,12.3419606 68.9017493,17.2764877 C64.8410529,23.1283761 59.7945153,28.8854318 53.7264269,32.6451943 C50.7931349,34.4644343 47.7418735,35.9869188 45.1726923,38.3512855 C42.5002083,40.8124204 40.6771035,44.2960713 39.0873868,47.5281253 C36.0278357,53.7535385 34.0880369,60.4718238 31.0316742,66.7030431 C30.7211279,67.3359064 29.7512285,66.8540013 30.0598618,66.220493 C35.6375803,54.8521788 37.8643316,40.960153 49.3685753,33.9431769 C52.3401276,32.1310333 55.3779978,30.5646806 57.9235852,28.1358017 C60.7357194,25.4553259 63.3737692,22.6871136 65.7988365,19.638274 C70.1165148,14.2070041 74.4201643,7.31195576 75.926346,0.421423246 C76.076199,-0.266920373 77.1353724,-0.0533854731 76.9855195,0.638828869" id="Fill-137"></path>
                <path d="M45.6510553,37.0528268 C33.5261662,41.4438469 21.8752471,47.2523057 10.8478394,53.9170545 C10.2541096,54.2736309 9.6515086,53.38694 10.2420702,53.0290969 C21.3486841,46.3181135 33.095918,40.4577199 45.3063498,36.0350323 C45.9577418,35.8000592 46.3024473,36.8153203 45.6510553,37.0528268" id="Fill-139"></path>
                <path d="M43.0431791,79.5153102 C42.560955,72.2028205 46.2419106,65.3843156 47.8993521,58.4110455 C48.0579183,57.7395548 49.1443908,57.9480138 48.9838669,58.6232947 C47.3531794,65.4910718 43.6715713,72.2520927 44.1466175,79.4489823 C44.1909899,80.1375288 43.0875516,80.2044884 43.0431791,79.5153102" id="Fill-141"></path>
                <path d="M38.0787741,69.2367287 C40.1962099,65.6821741 43.5105134,63.0634711 46.5891876,60.3781525 C50.924121,56.5978811 54.0144153,52.2568748 56.714146,47.175983 C61.0316492,39.0650534 63.4963962,30.2291135 65.9107894,21.4132231 C66.0921917,20.7373661 67.1664031,20.9475609 66.9778996,21.6318256 C64.6906816,30.010511 62.3008196,38.2928302 58.4752328,46.1275964 C56.3061522,50.5740234 53.6851798,55.0527881 50.1733351,58.5717713 C46.4897714,62.2666713 41.7797678,65.1589509 39.0593793,69.7211467 C38.7004481,70.3265075 37.7166151,69.8453233 38.0787741,69.2367287" id="Fill-143"></path>
                <path d="M68.9264988,16.7522075 C66.9651924,20.1356484 65.4919649,23.7574492 63.5357962,27.1383475 C61.3638453,30.9031643 59.02492,34.5789934 56.560764,38.1651991 C51.6953884,45.2524366 45.9238559,51.6239585 39.9718626,57.8264036 C39.4895636,58.3310912 38.6623984,57.6242743 39.1472662,57.1202224 C44.7492556,51.2851694 50.1547289,45.3051936 54.8563412,38.7220081 C57.442517,35.0976648 59.7885066,31.3125079 62.0677064,27.4955697 C64.2345197,23.8629632 65.8291247,19.940511 67.9477722,16.27803 C68.2958495,15.6773628 69.2739339,16.1496334 68.9264988,16.7522075" id="Fill-145"></path>
                <path d="M18.0630903,62.2331006 C20.8472265,56.7432457 24.0110756,51.2782317 25.9109141,45.3992016 C26.122432,44.7437821 27.1857555,44.9520641 26.9716892,45.6132161 C25.0406326,51.5890623 21.8614931,57.1317839 19.0321226,62.7089007 C18.7161199,63.329925 17.7451763,62.8560357 18.0630903,62.2331006" id="Fill-147"></path>
                <path d="M29.5099394,43.943084 C22.4811126,43.8916022 15.4586617,44.121333 8.70655023,45.9757869 C8.04217817,46.1568037 7.69150194,45.2694337 8.35714919,45.0867562 C15.201074,43.2073917 22.3153383,42.954411 29.4455425,43.0058928 C30.1360559,43.0097678 30.2087415,43.946959 29.5099394,43.943084" id="Fill-149"></path>
                <path d="M66.6187405,70.3342851 C67.8250027,69.0532664 66.5736934,66.5943205 64.3307213,68.6549306 C64.1624202,67.4818835 63.8114279,66.8499143 62.7903595,67.0304769 C62.1790949,67.5111639 62.0796158,68.1620434 62.0771131,68.7226416 C60.309013,67.2098195 59.1496749,68.5365889 60.2921203,70.2159433 C58.7999339,70.6569798 58.48085,72.3241341 59.9686569,72.9969739 C59.2178712,75.1728756 61.1523955,76.0579985 62.5350924,74.8324906 C63.1069407,76.4502342 65.494439,76.4874447 65.1015279,74.307273 C66.5311488,75.1509153 67.8131153,73.5221915 66.1551304,72.2326327 C68.2166626,72.9073026 68.7953931,70.67406 66.6187405,70.3342851" id="Fill-151"></path>
                <path d="M56.4231326,63.3982234 C56.4139817,65.077503 58.7559916,66.0447319 58.9652413,63.1514222 C59.8016298,63.8815157 60.4238882,64.1096297 60.9820906,63.3350733 C61.0888506,62.6030466 60.752099,62.0727138 60.4122971,61.6725478 C62.5108942,61.6351732 62.4590393,59.9494498 60.6697413,59.4732458 C61.3810681,58.2128196 60.5678617,56.8183603 59.1732708,57.2803877 C58.3283415,55.2505601 56.5067104,55.8453318 56.3480955,57.5929167 C54.9730264,56.8016061 53.3795568,58.2875688 54.9772968,59.5969686 C53.5180398,59.898543 53.6766547,61.8774638 55.5629518,61.7479414 C53.7876851,62.5688939 54.7778081,64.5329937 56.4231326,63.3982234" id="Fill-153"></path>
                <path d="M36.0044434,72.0524291 C34.3453961,72.553853 32.7156369,70.2164862 35.5163089,69.1359437 C34.5504126,68.4203699 34.1477016,67.7877139 34.7542088,66.9337263 C35.4467497,66.5987907 36.0636297,66.8207753 36.5633575,67.0891155 C35.9952909,64.7315088 37.6756941,64.2979861 38.6635564,66.1541687 C39.706944,64.9913614 41.3171779,65.4927853 41.2665339,67.1870498 C43.5204953,67.5363491 43.4558174,69.7522773 41.7680922,70.4345534 C42.9493778,71.739692 41.9407698,73.9647608 40.1810447,72.5551588 C40.3036885,74.2801095 38.3005063,74.6803346 37.8874225,72.535572 C37.5853892,74.7586821 35.3588855,74.2246133 36.0044434,72.0524291" id="Fill-155"></path>
                <path d="M37.6567754,50.06461 C33.4508536,51.8208098 29.0456263,55.5760138 25.9644025,58.8246339 C25.4882483,59.3318534 24.6660332,58.6275938 25.1447508,58.1203743 C28.4201533,54.6620018 32.8728037,50.8959923 37.308151,49.0450861 C37.9547723,48.7749504 38.3008332,49.7957455 37.6567754,50.06461" id="Fill-157"></path>
                <path d="M2.25680029,43.0993848 C0.0227711702,42.9484527 -1.47976725,46.0836687 2.35223942,46.617453 C1.3017811,47.7028145 0.941372803,48.5396902 1.92087967,49.3753387 C2.88971242,49.5857847 3.61994735,49.1691876 4.1888148,48.7317298 C4.04942344,51.6203006 6.29349879,51.6920854 7.09468517,49.2771715 C8.70835995,50.3637601 10.6416302,49.3636814 10.1537605,47.4064722 C12.9378204,46.4168238 12.3149545,43.8589538 9.99992766,43.4963486 C11.1791032,41.6747329 9.34503941,39.3481695 7.45634925,41.4403586 C7.18258963,39.4052292 4.5372932,39.4524721 4.5372932,42.0581986 C3.6055059,39.5469581 0.897420571,40.7421442 2.25680029,43.0993848" id="Fill-159"></path>
                <path d="M32.617659,66.3360832 C33.8254429,65.0556274 32.575105,62.592321 30.3360113,64.6536168 C30.1645435,63.4786965 29.8072147,62.8491441 28.7896724,63.0309335 C28.1770193,63.5134683 28.0812727,64.1643717 28.0787696,64.7213303 C26.3077704,63.2096727 25.1494243,64.5377108 26.2883707,66.216517 C24.799605,66.6587897 24.4817012,68.3235652 25.9692154,68.9976498 C25.2163843,71.1724115 27.1569739,72.058787 28.5343481,70.832014 C29.1063246,72.449207 31.4962348,72.488249 31.1038615,70.3092172 C32.5338025,71.1516704 33.8110496,69.5216667 32.1551967,68.2320605 C34.2171904,68.9079752 34.7954248,66.6770907 32.617659,66.3360832" id="Fill-161"></path>
                <path d="M16.4267518,67.3998273 C16.4176037,69.0770033 18.7589015,70.044134 18.9680875,67.1530511 C19.8017822,67.8817818 20.4238514,68.1079397 20.9843236,67.3360392 C21.0861722,66.6021539 20.7568414,66.0731637 20.4122638,65.6730383 C22.5126622,65.6324459 22.456554,63.9494709 20.6720692,63.472671 C21.3831797,62.2130171 20.5702206,60.8199881 19.1711748,61.2800356 C18.3313814,59.2510585 16.5078648,59.8444811 16.3541771,61.5944658 C14.9813557,60.8025913 13.3792226,62.288403 14.9795261,63.5957369 C13.5176634,63.9005023 13.6762301,65.8779334 15.5619536,65.7477799 C13.7872268,66.568649 14.7794881,68.5312607 16.4267518,67.3998273" id="Fill-163"></path>
                <path d="M26.060217,61.0564706 C26.9086622,62.1354989 28.9231031,61.4475064 27.5937078,59.4820878 C28.5056631,59.4852877 29.0266923,59.2830499 28.9989452,58.4747387 C28.6968099,57.9493045 28.2096938,57.7969861 27.7817716,57.7317068 C29.129665,56.5361998 28.240524,55.4866113 26.8352865,56.1771638 C26.6540053,54.9746168 25.4195668,54.5375016 24.7425371,55.6107699 C23.1646509,54.778779 22.2761265,56.1771638 23.0629115,57.3829106 C21.7692791,57.6414678 21.4825589,59.4840078 23.1880818,59.4276884 C22.3920478,60.4382374 23.4976164,61.6145446 24.660529,60.4811169 C23.9255386,61.9959804 25.5644684,62.6993328 26.060217,61.0564706" id="Fill-165"></path>
                <path d="M38.2616016,62.5905593 C36.9509145,63.765915 34.5139616,62.452245 36.6301816,60.2625846 C35.4607403,60.0649025 34.8353112,59.6954328 35.0376196,58.6798649 C35.5359892,58.080503 36.1922579,57.9983986 36.7486061,58.0085038 C35.2750853,56.201576 36.6326488,55.0735883 38.2893573,56.2571544 C38.7642887,54.7748546 40.4413514,54.4963314 41.0852843,56.0007361 C43.2835379,55.3041121 44.1229945,57.2638803 42.8659684,58.6122867 C44.4727167,59.2230169 44.4542129,61.6166752 42.280631,61.1695221 C43.091715,62.6183485 41.4282217,63.861914 40.1736629,62.1756165 C40.8034095,64.2515939 38.5527284,64.7751672 38.2616016,62.5905593" id="Fill-167"></path>
                <path d="M47.0361427,79.1328482 C48.3962058,78.1953778 47.8769653,75.5139465 45.4313303,76.9480768 C45.5595914,75.7739117 45.3966317,75.0771252 44.458529,75 C43.8128863,75.313155 43.5718546,75.9181891 43.4392562,76.4554062 C42.2458706,74.5585246 40.9174081,75.5518443 41.5190579,77.4540449 C40.1069469,77.5138834 39.4371391,79.0397661 40.5790963,80.0536968 C39.4092562,81.9672002 40.8988196,83.3002698 42.391481,82.4598708 C42.5147851,84.160615 44.6010413,84.7862602 44.7701972,82.5908507 C45.8192116,83.753713 47.3286028,82.4997632 46.1798297,80.8475547 C47.8267762,82.0070926 48.8578217,79.9971826 47.0361427,79.1328482" id="Fill-169"></path>
                <path d="M10.9749534,60.3746923 C10.8027319,62.2402093 8.06815916,63.0333691 8.14505512,59.7977283 C7.1307911,60.5086541 6.4075878,60.6877119 5.85978355,59.7605904 C5.81911131,58.9336087 6.2550669,58.3911298 6.68148993,57.9859287 C4.32885496,57.6908149 4.5703464,55.8279506 6.6268366,55.510952 C5.96464167,54.0267618 7.02466197,52.5797095 8.54987102,53.2554869 C9.71411393,51.0988352 11.7019697,51.9808607 11.6848111,53.9398856 C13.3136073,53.2249808 14.949394,55.0659602 13.0111075,56.3266598 C14.6182965,56.8379692 14.2280972,59.0131899 12.1194957,58.6471162 C14.0266425,59.7678854 12.7003462,61.8290396 10.9749534,60.3746923" id="Fill-171"></path>
                <path d="M18.5638674,37.80895 C17.9852929,36.5300343 15.8121566,36.6688364 16.6439367,38.9387341 C15.738094,38.6953463 15.1715467,38.7540951 15,39.5501087 C15.1639506,40.1485715 15.6095922,40.4210109 16.0223172,40.5998396 C14.3834446,41.4113474 15.0044311,42.6663762 16.5717731,42.366822 C16.4521335,43.5876344 17.5681368,44.3410391 18.5062632,43.4740104 C19.8704078,44.70257 21.0997205,43.574077 20.6186301,42.1879933 C21.9732795,42.2764393 22.7164376,40.5552938 21.0085665,40.155673 C22.0498741,39.385483 21.2446807,37.9419417 19.8071064,38.7411833 C20.9174125,37.4571029 19.465279,36.3344203 18.5638674,37.80895" id="Fill-173"></path>
                <path d="M51.0619322,70.0569565 C51.9096088,71.1357924 53.9243049,70.4466427 52.591449,68.4802947 C53.5057068,68.4847739 54.0272591,68.2838519 53.9989005,67.4750449 C53.6962028,66.9471448 53.2097906,66.7961333 52.7844111,66.7315056 C54.1271308,65.5374914 53.2430812,64.4887298 51.8380957,65.1772396 C51.6556141,63.974907 50.4201639,63.5378697 49.7457216,64.609667 C48.1656524,63.779744 47.2785203,65.1791592 48.0676302,66.3846912 C46.7692979,66.6406427 46.4807796,68.4828542 48.1890791,68.4265449 C47.3907219,69.4369138 48.4985581,70.6110916 49.6618787,69.4810654 C48.9264036,70.9962988 50.5662726,71.6988858 51.0619322,70.0569565" id="Fill-175"></path>
                <path d="M41.3439286,38.9832412 C37.7085368,38.1670501 34.3259084,36.7522387 31.2240542,34.8638201 C30.618489,34.4983972 31.3681093,33.7314901 31.9630037,34.0957109 C34.8967936,35.8813543 38.1313653,37.2126233 41.5700152,37.9849397 C42.2742848,38.140605 42.0528667,39.1407096 41.3439286,38.9832412" id="Fill-177"></path>
                <path d="M33.0599684,37.056553 C33.9094464,38.136079 35.9240286,37.448817 34.5912481,35.4810978 C35.5060706,35.486857 36.0226618,35.2827261 35.9992364,34.477081 C35.6940901,33.9459568 35.2052395,33.7981379 34.7835828,33.7309475 C36.1293089,32.5375178 35.2360624,31.4880675 33.8323893,32.1772492 C33.6560825,30.9755006 32.416387,30.5371632 31.7450651,31.6102901 C30.1632359,30.7816083 29.2792362,32.1778891 30.0683015,33.3847569 C28.7675767,33.6407204 28.4815406,35.4842973 30.1909764,35.4286253 C29.3926643,36.4371214 30.4985886,37.6145534 31.6624598,36.481915 C30.9239441,37.995939 32.5668026,38.6991986 33.0599684,37.056553" id="Fill-179"></path>
            </g>
            <g id="Group-181-Copy-2" transform="translate(1941.759796, 519.000000) rotate(41.000000) translate(-1941.759796, -519.000000) translate(1918.759796, 494.000000)" fill="#FBF7EF">
                <path d="M37.3635946,40.708615 C37.2446848,35.2526672 37.4298228,29.7733341 37.0012208,24.3279474 C36.968483,23.9179498 37.6048009,23.8779684 37.6360335,24.289852 C38.0676459,29.7348614 37.8828842,35.2149489 37.9999125,40.6712739 C38.0085673,41.0812715 37.3722494,41.123516 37.3635946,40.708615" id="Fill-133"></path>
                <path d="M34.0319361,34.5250925 C35.2717533,31.7630474 36.1073924,28.8618475 36.9800584,25.971172 C37.8141385,23.208737 38.8329634,20.5230905 39.8677683,17.8304278 C42.0722341,12.094682 44.3016444,6.33983659 45.3473626,0.257178572 C45.4179086,-0.163403806 46.0668541,-0.0316551094 45.9943593,0.388927268 C44.9747548,6.33398976 42.823296,11.976576 40.6679395,17.5848607 C39.5158177,20.5823385 38.3905891,23.5755285 37.4610186,26.6509641 C36.6284975,29.4165173 35.8092282,32.1770033 34.6247566,34.8158752 C34.4501454,35.2056642 33.8569352,34.9133224 34.0319361,34.5250925" id="Fill-135"></path>
                <path d="M45.9913733,0.38139037 C45.2186774,3.92782019 43.217038,7.3683347 41.1755102,10.314321 C38.7563719,13.8079857 35.749924,17.2450339 32.1348926,19.4896683 C30.3873995,20.5757817 28.5696268,21.4847276 27.0390508,22.8962899 C25.4469326,24.3656241 24.3608276,26.4454157 23.4137623,28.3750002 C21.591051,32.0916648 20.4354263,36.1025814 18.6146144,39.8227123 C18.4296081,40.2005411 17.8517957,39.9128366 18.0356624,39.5346227 C21.3585585,32.7475694 22.6851337,24.4538227 29.5387257,20.2645832 C31.3090122,19.1827064 33.1188072,18.2475705 34.6353273,16.7974936 C36.3106414,15.1972095 37.8822455,13.5445455 39.3269664,11.7243427 C41.8992003,8.4817935 44.4630766,4.36534672 45.3603763,0.251595968 C45.4496504,-0.159355446 46.0806474,-0.0318719243 45.9913733,0.38139037" id="Fill-137"></path>
                <path d="M26.7964489,21.6433942 C19.7235969,24.3267953 12.9272275,27.876409 6.49457301,31.9493111 C6.14823058,32.1672189 5.79671335,31.6253522 6.14120763,31.4066703 C12.6200657,27.3055138 19.4726188,23.7241622 26.5953707,21.0214086 C26.9753494,20.877814 27.1764276,21.4982513 26.7964489,21.6433942" id="Fill-139"></path>
                <path d="M25.0287861,47.7135924 C24.7073033,43.3925758 27.1612737,39.3634592 28.2662347,35.2428905 C28.3719456,34.8461006 29.0962605,34.9692809 28.9892446,35.3683105 C27.9021196,39.4265424 25.4477142,43.4216911 25.7644117,47.6743987 C25.7939933,48.081267 25.0583677,48.120834 25.0287861,47.7135924" id="Fill-141"></path>
                <path d="M22.0461779,41.548268 C23.2874334,39.444552 25.230301,37.8947074 27.035041,36.3054372 C29.5762089,34.0681337 31.3877607,31.4989667 32.9703614,28.4919083 C35.5013116,23.6915622 36.9461633,18.4621284 38.3614973,13.2445606 C38.4678365,12.8445636 39.0975466,12.9689646 38.9870446,13.3739376 C37.6462616,18.3327514 36.245308,23.2345322 34.0027227,27.8714346 C32.7311927,30.5029935 31.1947606,33.1536909 29.136093,35.2363545 C26.9767626,37.423132 24.215726,39.1348893 22.6210154,41.8349644 C22.4106075,42.1932391 21.8338778,41.9084566 22.0461779,41.548268" id="Fill-143"></path>
                <path d="M40.9558993,10.4477426 C39.7791155,12.4616954 38.895179,14.6175293 37.7214777,16.6299687 C36.4183072,18.8709311 35.014952,21.0589246 33.5364584,23.1935709 C30.617233,27.4121647 27.1543135,31.2047372 23.5831176,34.8966688 C23.2937382,35.1970781 22.797439,34.7763538 23.0883597,34.4763228 C26.4495533,31.003077 29.6928374,27.4435676 32.5138047,23.5250048 C34.0655102,21.3676576 35.4731039,19.114588 36.8406238,16.842601 C38.1407118,14.6803352 39.0974748,12.3455422 40.3686633,10.1654941 C40.5775097,9.80795406 41.1643603,10.0890675 40.9558993,10.4477426" id="Fill-145"></path>
                <path d="M11.0350502,37.5313392 C12.5817925,34.1764279 14.3394865,30.8366972 15.3949523,27.2439565 C15.5124622,26.8434224 16.1031975,26.9707058 15.9842718,27.3747432 C14.9114626,31.0266492 13.1452739,34.413868 11.5734014,37.822106 C11.3978444,38.2016209 10.8584313,37.9120218 11.0350502,37.5313392" id="Fill-147"></path>
                <path d="M17.7104187,26.6287227 C13.5570211,26.5944014 9.40739098,26.7475553 5.41750696,27.9838579 C5.02492347,28.1045358 4.81770569,27.5129558 5.2110427,27.3911708 C9.2551801,26.1382611 13.4590636,25.9696073 17.672366,26.0039286 C18.0803967,26.0065119 18.1233472,26.631306 17.7104187,26.6287227" id="Fill-149"></path>
                <path d="M39.2326336,41.8523806 C39.9027793,41.1407035 39.2076074,39.7746225 37.9615118,40.9194059 C37.8680112,40.267713 37.6730155,39.916619 37.1057553,40.0169316 C36.7661638,40.28398 36.7108976,40.6455797 36.7095073,40.9570231 C35.7272294,40.1165664 35.0831527,40.8536605 35.7178446,41.7866352 C34.8888522,42.0316554 34.7115833,42.9578523 35.5381427,43.3316522 C35.1210396,44.5404864 36.1957753,45.0322214 36.9639402,44.3513837 C37.2816337,45.2501301 38.6080217,45.2708026 38.3897377,44.0595961 C39.1839716,44.5282863 39.8961752,43.6234397 38.9750724,42.9070182 C40.1203681,43.2818348 40.4418851,42.0411445 39.2326336,41.8523806" id="Fill-151"></path>
                <path d="M33.5144579,37.1101241 C33.5087386,38.0430572 34.9724948,38.5804066 35.1032758,36.9730123 C35.6260186,37.3786198 36.0149301,37.5053498 36.3638066,37.0750407 C36.4305317,36.6683592 36.2200619,36.3737299 36.0076857,36.1514155 C37.3193089,36.1306518 37.2868996,35.1941388 36.1685883,34.929581 C36.6131676,34.2293442 36.1049136,33.4546446 35.2332942,33.7113265 C34.7052134,32.5836445 33.566694,32.9140732 33.4675597,33.8849537 C32.6081415,33.4453367 31.612223,34.2708715 32.6108105,34.9983159 C31.6987749,35.1658572 31.7979092,36.2652576 32.9768449,36.1933008 C31.8673032,36.6493855 32.4861301,37.7405521 33.5144579,37.1101241" id="Fill-153"></path>
                <path d="M21.1135797,42.9180162 C20.1918867,43.196585 19.2864649,41.8980479 20.8423938,41.2977465 C20.3057848,40.9002055 20.0820564,40.54873 20.4190049,40.0742924 C20.8037498,39.8882171 21.146461,40.0115418 21.4240875,40.1606197 C21.1084949,38.8508382 22.0420523,38.6099923 22.5908647,39.6412048 C23.1705245,38.9952008 24.0650988,39.2737696 24.0369633,40.2150277 C25.289164,40.4090828 25.2532319,41.6401541 24.3156068,42.0191963 C24.9718766,42.7442733 24.4115388,43.9804227 23.4339137,43.1973105 C23.5020492,44.1556164 22.3891702,44.3779636 22.1596792,43.1864289 C21.9918829,44.42149 20.7549364,44.1247852 21.1135797,42.9180162" id="Fill-155"></path>
                <path d="M22.7887848,29.638766 C20.2005253,30.6924859 17.4896162,32.9456083 15.5934785,34.8947804 C15.3004605,35.1991121 14.794482,34.7765563 15.0890774,34.4722246 C17.1047097,32.3972011 19.8448023,30.1375954 22.5742468,29.0270517 C22.9721675,28.8649702 23.1851281,29.4774473 22.7887848,29.638766" id="Fill-157"></path>
                <path d="M1.31646684,25.9723358 C0.0132831826,25.8762881 -0.863197561,27.8714255 1.37213966,28.2111065 C0.759372307,28.9017911 0.549134135,29.4343483 1.12051314,29.9661247 C1.68566558,30.1000448 2.11163595,29.8349375 2.4434753,29.5565553 C2.36216367,31.3947368 3.67120763,31.440418 4.13856635,29.9036546 C5.07987664,30.59512 6.20761763,29.9587063 5.92302694,28.7132096 C7.54706188,28.0834333 7.18372344,26.4556979 5.83329113,26.2249491 C6.52114355,25.0657391 5.45127299,23.5851987 4.34953706,24.9165918 C4.18984395,23.6215095 2.64675437,23.6515732 2.64675437,25.3097628 C2.10321178,23.7117006 0.523495333,24.4722736 1.31646684,25.9723358" id="Fill-159"></path>
                <path d="M19.2320328,39.8533795 C19.9030238,39.1420152 19.2083916,37.7735116 17.9644507,38.918676 C17.8691908,38.2659425 17.6706748,37.9161912 17.1053736,38.0171853 C16.7650107,38.2852601 16.7118182,38.6468732 16.7104275,38.9562946 C15.7265391,38.1164848 15.0830135,38.8542838 15.7157615,39.7869539 C14.8886694,40.032661 14.7120562,40.9575362 15.538453,41.3320277 C15.1202135,42.5402286 16.1983188,43.0326594 16.9635267,42.3511189 C17.2812914,43.2495595 18.6090193,43.2712495 18.3910341,42.0606762 C19.1854458,42.5287058 19.8950276,41.6231482 18.9751093,40.9067003 C20.1206613,41.2822085 20.4419027,40.0428282 19.2320328,39.8533795" id="Fill-161"></path>
                <path d="M9.51671988,40.1110152 C9.51100233,41.0427796 10.9743134,41.5800745 11.1050547,39.9739173 C11.6261139,40.3787677 12.0149071,40.5044109 12.3652022,40.0755773 C12.4288576,39.6678633 12.2230259,39.3739798 12.0076649,39.151688 C13.3204139,39.1291366 13.2853463,38.1941505 12.1700433,37.9292617 C12.6144873,37.2294539 12.1063879,36.4555489 11.2319842,36.7111309 C10.7071133,35.5839214 9.56741547,35.9136006 9.47136067,36.8858143 C8.61334731,36.4458841 7.6120141,37.271335 8.6122038,37.9976316 C7.69853965,38.1669457 7.79764382,39.2655186 8.97622102,39.1932111 C7.86701673,39.6492495 8.48718009,40.7395893 9.51671988,40.1110152" id="Fill-163"></path>
                <path d="M15.320124,36.4608404 C15.8049498,37.0774279 16.9560589,36.6842894 16.1964044,35.561193 C16.7175218,35.5630216 17.0152528,35.4474571 16.9993973,34.985565 C16.8267485,34.6853168 16.5483965,34.5982778 16.3038695,34.5609753 C17.0740943,33.8778285 16.5660137,33.2780636 15.7630209,33.672665 C15.6594316,32.9854953 14.9540382,32.7357152 14.5671641,33.3490114 C13.6655148,32.873588 13.1577866,33.672665 13.607378,34.3616632 C12.8681595,34.5094102 12.7043194,35.5622901 13.6789039,35.5301076 C13.2240273,36.1075642 13.8557808,36.7797398 14.5203023,36.1320668 C14.1003078,36.9977031 15.0368391,37.3996187 15.320124,36.4608404" id="Fill-165"></path>
                <path d="M22.8120009,37.2169774 C22.0838414,37.8699528 20.7299787,37.1401361 21.9056565,35.9236581 C21.2559668,35.8138347 20.9085062,35.6085738 21.0208998,35.0443694 C21.2977718,34.7113906 21.6623655,34.665777 21.9714478,34.671391 C21.1528252,33.6675422 21.9070271,33.0408824 22.8274207,33.6984191 C23.0912715,32.8749192 24.022973,32.7201841 24.3807135,33.5559645 C25.6019655,33.1689511 26.0683303,34.2577113 25.3699825,35.0068259 C26.2626204,35.3461205 26.2523405,36.6759306 25.044795,36.4275123 C25.4953972,37.2324158 24.5712343,37.9232855 23.8742571,36.9864536 C24.2241164,38.1397744 22.973738,38.4306485 22.8120009,37.2169774" id="Fill-167"></path>
                <path d="M28.3975892,47.2960268 C29.2476286,46.7752099 28.9231033,45.2855259 27.3945814,46.0822649 C27.4747446,45.429951 27.3728948,45.0428473 26.7865806,45 C26.3830539,45.173975 26.2324091,45.5101051 26.1495351,45.808559 C25.4036691,44.7547359 24.5733801,45.3065802 24.9494112,46.3633583 C24.0668418,46.3966019 23.6482119,47.2443145 24.3619352,47.8076093 C23.6307851,48.8706668 24.5617622,49.611261 25.4946756,49.1443727 C25.5717407,50.0892306 26.8756508,50.4368112 26.9813732,49.2171393 C27.6370073,49.8631739 28.5803767,49.1665351 27.8623936,48.2486415 C28.8917351,48.8928292 29.5361386,47.7762126 28.3975892,47.2960268" id="Fill-169"></path>
                <path d="M6.31941857,36.0248154 C6.22373994,37.1441256 4.70453287,37.6200214 4.74725284,35.678637 C4.18377283,36.1051925 3.78199322,36.2126271 3.47765753,35.6563542 C3.45506184,35.1601652 3.69725939,34.8346779 3.93416107,34.5915572 C2.62714165,34.4144889 2.76130355,33.2967704 3.90379811,33.1065712 C3.53591204,32.2160571 4.1248122,31.3478257 4.97215057,31.7532922 C5.61895219,30.4593011 6.72331652,30.9885164 6.71378396,32.1639314 C7.61867072,31.7349885 8.52744112,32.8395761 7.45061528,33.5959959 C8.34349808,33.9027815 8.12672068,35.2079139 6.9552754,34.9882697 C8.01480141,35.6607312 7.27797009,36.8974237 6.31941857,36.0248154" id="Fill-171"></path>
                <path d="M11.0364957,22.4622571 C10.7058816,21.7314482 9.46408951,21.8107636 9.93939241,23.1078481 C9.42176802,22.9687693 9.0980267,23.0023401 9,23.457205 C9.09368604,23.7991837 9.34833842,23.9548634 9.58418126,24.0570512 C8.64768263,24.5207699 9.00253206,25.2379292 9.89815608,25.0667554 C9.8297906,25.7643625 10.4675067,26.1948795 11.003579,25.6994345 C11.7830902,26.4014686 12.4855546,25.7566154 12.2106457,24.9645676 C12.9847311,25.0151081 13.4093929,24.0315965 12.4334666,23.8032417 C13.0284995,23.3631332 12.5683889,22.5382524 11.746918,22.9949619 C12.3813786,22.2612017 11.551588,21.6196687 11.0364957,22.4622571" id="Fill-173"></path>
                <path d="M30.3211041,41.461118 C30.8054907,42.0775956 31.9567457,41.6837959 31.1951137,40.5601684 C31.7175467,40.5627279 32.0155766,40.4479154 31.9993717,39.9857399 C31.8264016,39.6840827 31.5484518,39.5977905 31.3053778,39.5608603 C32.0726462,38.8785665 31.567475,38.2792742 30.7646261,38.6727083 C30.6603509,37.9856612 29.9543794,37.7359256 29.5689838,38.3483811 C28.6660871,37.8741394 28.1591545,38.6738053 28.6100744,39.3626807 C27.8681702,39.5089387 27.7033026,40.561631 28.6794738,40.5294542 C28.2232696,41.1068079 28.8563189,41.7777666 29.5210735,41.1320374 C29.1008021,41.997885 30.03787,42.3993633 30.3211041,41.461118" id="Fill-175"></path>
                <path d="M23.6421429,22.9899447 C21.6592019,22.50023 19.8141318,21.6513432 18.1222114,20.518292 C17.7919031,20.2990383 18.2007869,19.8388941 18.5252748,20.0574265 C20.1255238,21.1288126 21.8898356,21.927574 23.7654628,22.3909638 C24.1496099,22.484363 24.0288364,23.0844257 23.6421429,22.9899447" id="Fill-177"></path>
                <path d="M19.3199819,21.4608874 C19.805398,22.0777594 20.9565878,21.6850383 20.1949989,20.5606273 C20.7177547,20.5639183 21.0129496,20.447272 20.9995637,19.9869034 C20.8251943,19.6834039 20.5458512,19.5989359 20.3049044,19.5605414 C21.0738908,18.8785816 20.5634642,18.2788957 19.7613653,18.6727138 C19.6606186,17.9860004 18.9522212,17.7355218 18.5686086,18.3487372 C17.6647062,17.8752047 17.1595635,18.6730795 17.610458,19.3627182 C16.8671867,19.5089831 16.7037375,20.5624556 17.680558,20.530643 C17.2243796,21.1069265 17.8563363,21.7797448 18.5214056,21.1325228 C18.0993966,21.9976794 19.0381729,22.3995421 19.3199819,21.4608874" id="Fill-179"></path>
            </g>
            <g id="Group-230" transform="translate(6.000000, 307.000000)" fill="#FBF7EF">
                <path d="M114.2645,8.5233 C99.9525,12.4063 85.3805,15.4993 71.3055,20.1993 C70.2455,20.5513 69.5645,18.9533 70.6295,18.5963 C84.7065,13.9003 99.2805,10.8053 113.5905,6.9223 C114.6565,6.6343 115.3425,8.2303 114.2645,8.5233" id="Fill-182"></path>
                <path d="M96.1434,22.4603 C81.0884,19.7463 65.5084,20.0763 50.3124,18.1923 C34.1284,16.1843 17.8844,14.0643 1.5444,15.2543 C0.4334,15.3363 0.2014,13.6153 1.3184,13.5323 C17.2644,12.3713 33.1334,14.2973 48.9344,16.2693 C56.8934,17.2633 64.8274,18.2143 72.8424,18.6293 C80.7264,19.0373 88.5974,19.3353 96.3834,20.7393 C97.4804,20.9373 97.2484,22.6593 96.1434,22.4603" id="Fill-184"></path>
                <path d="M1.3182,13.532 C11.4502,13.276 22.2122,16.565 31.5302,20.311 C41.6242,24.367 51.9522,29.866 59.7342,37.563 C63.2282,41.019 66.4302,44.713 70.3592,47.699 C75.1832,51.364 81.5212,53.124 87.3212,54.483 C98.3992,57.071 109.8642,57.475 120.9742,59.926 C122.0592,60.167 121.8312,61.891 120.7342,61.65 C101.3482,57.37 78.5902,59.276 63.6382,44.064 C60.2352,40.605 57.0002,37.002 53.1232,34.055 C48.0352,30.198 42.2082,27.139 36.4702,24.385 C26.0122,19.365 13.2932,14.957 1.5452,15.255 C0.4372,15.283 0.2002,13.561 1.3182,13.532" id="Fill-186"></path>
                <path d="M70.16,47.5828 C81.821,64.9668 95.536,81.0578 110.35,95.8268 C111.144,96.6158 109.76,97.6658 108.975,96.8888 C94.162,82.1218 80.447,66.0308 68.787,48.6458 C68.166,47.7178 69.538,46.6508 70.16,47.5828" id="Fill-188"></path>
                <path d="M138.1663,35.7259 C126.8153,39.3219 114.7223,36.3869 103.0983,36.5869 C101.9903,36.6079 101.7553,34.8849 102.8713,34.8659 C114.2913,34.6699 126.3583,37.6519 137.4913,34.1249 C138.5513,33.7899 139.2333,35.3879 138.1663,35.7259" id="Fill-190"></path>
                <path d="M122.4163,48.2957 C115.6953,46.2357 110.0623,41.6407 104.3653,37.6977 C96.8293,32.4787 88.4713,29.6557 79.5893,27.5877 C66.0113,24.4237 52.0943,24.0377 38.2273,23.7017 C37.1083,23.6767 37.3563,21.9537 38.4663,21.9817 C52.3833,22.3187 66.1803,22.8577 79.8303,25.8647 C87.0343,27.4547 94.6753,29.5747 101.0033,33.4507 C108.2553,37.8937 114.8333,44.1647 123.0903,46.6947 C124.1593,47.0217 123.4783,48.6227 122.4163,48.2957" id="Fill-192"></path>
                <path d="M30.1937,19.9783 C36.2427,21.6973 42.4737,22.5793 48.5177,24.2913 C55.5657,26.2883 62.5467,28.5983 69.4037,31.1773 C81.9447,35.8923 93.7567,42.1973 105.3817,48.8023 C106.3447,49.3473 105.6817,50.9573 104.7087,50.4033 C93.0607,43.7873 81.2527,37.5753 68.7297,32.7783 C62.3647,30.3383 55.8587,28.2823 49.3317,26.3323 C42.8157,24.3853 36.0637,23.4373 29.5197,21.5813 C28.4427,21.2723 29.1287,19.6753 30.1937,19.9783" id="Fill-194"></path>
                <path d="M120.0638,82.3987 C110.3318,80.1587 100.5118,77.3377 90.5118,76.6447 C89.3968,76.5667 89.6398,74.8457 90.7528,74.9227 C100.7508,75.6157 110.5748,78.4387 120.3028,80.6747 C121.3848,80.9237 121.1558,82.6497 120.0638,82.3987" id="Fill-196"></path>
                <path d="M87.9544,71.5589 C90.5624,82.4649 93.6774,93.2699 99.5844,102.8999 C100.1634,103.8439 98.7954,104.9159 98.2094,103.9629 C92.1364,94.0589 88.9154,83.0059 86.2304,71.7829 C85.9704,70.6989 87.6954,70.4799 87.9544,71.5589" id="Fill-198"></path>
                <path d="M113.4324,3.4617 C110.8684,2.0577 107.3514,5.0497 111.5924,7.7757 C109.7474,8.5147 108.8554,9.3337 109.5524,10.8797 C110.5794,11.6627 111.6814,11.5527 112.5934,11.3297 C110.8244,14.7537 113.4474,16.0607 115.7324,13.5677 C117.0434,15.7547 119.8824,15.5957 120.3954,12.9577 C124.2394,13.2717 124.9174,9.8347 122.3794,8.1327 C124.7854,6.5687 123.9084,2.7597 120.5074,4.2657 C121.3194,1.6527 118.1604,0.2727 116.7074,3.4297 C116.9964,-0.1183 113.1294,-0.1333 113.4324,3.4617" id="Fill-200"></path>
                <path d="M106.348,22.6336 C108.949,22.0056 109.494,17.8136 104.942,18.5866 C105.732,16.9416 105.832,15.8356 104.411,15.2246 C103.235,15.3296 102.554,16.0816 102.077,16.7916 C101.165,13.3846 98.589,14.1136 98.575,17.2106 C96.342,16.5316 94.518,18.3916 95.796,20.4936 C93,22.6446 94.66,25.3896 97.421,24.9786 C96.752,27.5196 99.694,29.5506 101.066,26.4486 C102.127,28.7106 105.116,27.6976 104.151,24.6696 C106.138,27.2476 108.766,24.8816 106.348,22.6336" id="Fill-202"></path>
                <path d="M127.9237,50.6712 C129.3587,53.1852 126.4557,56.7262 123.6797,52.5722 C122.9757,54.4112 122.1767,55.3082 120.6337,54.6442 C119.8437,53.6432 119.9327,52.5482 120.1387,51.6392 C116.7747,53.4552 115.4317,50.8762 117.8617,48.5642 C115.6697,47.3042 115.7817,44.4872 118.3817,43.9292 C118.0057,40.1282 121.4057,39.3902 123.1307,41.8822 C124.6397,39.4672 128.4367,40.2692 127.0017,43.6692 C129.5787,42.8192 130.9997,45.9332 127.8987,47.4192 C131.4097,47.0722 131.4947,50.9052 127.9237,50.6712" id="Fill-204"></path>
                <path d="M93.0872,56.2874 C95.0622,59.1084 98.3762,61.4764 100.9842,63.7314 C104.1822,66.4954 107.5862,69.0104 111.2862,71.0654 C112.2542,71.6034 111.5912,73.2094 110.6092,72.6674 C107.1092,70.7254 103.9082,68.4124 100.8252,65.8674 C97.7722,63.3534 93.9902,60.6074 91.7142,57.3494 C91.0742,56.4344 92.4452,55.3694 93.0872,56.2874" id="Fill-206"></path>
                <path d="M96.9129,114.3118 C97.5479,117.9148 103.2209,119.0328 102.5809,112.7448 C104.7509,113.9748 106.2509,114.2068 107.2189,112.3178 C107.1819,110.6988 106.2209,109.7088 105.2879,108.9888 C110.0239,108.0478 109.2609,104.4588 105.0309,104.1638 C106.1549,101.1698 103.7729,98.5128 100.7929,100.0708 C98.0989,96.0568 94.1939,98.0768 94.5149,101.8878 C91.1019,100.7508 88.0499,104.5908 92.1819,106.7438 C88.9879,107.9888 90.1059,112.1648 94.3309,111.1188 C90.6269,113.6028 93.6289,117.4128 96.9129,114.3118" id="Fill-208"></path>
                <path d="M121.3743,57.3953 C118.8123,55.9933 115.2923,58.9813 119.5363,61.7073 C117.6843,62.4503 116.8033,63.2743 117.4963,64.8163 C118.5263,65.5973 119.6243,65.4853 120.5353,65.2663 C118.7653,68.6863 121.3903,69.9943 123.6733,67.5023 C124.9833,69.6943 127.8263,69.5233 128.3373,66.8893 C132.1803,67.2033 132.8623,63.7633 130.3173,62.0693 C132.7293,60.5033 131.8483,56.6933 128.4533,58.2003 C129.2613,55.5823 126.0993,54.2083 124.6503,57.3663 C124.9403,53.8173 121.0743,53.7973 121.3743,57.3953" id="Fill-210"></path>
                <path d="M127.9388,82.1243 C130.5338,81.4953 131.0778,77.3083 126.5278,78.0763 C127.3228,76.4363 127.4178,75.3353 125.9968,74.7173 C124.8238,74.8273 124.1438,75.5733 123.6618,76.2853 C122.7518,72.8783 120.1758,73.6093 120.1598,76.7023 C117.9288,76.0263 116.1078,77.8893 117.3808,79.9863 C114.5878,82.1343 116.2468,84.8863 119.0078,84.4643 C118.3418,87.0063 121.2818,89.0503 122.6558,85.9423 C123.7168,88.2063 126.7028,87.1923 125.7408,84.1643 C127.7268,86.7423 130.3548,84.3763 127.9388,82.1243" id="Fill-212"></path>
                <path d="M114.8836,69.3055 C116.2196,67.5185 114.3456,64.5345 111.8226,67.4395 C111.4646,65.9655 110.9406,65.2045 109.6956,65.5575 C108.9946,66.2515 108.9606,67.0955 109.0286,67.8085 C106.6276,66.0995 105.3566,67.9375 106.9886,69.9365 C105.1926,70.6885 105.0086,72.8495 106.9456,73.5305 C106.2856,76.3995 108.8136,77.2895 110.3736,75.5525 C111.2926,77.5435 114.2736,77.2965 113.5026,74.5625 C115.3896,75.4605 116.7756,73.2205 114.5476,71.7845 C117.1956,72.3885 117.6346,69.4695 114.8836,69.3055" id="Fill-214"></path>
                <path d="M112.473,50.8553 C114.85,52.5153 113.756,56.9573 109.46,54.3993 C109.616,56.3623 109.282,57.5173 107.602,57.5853 C106.46,57.0163 106.07,55.9913 105.861,55.0863 C103.605,58.1713 101.286,56.4233 102.486,53.2873 C99.964,53.0983 98.852,50.5043 100.965,48.8793 C98.988,45.6063 101.737,43.4853 104.364,44.9863 C104.686,42.1623 108.462,41.2503 108.626,44.9303 C110.588,43.0593 113.21,45.2543 111.052,47.9343 C114.07,46.1093 115.798,49.5343 112.473,50.8553" id="Fill-216"></path>
                <path d="M134.5872,30.6087 C132.6432,28.7747 128.8372,30.6017 131.9532,33.9937 C130.1472,34.2267 129.1702,34.7447 129.4302,36.2737 C130.1552,37.2007 131.1512,37.3597 132.0102,37.3757 C129.6502,39.9947 131.6662,41.7577 134.2682,40.0857 C134.9202,42.3277 137.4742,42.8437 138.5362,40.6307 C141.8632,41.8007 143.2642,38.9137 141.4102,36.8257 C143.9032,36.0017 144.0122,32.4207 140.6632,32.9617 C141.9832,30.8407 139.5052,28.8867 137.4892,31.3427 C138.5692,28.2737 135.1542,27.3607 134.5872,30.6087" id="Fill-218"></path>
                <path d="M119.1453,94.241 C122.0113,93.813 124.2603,97.799 119.3773,98.883 C120.8393,100.206 121.3893,101.271 120.2103,102.473 C118.9883,102.845 118.0023,102.363 117.2313,101.845 C117.6993,105.644 114.8153,105.957 113.5413,102.854 C111.5683,104.442 108.9883,103.318 109.4093,100.685 C105.7243,99.664 106.2753,96.23 109.2213,95.523 C107.5183,93.243 109.6413,89.992 112.2823,92.561 C112.4303,89.854 115.8413,89.658 116.1103,93.088 C117.0533,89.687 120.6613,90.995 119.1453,94.241" id="Fill-220"></path>
                <path d="M80.8773,90.2088 C79.1313,91.6008 80.1943,94.9618 83.3693,92.7888 C83.3433,94.3068 83.6553,95.1718 84.9503,95.1388 C85.8073,94.6488 86.0543,93.8478 86.1683,93.1338 C88.0563,95.3948 89.7523,93.9388 88.6753,91.5898 C90.6073,91.3148 91.3333,89.2698 89.6273,88.1258 C90.9903,85.5148 88.7683,84.0158 86.8203,85.2998 C86.4343,83.1398 83.4923,82.6308 83.5403,85.4668 C81.9503,84.1218 80.0383,85.9378 81.8283,87.8928 C79.4173,86.6358 78.2573,89.3508 80.8773,90.2088" id="Fill-222"></path>
                <path d="M118.6854,28.3856 C120.0244,26.5996 118.1474,23.6106 115.6224,26.5236 C115.2614,25.0426 114.7444,24.2846 113.4974,24.6426 C112.7974,25.3346 112.7584,26.1776 112.8284,26.8876 C110.4324,25.1796 109.1604,27.0166 110.7904,29.0126 C108.9934,29.7686 108.8104,31.9336 110.7434,32.6056 C110.0874,35.4816 112.6154,36.3696 114.1744,34.6306 C115.0924,36.6266 118.0714,36.3826 117.3034,33.6446 C119.1914,34.5426 120.5754,32.3026 118.3494,30.8646 C121.0004,31.4676 121.4354,28.5486 118.6854,28.3856" id="Fill-224"></path>
                <path d="M74.5213,54.9393 C74.4943,60.6283 73.4213,66.1723 71.4833,71.5103 C71.1033,72.5633 69.5013,71.8893 69.8813,70.8353 C71.7713,65.6273 72.7743,60.2413 72.8003,54.7013 C72.8053,53.5853 74.5283,53.8363 74.5213,54.9393" id="Fill-226"></path>
                <path d="M75.0023,68.8148 C76.3413,67.0298 74.4673,64.0428 71.9453,66.9518 C71.5863,65.4758 71.0613,64.7148 69.8183,65.0708 C69.1153,65.7648 69.0763,66.6088 69.1473,67.3198 C66.7503,65.6108 65.4743,67.4518 67.1093,69.4508 C65.3113,70.2008 65.1273,72.3688 67.0653,73.0428 C66.4093,75.9128 68.9353,76.7988 70.4913,75.0608 C71.4123,77.0608 74.3913,76.8108 73.6223,74.0768 C75.5073,74.9718 76.8943,72.7318 74.6683,71.2948 C77.3173,71.9018 77.7543,68.9798 75.0023,68.8148" id="Fill-228"></path>
            </g>
            <g id="Group-233" transform="translate(0.000000, 55.000000)">
                <mask id="mask-4" fill="white">
                    <use xlink:href="#path-3"></use>
                </mask>
                <g id="Clip-232"></g>
                <path d="M77.9495,107.1458 C80.9075,106.1578 83.7435,105.1578 86.4235,104.1668 C86.4995,104.3538 86.5605,104.5448 86.6445,104.7298 L77.9495,107.1458 Z M192.7725,111.0218 C183.4865,105.6678 141.5485,99.5548 113.8825,99.8598 C113.8775,99.8298 113.8715,99.7978 113.8665,99.7678 L131.8235,98.5908 C137.4085,98.3968 199.7695,96.9648 198.1575,89.1048 C196.9165,82.3628 189.5575,81.4498 184.7555,80.9128 C165.9525,79.6568 133.8425,88.3488 112.7535,96.3028 C112.6495,96.0778 112.5465,95.8538 112.4325,95.6338 L122.6465,92.7888 C139.5725,86.2948 159.9265,82.1368 175.4575,73.3648 C179.2405,71.2728 186.8335,67.0608 189.1845,62.6698 C193.6515,51.3238 178.4505,55.0698 172.2285,58.3968 C156.7775,66.7878 132.5305,82.2458 111.4065,93.9078 C111.2265,93.6378 111.0405,93.3738 110.8465,93.1128 C130.6485,78.7478 154.0465,60.7368 168.6085,45.9948 C171.2545,43.5098 177.1515,34.4318 172.4185,30.9348 C169.1535,28.9518 163.6855,31.4968 161.0235,33.2708 C151.7705,38.3918 123.7585,70.6628 107.6615,89.7128 C107.4365,89.5208 107.2095,89.3348 106.9805,89.1568 C120.1205,72.9128 140.7325,48.4648 147.8455,28.6998 C150.7055,21.0088 151.0745,9.0728 142.2225,18.0688 C126.0365,34.6208 113.6675,62.3668 106.2615,83.6508 L104.7225,87.6828 C104.4475,87.5398 104.1725,87.4068 103.8895,87.2888 C109.4415,70.0528 116.4215,50.5878 118.5325,39.1268 C120.3035,29.5948 121.2965,19.1238 120.5055,9.4118 C120.3035,6.9258 120.0815,0.0228 116.2215,0.2458 C111.1935,0.5318 110.3135,8.6258 109.6525,12.2848 C105.9985,32.9038 102.3595,52.6488 101.2695,73.6608 C101.0655,77.7678 101.3325,82.2008 101.3335,86.5428 C101.0995,86.5038 100.8645,86.4828 100.6295,86.4578 C99.2495,69.3468 99.1465,50.6348 96.2285,33.7078 C94.3335,23.2448 93.1205,2.8928 87.8425,0.9708 C76.7425,-0.9342 81.9205,32.8558 88.4965,61.3538 C87.1065,57.1428 85.6565,53.0058 84.0165,49.1058 C80.2775,38.9738 75.5215,20.4728 65.1275,14.2958 C58.6055,10.4578 55.9925,18.4248 58.3855,25.5438 C66.4035,47.7818 82.8915,67.1058 92.6605,87.8878 C85.7355,77.2798 80.8525,71.4298 73.9295,62.7948 C65.7395,52.4848 51.0265,32.2948 40.5045,24.8838 C35.7895,22.1098 31.2835,20.3848 30.6065,29.6458 C29.7415,33.3588 35.0665,41.2988 37.2415,43.6708 C59.8185,67.8038 61.8495,67.0608 86.3635,86.3328 L90.2485,89.6828 C89.5765,90.2238 88.9465,90.8138 88.3835,91.4638 C79.7625,84.4578 69.2595,76.5328 65.7545,74.1698 C53.3905,65.5668 44.4935,61.6238 32.1335,53.8098 C28.1455,51.0538 17.4255,45.8058 13.6675,53.0748 C11.5445,57.2338 17.2625,61.1428 19.0455,62.3038 C21.4075,63.7168 62.3255,83.6788 85.2085,94.8228 L75.5955,91.7788 C56.5125,85.0358 46.4085,80.8958 29.0465,78.4358 C23.1185,77.5048 16.5995,75.6998 10.6125,76.2348 C0.9095,77.3988 -6.0055,81.1258 7.6525,88.9788 C16.8375,94.2428 57.7405,100.2518 85.4145,100.1278 C85.4205,100.1928 85.4355,100.2578 85.4415,100.3238 L68.5925,101.4258 C63.0205,101.5958 0.6615,103.0638 2.2695,110.8968 C3.5275,117.6198 10.8705,118.5328 15.6895,119.0868 C31.6535,120.1418 57.2175,114.0328 77.4835,107.3018 C60.6225,113.7578 40.4155,117.9198 24.9635,126.5968 C21.1885,128.7428 13.6055,132.9378 11.2485,137.3128 C6.7765,148.6768 21.7325,144.4538 28.1655,141.6038 C45.1025,134.1018 64.3545,122.1528 88.1195,107.3058 C88.2185,107.4488 88.3125,107.5938 88.4145,107.7338 C68.8735,121.9258 46.1055,139.5178 31.8385,153.9778 C29.1295,156.4908 23.2815,165.5758 27.9775,169.0738 C31.2835,171.0488 36.7665,168.4738 39.3955,166.7128 C48.4755,161.6818 75.6685,130.4818 91.8905,111.3358 C92.1705,111.5538 92.4575,111.7538 92.7455,111.9538 C80.1505,128.2768 62.2805,152.3478 55.3305,171.6498 C52.4785,179.3478 49.3575,190.9448 58.2285,181.9318 C74.3775,165.4058 86.7725,137.6338 94.1465,116.3418 L95.2875,113.3828 C95.5325,113.4928 95.7745,113.6128 96.0225,113.7068 C91.2585,129.7318 86.1905,145.0538 83.9115,157.3598 C81.6745,169.5208 78.6425,185.4908 84.5335,197.2138 C89.3525,198.8858 94.6685,188.8158 96.3735,182.1808 C101.0505,166.6598 100.7565,136.3378 100.5335,115.8838 C101.3445,132.8288 101.9435,153.1188 104.1995,166.3368 C106.0875,176.7628 107.3165,197.0888 112.5675,199.0278 C129.6275,201.9528 112.1845,138.4468 106.3905,121.6258 L106.3815,121.5958 C109.7255,131.3808 112.5725,141.7438 116.4125,150.8658 C120.1395,161.0078 124.7285,179.7778 135.2985,185.6948 C146.2345,191.9998 142.1645,179.9648 139.8365,172.8288 C131.7575,150.5878 117.4455,132.8428 107.7415,112.0978 L107.7425,112.0968 C114.6725,122.7118 119.5925,128.5898 126.4915,137.2208 C134.6795,147.4958 149.4175,167.6878 159.9265,175.1268 C164.6655,177.8808 169.1535,179.5958 169.8345,170.3328 C170.6825,166.6318 165.3745,158.6838 163.1865,156.3118 C140.5915,132.1598 138.5835,132.9378 114.0575,113.6478 L110.0465,110.1968 C110.6565,109.6008 111.2245,108.9668 111.7465,108.2918 C120.4265,115.3578 131.1235,123.4578 134.6765,125.8458 C147.0205,134.4328 155.9095,138.3548 168.3015,146.1748 C172.2735,148.9428 182.9805,154.1748 186.7245,146.8958 C188.8965,142.7668 183.1915,138.8568 181.3845,137.6598 C179.0005,136.2548 137.7615,116.1668 114.9275,105.0638 L124.8675,108.2118 C143.9385,114.9718 154.0175,119.1298 171.3835,121.5548 C177.2995,122.5018 183.8515,124.3008 189.8295,123.7638 C199.5205,122.6268 206.4165,118.8468 192.7725,111.0218 Z" id="Fill-231" fill="#FBF7EF" mask="url(#mask-4)"></path>
            </g>
            <g id="Group-233-Copy" transform="translate(536.000000, 352.000000)">
                <mask id="mask-6" fill="white">
                    <use xlink:href="#path-5"></use>
                </mask>
                <g id="Clip-232"></g>
                <path d="M46.282464,62.8901652 C48.0387653,62.3089452 49.7226294,61.7206659 51.3138692,61.1376811 C51.3589939,61.2476893 51.3952124,61.3600507 51.4450871,61.4688824 L46.282464,62.8901652 Z M114.458182,65.1703359 C108.944655,62.0206884 84.0441277,58.4245369 67.6175457,58.603962 C67.614577,58.5863137 67.6110145,58.5674887 67.6080458,58.5498403 L78.269946,57.8574356 C81.5860185,57.7433094 118.612624,56.9008934 117.655505,52.2770179 C116.918666,48.3108387 112.549288,47.7737397 109.698119,47.4578337 C98.5339096,46.7189549 79.4687196,51.8322788 66.9472063,56.5114525 C66.8854567,56.3790896 66.8243008,56.2473151 66.7566137,56.1178936 L72.8211373,54.4442389 C82.8708852,50.623953 94.9559951,48.1778876 104.177467,43.0175014 C106.423609,41.786821 110.931924,39.3089885 112.327821,36.725854 C114.980085,30.0512368 105.954549,32.2549311 102.260261,34.2121365 C93.0862883,39.1483883 78.6897246,48.24201 66.1474302,55.1025235 C66.0405558,54.9436881 65.9301191,54.7883824 65.8149323,54.6348415 C77.5722943,46.184209 91.4647675,35.5887101 100.110899,26.9162963 C101.681952,25.4544222 105.183273,20.1140225 102.373072,18.0568097 C100.434491,16.8902518 97.187887,18.3874227 95.6073346,19.4310302 C90.1134012,22.4436086 73.481383,41.4279706 63.9238507,52.6346918 C63.7902578,52.5217421 63.6554774,52.4123222 63.5195095,52.3076084 C71.3213344,42.7515991 83.5596308,28.3693462 87.7829474,16.7420054 C89.4810615,12.2175491 89.7001538,5.1958471 84.4443126,10.4880079 C74.8339368,20.2252073 67.4898903,36.5476054 63.092606,49.0685425 L62.1788307,51.4404847 C62.0155505,51.3563608 61.8522703,51.2781196 61.6842401,51.2087027 C64.9807189,41.0691203 69.1250673,29.6182632 70.3784655,22.8759939 C71.42999,17.2685154 72.0195799,11.1086426 71.5499267,5.39527379 C71.42999,3.93281139 71.2981783,-0.128080775 69.006318,0.00310551372 C66.0209622,0.1713534 65.4984656,4.93288624 65.1059993,7.08540029 C62.9364508,19.2151317 60.7758084,30.8307069 60.1286251,43.191632 C60.0075009,45.6076952 60.1660311,48.2155375 60.1666248,50.7698463 C60.0276882,50.7469034 59.8881579,50.7345495 59.7486275,50.7198426 C58.9292578,40.653795 58.8681019,29.6459123 57.1355506,19.6881082 C56.0104015,13.5329417 55.2901874,1.56028088 52.156395,0.429608023 C45.5658124,-0.691064088 48.6402301,19.1868943 52.5447051,35.9516784 C51.7193979,33.4744342 50.8584659,31.0407226 49.8847221,28.7464333 C47.6647052,22.7859872 44.8408483,11.9022314 38.6694504,8.26843001 C34.7970378,6.01061397 33.245579,10.6974353 34.6664137,14.8853958 C39.4270706,27.9675514 49.2167577,39.3354611 55.0170642,51.561082 C50.9053718,45.3206149 48.0061092,41.8791809 43.8956044,36.7993889 C39.0328231,30.7342291 30.2970355,18.8568696 24.0496381,14.4971315 C21.2501249,12.8652446 18.5747046,11.8504628 18.1727384,17.2985176 C17.6591479,19.4827988 20.8208464,24.1537366 22.1122443,25.5491351 C35.517252,39.7460801 36.7231505,39.3089885 51.2782444,50.6463076 L53.5849484,52.6170434 C53.1859509,52.9353025 52.8118908,53.2823873 52.4776117,53.6647688 C47.3589259,49.5432839 41.1228097,44.8811703 39.0417293,43.4910662 C31.7006515,38.4300992 26.4180917,36.1105138 19.0793888,31.5136992 C16.711529,29.8924014 10.3465699,26.8051115 8.11527176,31.0813139 C6.85474861,33.5279676 10.2497893,35.8275515 11.3084387,36.5105438 C12.7108672,37.3417825 37.0057736,49.0850143 50.5924676,55.6407991 L44.8847855,53.8500768 C33.5543271,49.8833094 27.5551156,47.447833 17.2464943,46.0006658 C13.726767,45.4529778 9.85613557,44.3911336 6.30137716,44.705863 C0.540257926,45.3906202 -3.56549694,47.5831372 4.54388845,52.2028947 C9.99744716,55.2995971 34.2834474,58.8345675 50.7147793,58.7616209 C50.7183418,58.7998591 50.727248,58.8380972 50.7308105,58.8769237 L40.726781,59.5252075 C37.4184272,59.625215 0.393008872,60.488809 1.34775274,65.0968009 C2.09468544,69.0518028 6.45456368,69.5889019 9.31582654,69.9148086 C18.7943906,70.5354433 33.9729181,66.9416449 46.0057783,62.9819368 C35.9946239,66.7798681 23.9967947,69.2282866 14.8222287,74.3327863 C12.5808368,75.5952337 8.07845949,78.0630655 6.67899974,80.6367875 C4.02376679,87.3219938 12.9038347,84.8376902 16.723404,83.1610941 C26.7796831,78.7478226 38.2104846,71.718473 52.3208627,62.9842899 C52.3796436,63.0684138 52.4354558,63.1537143 52.4960179,63.2360734 C40.8936237,71.5849336 27.3752105,81.9339435 18.9042337,90.4404625 C17.2957753,91.9188084 13.8235476,97.2633261 16.6117797,99.3211271 C18.5747046,100.482979 21.8302149,98.9681595 23.3911736,97.9321997 C28.782389,94.9725664 44.928129,76.6182515 54.5598796,65.3550556 C54.7261285,65.4833005 54.8965337,65.6009563 55.0675326,65.7186122 C47.5892994,75.3210956 36.9790551,89.4815672 32.8525191,100.836535 C31.159155,105.365109 29.3060731,112.187384 34.5731955,106.885223 C44.1616027,97.1633186 51.5210866,80.8256252 55.899371,68.2999819 L56.5768354,66.5592633 C56.7223032,66.6239741 56.8659898,66.6945676 57.0132388,66.7498658 C54.184632,76.177042 51.1755263,85.1906578 49.8223788,92.4300231 C48.4941686,99.584088 46.6939301,108.978909 50.1916889,115.875307 C53.0529518,116.85891 56.2093065,110.934938 57.2216438,107.031704 C59.9985947,97.9010209 59.8240333,80.0632152 59.6916279,68.0305499 C60.173156,77.9989431 60.52881,89.9351305 61.8683014,97.7110066 C62.9892942,103.844407 63.7190083,115.801772 66.8367695,116.942446 C76.9660794,118.663163 66.6093647,81.3038963 63.1691993,71.4084498 L63.1638556,71.3908014 C65.1493428,77.1471146 66.8397382,83.2434532 69.1197236,88.6097372 C71.3326156,94.5760661 74.0573168,105.618069 80.333214,109.098918 C86.8264223,112.808019 84.4098753,105.728077 83.0276342,101.530116 C78.2307588,88.4461956 69.7330634,78.007179 63.9713504,65.8033244 L63.9719441,65.8027361 C68.0866052,72.0473211 71.0078364,75.505227 75.1040914,80.5826659 C79.9656851,86.6272359 88.7163164,98.505772 94.9559951,102.881982 C97.7697582,104.502103 100.434491,105.511002 100.838832,100.061771 C101.342329,97.884549 98.1907243,93.208905 96.8916076,91.8135064 C83.4759126,77.6053842 82.2836702,78.0630655 67.7214513,66.7151574 L65.3399353,64.6850054 C65.7021205,64.3343909 66.0393684,63.9614218 66.3493039,63.5643333 C71.5030207,67.721115 77.8543237,72.4861775 79.9639039,73.8909885 C87.2931068,78.9425431 92.5709166,81.2497746 99.9286194,85.8501189 C102.286979,87.4784761 108.64422,90.5563535 110.867205,86.2742683 C112.156822,83.845263 108.7695,81.5450908 107.696601,80.8409205 C106.28111,80.014388 81.7956109,68.197033 68.2380105,61.6653676 L74.1398476,63.517271 C85.4631811,67.4940392 91.4475489,69.9401046 101.758545,71.366682 C105.271148,71.9237825 109.161373,72.982097 112.710787,72.666191 C118.464782,71.9973174 122.559255,69.7736216 114.458182,65.1703359 Z" id="Fill-231" fill="#FBF7EF" mask="url(#mask-6)"></path>
            </g>
            <path d="M1776.3778,376.3258 C1777.3358,378.6298 1778.2968,380.8348 1779.2418,382.9118 C1779.0998,382.9818 1778.9538,383.0418 1778.8148,383.1188 L1776.3778,376.3258 Z M1834.6068,334.8138 C1831.6598,334.3518 1825.6898,338.9768 1823.9798,340.8248 C1806.2898,359.9398 1806.9978,361.4988 1793.2418,381.8448 L1790.8438,385.0808 C1790.3778,384.5848 1789.8818,384.1228 1789.3368,383.7198 C1794.3508,376.5508 1799.9868,367.8548 1801.6428,364.9618 C1807.6928,354.7778 1810.2758,347.5568 1815.7348,337.3988 C1817.6548,334.1098 1821.1648,325.3948 1815.2508,322.8658 C1811.8738,321.4098 1809.1168,326.1128 1808.2938,327.6028 C1807.3168,329.5418 1793.9048,362.9918 1786.4718,381.5708 L1788.3528,373.6748 C1792.5908,358.3068 1795.2678,350.1438 1796.1988,336.3628 C1796.5988,331.6628 1797.6528,326.4238 1796.8928,321.7708 C1795.4298,314.2168 1792.1048,308.9748 1786.7028,320.1668 C1783.0828,327.6758 1780.6788,360.1568 1782.3558,381.8918 C1782.3068,381.8998 1782.2618,381.9128 1782.2128,381.9208 L1780.3998,368.7538 C1779.9328,364.3858 1775.2558,315.4808 1769.1818,317.1768 C1763.9678,318.5518 1763.6648,324.3658 1763.5138,328.1758 C1763.5828,340.8258 1769.8668,360.6408 1776.3238,376.1968 C1770.2818,363.2768 1765.8588,347.5718 1758.1148,335.8978 C1756.2468,333.0438 1752.5128,327.3378 1748.9348,325.7228 C1739.7568,322.8588 1743.9328,334.3768 1746.5368,339.2778 C1753.3708,352.1568 1763.8558,366.6038 1776.8778,384.4228 C1776.7718,384.5078 1776.6638,384.5908 1776.5588,384.6788 C1764.2868,370.1348 1749.1778,353.2468 1737.0048,342.8528 C1734.8778,340.8848 1727.4168,336.7988 1724.9418,340.6948 C1723.5788,343.3818 1725.8888,347.5308 1727.4328,349.5168 C1731.9038,356.3638 1757.9678,375.9498 1773.9338,387.6028 C1773.7738,387.8378 1773.6308,388.0808 1773.4908,388.3208 C1759.9488,379.3638 1740.0308,366.6698 1724.4668,362.3018 C1718.2478,360.4998 1708.9848,358.7248 1716.5528,365.1648 C1730.4618,376.9168 1752.9758,385.0758 1770.1188,389.6748 L1772.5098,390.3998 C1772.4378,390.5978 1772.3548,390.7958 1772.2968,390.9968 C1759.4368,388.1588 1747.1248,385.0528 1737.3178,383.9638 C1727.6258,382.8778 1714.9208,381.4098 1706.0588,386.7258 C1705.0068,390.6108 1713.2088,394.1888 1718.5148,395.1548 C1731.0718,397.9698 1755.1318,395.9548 1771.1938,394.6088 C1757.8608,396.2158 1741.7578,397.8458 1731.4438,400.4088 C1723.3298,402.4828 1707.4318,404.5868 1706.2008,408.8308 C1704.9038,422.1668 1752.0718,405.7068 1765.9398,399.8898 C1758.6618,402.9518 1750.9778,405.6988 1744.2588,409.1128 C1736.4878,412.6288 1722.0358,417.2838 1717.9808,425.9278 C1713.6458,434.8798 1722.8558,431.0068 1728.3328,428.7498 C1745.3108,421.1838 1758.4238,408.9688 1774.1178,400.1808 C1766.2418,406.1918 1761.9358,410.3648 1755.5758,416.2568 C1747.9498,423.2838 1732.9008,435.9878 1727.6778,444.6718 C1725.7798,448.5578 1724.6888,452.1698 1731.9978,452.1798 C1734.9448,452.6468 1740.9168,448.0238 1742.6288,446.1738 C1760.3188,427.0578 1759.6128,425.5058 1773.3668,405.1538 L1775.8518,401.8008 C1776.3548,402.2438 1776.8878,402.6538 1777.4478,403.0228 C1772.3938,410.2418 1766.6388,419.1108 1764.9588,422.0438 C1758.9188,432.2228 1756.3318,439.4398 1750.8738,449.6038 C1748.9608,452.8938 1745.4478,461.6068 1751.3598,464.1428 C1754.7308,465.5888 1757.4918,460.8898 1758.3188,459.3988 C1759.2908,457.4608 1772.7048,423.9978 1780.1368,405.4198 L1778.2488,413.3308 C1774.0158,428.6988 1771.3368,436.8508 1770.4088,450.6438 C1770.0048,455.3398 1768.9508,460.5848 1769.7128,465.2298 C1771.1788,472.7818 1774.5038,478.0228 1779.8978,466.8378 C1783.5778,459.2228 1785.9948,425.9208 1784.1768,404.1988 C1784.2088,404.1898 1784.2408,404.1808 1784.2738,404.1738 L1786.2148,418.2498 C1786.6738,422.6198 1791.3498,471.5278 1797.4308,469.8248 C1802.6338,468.4538 1802.9418,462.6398 1803.0888,458.8268 C1803.0108,443.9718 1794.3638,419.2448 1786.9298,403.1288 C1787.0958,403.0378 1787.2528,402.9278 1787.4168,402.8288 L1790.2508,410.7238 C1796.3108,423.6578 1800.7298,439.3988 1808.4958,451.1018 C1810.3618,453.9538 1814.0968,459.6668 1817.6698,461.2798 C1826.8518,464.1388 1823.0578,452.4028 1820.0738,447.7268 C1812.6118,436.0498 1799.0798,417.8848 1788.7098,401.9408 C1788.9148,401.7818 1789.1198,401.6228 1789.3158,401.4518 C1801.7178,416.1928 1817.1908,433.5568 1829.6058,444.1558 C1831.7288,446.1208 1839.1898,450.2068 1841.6648,446.3058 C1843.0278,443.6178 1840.7188,439.4758 1839.1778,437.4868 C1834.6208,430.5138 1807.6748,410.3298 1791.8048,398.7648 C1791.9458,398.5738 1792.0788,398.3838 1792.2058,398.1888 C1805.7188,407.6008 1826.0828,422.4198 1841.9978,426.8818 C1848.2088,428.6898 1857.6238,428.2778 1850.0628,421.8338 C1836.1448,410.0798 1813.6278,401.9318 1796.4828,397.3268 L1793.2408,396.3428 C1793.3368,396.1188 1793.4258,395.8978 1793.5028,395.6708 C1807.3558,399.0618 1823.0348,403.4368 1832.1698,404.4478 C1839.7618,405.2928 1848.0448,405.4778 1855.6158,404.3068 C1857.5638,404.0078 1862.9458,403.4128 1862.5658,400.4148 C1862.0678,396.4768 1855.6688,396.2368 1852.7578,395.9378 C1836.3448,394.2518 1820.6218,392.4778 1804.0568,392.8348 C1800.8288,392.9048 1797.3568,393.3708 1793.9428,393.6198 C1793.9598,393.4348 1793.9628,393.2488 1793.9688,393.0638 C1807.3268,391.0078 1822.0158,389.8668 1835.1628,386.5918 C1843.2788,384.5208 1859.1788,382.4168 1860.4038,378.1688 C1861.2638,369.3178 1834.8798,375.3578 1812.8308,382.1648 C1816.1148,380.8118 1819.3348,379.4198 1822.3528,377.8878 C1830.1208,374.3688 1844.3738,369.6158 1848.6278,361.0708 C1851.2768,355.7388 1844.8958,354.1438 1839.4198,356.4068 C1822.4428,363.9728 1808.2188,377.9738 1792.4888,386.8198 C1800.3638,380.8118 1804.6698,376.6378 1811.0318,370.7498 C1818.6608,363.7208 1833.7048,351.0118 1838.9308,342.3258 C1840.8278,338.4538 1841.9228,334.8298 1834.6068,334.8138 Z" id="Fill-234" fill="#FBF7EF"></path>
            <g id="Group-238" transform="translate(1785.000000, 114.848000)">
                <mask id="mask-8" fill="white">
                    <use xlink:href="#path-7"></use>
                </mask>
                <g id="Clip-237"></g>
                <path d="M103.3295,135.0237 C104.7555,131.8627 106.0825,128.7927 107.2965,125.8577 C107.5045,125.9387 107.7085,126.0307 107.9235,126.1027 L103.3295,135.0237 Z M193.2205,44.2317 C181.8355,47.7707 145.1695,77.3807 124.5235,100.1907 C124.4935,100.1727 124.4625,100.1537 124.4355,100.1337 L137.0375,84.5897 C141.0975,79.8847 187.0325,27.9037 179.3995,23.2817 C172.9575,19.2037 166.6545,24.5207 162.5885,28.0347 C147.3605,42.4337 130.2025,75.2067 120.7665,98.4267 C120.5045,98.3407 120.2425,98.2567 119.9775,98.1827 L125.3695,87.6977 C132.8535,68.9777 144.8335,49.2247 149.4055,29.9217 C150.5555,25.2557 152.8515,15.8757 151.0455,10.6387 C145.1585,-1.5773 136.7335,13.6607 134.7495,21.2517 C129.9265,40.2017 124.2305,71.6667 117.7935,97.7177 C117.4375,97.6597 117.0805,97.6127 116.7205,97.5737 C119.9535,70.5617 122.9255,37.8597 121.8915,14.8377 C121.8635,10.8017 118.9065,-0.8673 112.4775,0.3547 C108.3935,1.5217 106.3405,7.9067 105.7775,11.4197 C102.9695,22.8377 108.1505,70.0797 111.5405,97.6047 C111.2135,97.6437 110.8915,97.6897 110.5725,97.7407 C107.2395,74.7467 102.8525,39.4587 92.0935,18.7217 C87.9755,10.5797 78.5145,1.2607 79.1695,15.2827 C80.4535,40.9947 93.7575,72.0477 105.5355,94.1697 L107.6635,98.4697 C107.3385,98.5867 107.0235,98.7107 106.7135,98.8527 C96.8385,81.3027 86.2225,60.9037 78.4635,50.5237 C72.0205,41.8787 64.2255,33.1587 55.6995,26.4687 C53.5185,24.7557 47.7155,19.7227 44.9835,23.0407 C41.4185,27.3617 47.3595,34.1947 49.8465,37.4967 C63.9175,56.0527 77.2845,73.9377 93.6115,90.6977 C96.8095,93.9667 100.6295,97.0967 104.1745,100.3757 C103.9655,100.5377 103.7705,100.7137 103.5735,100.8867 C88.5635,89.0887 73.2125,75.0397 57.1945,64.6337 C47.2225,58.2777 29.6935,43.8967 24.1395,46.7527 C14.1995,54.3737 45.6895,75.6697 73.9185,91.8267 C69.4315,89.7807 64.9585,87.8397 60.5385,86.2317 C49.4425,81.6317 30.7495,71.5397 17.8585,75.3567 C9.8005,77.7817 14.3285,85.9317 21.9475,89.3557 C46.1535,99.6077 74.3805,100.7467 98.7195,108.4717 C84.8315,106.1107 76.3705,105.6757 64.0905,104.8067 C49.4905,103.7027 21.8995,100.4607 7.9015,103.4517 C2.0775,105.2047 -2.7355,107.5797 4.3125,115.1287 C6.6895,118.6387 17.1925,120.2897 20.7705,120.3057 C57.5215,120.1067 58.4495,117.8867 92.6945,112.4347 L98.3635,111.7957 C98.2985,112.7527 98.3035,113.7117 98.4065,114.6637 C86.1795,116.4057 71.7775,118.9927 67.2025,120.0697 C50.8405,123.6647 40.9015,127.9457 25.1865,132.1337 C19.9255,133.3067 7.5455,138.0927 10.6395,146.6507 C12.4325,151.5237 19.9405,149.8087 22.2355,149.2317 C25.1735,148.3707 72.3705,130.0527 98.7525,119.7917 L89.0075,125.3367 C69.0895,135.8207 58.0795,140.9387 42.9565,153.2527 C37.7205,157.3887 31.3215,161.3467 27.2375,166.6367 C20.8575,175.4357 18.6775,183.8947 35.4025,178.6787 C46.6375,175.1587 82.4365,146.3117 103.2395,123.6287 C103.2945,123.6747 103.3595,123.7117 103.4175,123.7547 L91.5925,138.3407 C87.5195,143.0187 41.6175,195.0237 49.2265,199.6277 C55.6635,203.6797 61.9545,198.3747 66.0465,194.8617 C78.9665,182.6277 93.2875,157.1477 103.1025,135.5217 C95.6375,154.1627 83.7715,173.7967 79.1815,192.9627 C78.0795,197.6657 75.7795,207.0237 77.5685,212.2517 C83.4685,224.4837 91.3165,209.0877 93.8485,201.6827 C100.5175,182.1937 105.3085,157.4547 111.1395,126.8437 C111.3305,126.8717 111.5195,126.9037 111.7125,126.9287 C108.5355,153.5957 105.6965,185.4657 106.7225,208.0337 C106.7275,212.1417 109.7245,223.7777 116.1295,222.5877 C120.2385,221.3807 122.2765,214.9617 122.8265,211.4827 C125.5785,200.2737 120.6515,154.5147 117.2775,126.8117 C117.6675,126.7477 118.0475,126.6637 118.4285,126.5777 C122.2385,149.1887 128.3855,181.9547 138.8915,202.2067 C143.0195,210.3517 150.1275,221.6577 149.4725,207.6087 C148.1815,181.9437 134.8745,150.8507 123.0665,128.7517 L121.5145,125.5857 C121.7875,125.4677 122.0695,125.3607 122.3335,125.2297 C131.8155,141.2227 140.4925,156.9327 148.8145,168.0847 C157.0525,179.0967 167.7955,193.6347 181.8155,197.6797 C186.8195,195.0077 182.6165,183.0657 178.4865,176.6627 C169.3525,161.1227 144.3815,138.4567 127.5175,123.1917 C141.9615,135.3297 158.9735,150.1657 171.4675,158.3077 C181.4015,164.6437 198.9195,178.9907 204.4695,176.1687 C219.7445,164.4557 154.7345,130.7227 136.6285,122.7487 L136.5985,122.7317 C147.1085,127.3937 157.7175,132.8987 168.0625,136.6537 C179.1585,141.2727 197.9465,151.7027 210.7575,147.5467 C224.1625,143.3837 211.2665,137.6137 203.6825,134.1247 C179.4275,123.9197 154.1335,122.1957 129.8715,114.4487 L129.8715,114.4457 C143.7705,116.8077 152.2845,117.2347 164.5405,118.1217 C179.1115,119.1977 206.7245,122.4207 220.7315,119.4617 C226.5615,117.6727 231.3505,115.3077 224.3055,107.7527 C221.9255,104.2647 211.4275,102.5947 207.8405,102.5887 C171.0595,102.7897 170.1765,105.0177 135.9075,110.4637 L130.0615,111.1297 C130.0345,110.1827 129.9485,109.2407 129.7905,108.3057 C142.1155,106.5567 156.8045,103.9417 161.4375,102.8487 C177.7705,99.2587 187.6875,94.9647 203.4285,90.7577 C208.6865,89.6057 221.0455,84.8197 217.9325,76.2647 C216.2035,71.3747 208.7025,73.0777 206.3605,73.6477 C203.4125,74.5317 155.8695,93.0207 129.5575,103.2727 L139.6375,97.5347 C159.5585,87.0747 170.5665,81.9887 185.6605,69.6457 C190.9045,65.5327 197.3225,61.5437 201.3975,56.2587 C207.7895,47.4907 209.9115,39.0077 193.2205,44.2317 Z" id="Fill-236" fill="#FBF7EF" mask="url(#mask-8)"></path>
            </g>
        </g>
    </g>
</svg>