<?xml version="1.0" encoding="utf-8"?>
<!-- Generator: Adobe Illustrator 22.1.0, SVG Export Plug-In . SVG Version: 6.00 Build 0)  -->
<svg version="1.1" id="Layer_1" xmlns="http://www.w3.org/2000/svg" xmlns:xlink="http://www.w3.org/1999/xlink" x="0px" y="0px"
	 viewBox="0 0 30 27" style="enable-background:new 0 0 30 27;" xml:space="preserve">
<style type="text/css">
	.st0{fill:#5D4022;}
</style>
<title>home</title>
<desc>Created with Sketch.</desc>
<g id="生日禮" transform="translate(-365.000000, -14.000000)">
	<g id="Group-3" transform="translate(365.000000, 11.000000)">
		<g id="home" transform="translate(0.000000, 3.000000)">
			<path id="Shape" class="st0" d="M29.7,10.8L15.5,0.2c-0.3-0.2-0.6-0.2-0.9,0L0.3,10.8c-0.3,0.3-0.4,0.8-0.2,1.1s0.7,0.4,1.1,0.2
				L15,1.8l13.8,10.3c0.1,0.1,0.3,0.2,0.5,0.2c0.2,0,0.5-0.1,0.6-0.3C30.1,11.6,30,11.1,29.7,10.8z"/>
			<path id="Shape_1_" class="st0" d="M26.8,12.3c-0.4,0-0.8,0.4-0.8,0.8v12.4h-6.4v-6.8c0-2.1-1.8-3.9-4-3.9s-4,1.7-4,3.9v6.8H5.2
				V13.1c0-0.4-0.4-0.8-0.8-0.8c-0.4,0-0.8,0.4-0.8,0.8v13.2C3.6,26.6,4,27,4.4,27h8c0.4,0,0.8-0.3,0.8-0.7c0,0,0,0,0-0.1v-7.5
				c0-1.3,1.1-2.3,2.4-2.3s2.4,1,2.4,2.3v7.5c0,0,0,0,0,0.1c0,0.4,0.4,0.7,0.8,0.7h8c0.4,0,0.8-0.4,0.8-0.8V13.1
				C27.6,12.6,27.2,12.3,26.8,12.3z"/>
		</g>
	</g>
</g>
</svg>
