<?xml version="1.0" standalone="no"?>
<!DOCTYPE svg PUBLIC "-//W3C//DTD SVG 20010904//EN"
 "http://www.w3.org/TR/2001/REC-SVG-20010904/DTD/svg10.dtd">
<svg version="1.0" xmlns="http://www.w3.org/2000/svg"
 width="1915.000000pt" height="5958.000000pt" viewBox="0 0 1915.000000 5958.000000"
 preserveAspectRatio="xMidYMid meet">
<metadata>
Created by potrace 1.15, written by Peter Selinger 2001-2017
</metadata>
<g transform="translate(0.000000,5958.000000) scale(0.100000,-0.100000)"
fill="#000000" stroke="none">
<path d="M2087 28414 c-6 -5 -700 -26 -849 -27 -16 0 -28 -3 -28 -8 0 -11 -44
-7 -52 6 -5 6 -8 5 -8 -3 0 -9 -7 -11 -20 -7 -12 4 -20 2 -20 -5 0 -8 -6 -8
-20 0 -11 6 -20 7 -20 2 0 -4 -16 -8 -35 -9 -19 -1 -35 4 -35 9 0 6 -6 5 -15
-2 -9 -8 -29 -10 -50 -7 -19 3 -37 2 -40 -2 -2 -5 -20 -7 -40 -5 -19 1 -38 -2
-41 -7 -3 -6 -10 -6 -17 -1 -19 15 -75 10 -82 -6 -4 -11 -8 -12 -20 -2 -11 10
-15 10 -15 0 0 -7 -13 -11 -32 -10 -59 3 -78 0 -78 -13 0 -25 105 -40 425 -61
55 -4 111 -9 125 -11 31 -5 334 -18 410 -18 30 1 62 -3 70 -7 8 -4 134 -11
280 -15 146 -4 312 -9 370 -10 457 -14 618 -17 924 -20 191 -2 350 -6 353 -9
2 -2 17 -1 32 4 15 4 49 4 76 0 29 -5 55 -4 62 2 7 5 14 5 17 -1 4 -6 12 -8
19 -6 25 9 91 12 116 5 14 -4 34 -2 44 4 12 8 22 8 35 -1 12 -7 24 -8 36 -1
11 6 21 6 30 -1 7 -6 16 -8 20 -4 3 4 57 8 119 10 61 1 128 4 148 5 19 1 40
-2 46 -5 7 -4 14 -3 18 3 4 6 11 7 17 3 16 -9 131 -4 142 7 5 5 19 5 31 0 22
-8 99 -5 116 5 5 3 18 1 30 -6 18 -9 24 -8 31 5 7 12 13 14 22 7 7 -6 17 -6
26 -1 9 6 20 4 29 -3 11 -9 15 -9 18 1 3 6 16 12 29 12 14 0 27 7 31 16 5 13
9 12 29 -7 13 -12 26 -21 27 -18 2 2 9 13 15 24 10 17 11 18 12 3 0 -22 14
-23 34 -2 15 14 16 14 16 0 0 -9 5 -16 10 -16 6 0 10 7 10 15 0 8 5 15 10 15
6 0 10 -6 10 -14 0 -8 5 -18 10 -21 16 -10 12 59 -5 81 -14 19 -15 19 -21 -3
-7 -24 -24 -32 -24 -10 0 6 -4 19 -10 27 -8 12 -11 12 -27 -2 -21 -18 -53 -20
-53 -3 0 21 -44 31 -132 30 -49 -1 -88 2 -88 6 0 4 -15 5 -32 4 -18 -2 -37 0
-43 4 -5 3 -28 6 -50 7 -70 1 -145 15 -145 27 0 7 -5 5 -10 -4 -12 -21 -75
-23 -95 -2 -8 8 -15 10 -15 4 0 -18 -38 -12 -49 7 -10 16 -10 16 -11 0 0 -22
-16 -24 -24 -3 -3 8 -10 15 -16 15 -5 0 -10 -7 -10 -15 0 -18 -12 -19 -27 -4
-15 15 -73 21 -73 8 0 -6 -8 -3 -17 6 -15 16 -17 16 -32 -4 l-16 -21 -18 20
c-12 15 -24 19 -42 14 -14 -3 -32 -1 -39 5 -8 7 -17 8 -20 3 -8 -14 -85 -13
-106 1 -14 8 -22 8 -35 -3 -10 -8 -19 -10 -23 -4 -9 13 -62 16 -62 4 0 -6 -15
-4 -35 4 -19 8 -35 12 -35 8 0 -10 -132 -9 -147 1 -7 4 -22 3 -33 -3 -16 -8
-25 -8 -35 0 -9 7 -20 8 -32 2 -15 -8 -78 -9 -78 -2 0 8 -162 5 -172 -3 -8 -6
-18 -6 -25 0 -17 13 -96 14 -103 2 -4 -5 -12 -6 -18 -2 -9 6 -873 12 -880 7z"/>
<path d="M14289 27826 c-2 -2 -123 -6 -269 -10 -330 -8 -533 -21 -750 -47 -47
-6 -114 -12 -150 -15 -36 -3 -72 -8 -80 -11 -8 -4 -18 -6 -22 -5 -3 1 -30 -6
-60 -15 -29 -10 -60 -17 -68 -18 -17 0 -27 -45 -11 -45 6 0 11 8 11 18 1 15 2
15 16 -3 8 -11 20 -19 26 -17 5 1 16 -2 23 -8 7 -6 20 -7 30 -4 10 4 20 1 25
-6 5 -8 41 -13 106 -16 55 -2 119 -6 144 -10 25 -4 56 -8 70 -10 44 -7 154
-16 210 -17 30 0 58 -6 62 -11 4 -6 44 -12 88 -13 45 -1 87 -6 94 -12 9 -7 16
-7 25 2 8 8 14 8 19 2 4 -6 48 -11 97 -11 50 -1 110 -4 135 -8 97 -14 122 -15
140 -6 14 8 21 6 27 -5 7 -11 35 -16 118 -20 116 -6 237 -12 395 -21 154 -9
479 -11 544 -3 34 4 108 12 166 19 58 6 112 18 120 25 8 7 44 18 80 23 76 12
120 27 120 42 0 5 7 10 15 10 19 0 19 29 0 57 -13 18 -47 31 -95 34 -8 1 -22
8 -32 16 -11 10 -18 11 -23 3 -5 -8 -11 -8 -21 1 -7 6 -21 8 -30 5 -9 -4 -22
-2 -28 3 -10 8 -26 12 -106 27 -19 3 -41 13 -48 22 -9 11 -15 13 -23 5 -8 -8
-25 -7 -60 2 -27 7 -49 10 -49 7 0 -4 -4 -1 -9 6 -9 15 -32 18 -236 31 -131 8
-728 14 -736 7z"/>
<path d="M1328 22293 c-6 -24 -28 -32 -28 -10 0 6 -8 -3 -17 -21 -15 -31 -17
-32 -34 -16 -18 16 -19 16 -19 1 0 -24 -17 -21 -31 5 l-11 21 -13 -23 -13 -23
-6 21 c-8 24 -26 30 -26 10 0 -9 -4 -8 -10 2 -8 13 -10 12 -10 -2 0 -10 -4
-18 -9 -18 -5 0 -13 -10 -17 -22 -7 -23 -7 -23 -16 4 l-9 27 -37 -20 c-34 -20
-37 -20 -49 -3 -12 17 -13 16 -13 -3 0 -25 -16 -39 -23 -21 -3 9 -10 6 -22 -9
-22 -31 -39 -29 -31 2 5 19 3 23 -9 19 -9 -4 -22 -18 -30 -33 -11 -21 -14 -22
-15 -7 0 15 -3 16 -15 6 -11 -9 -18 -10 -29 -1 -10 8 -20 8 -42 -4 -16 -8 -39
-15 -51 -15 -12 0 -28 -7 -36 -15 -12 -11 -17 -12 -20 -2 -4 9 -8 9 -15 -2 -9
-12 -13 -12 -26 -2 -11 9 -16 10 -16 2 0 -6 -9 -11 -19 -11 -11 0 -27 -7 -36
-16 -12 -12 -19 -13 -29 -5 -10 8 -16 8 -25 -3 -9 -11 -19 -12 -36 -6 -16 6
-25 5 -27 -2 -4 -11 -22 -16 -81 -22 -16 -2 -32 -7 -35 -12 -8 -10 -34 -16
-72 -16 -14 0 -35 -9 -48 -21 -20 -18 -24 -19 -33 -7 -8 13 -11 13 -19 -2 -6
-9 -17 -15 -24 -12 -8 3 -17 1 -20 -5 -4 -6 -13 -8 -21 -5 -7 3 -23 1 -34 -6
-20 -10 -21 -18 -21 -225 0 -179 2 -215 14 -215 8 0 23 12 33 26 l20 27 13
-46 c14 -52 6 -107 -13 -88 -15 15 -27 14 -27 -4 0 -14 -12 -19 -32 -16 -5 0
-8 -29 -7 -67 0 -37 3 -61 6 -54 2 6 17 12 32 12 15 0 36 9 46 20 13 14 22 17
30 10 9 -8 20 -1 40 25 21 25 32 32 41 24 8 -7 14 -7 19 1 4 6 15 8 25 5 38
-12 55 68 21 99 -16 15 -19 15 -24 1 -4 -10 -19 -15 -46 -15 -27 0 -41 -5 -45
-16 -6 -15 -8 -15 -26 1 -11 10 -20 28 -20 41 0 34 18 76 30 69 6 -4 10 6 10
22 1 27 1 27 15 9 8 -11 15 -14 15 -8 0 7 11 12 24 12 18 0 26 7 31 28 l7 27
19 -24 19 -23 21 26 c11 14 24 24 29 21 5 -3 13 3 19 12 9 15 12 16 20 3 8
-12 13 -12 29 4 11 9 23 30 27 44 l7 27 13 -35 13 -35 7 33 c8 32 19 41 30 22
10 -17 25 -11 36 14 7 14 17 22 25 19 8 -3 14 0 14 7 0 8 9 11 25 8 17 -4 26
0 30 11 6 21 60 45 85 38 11 -3 20 -1 20 4 0 5 9 9 20 9 10 0 23 7 27 15 5 8
33 21 62 27 44 11 55 18 63 41 7 19 15 26 27 22 9 -2 29 2 45 10 15 8 32 12
37 9 5 -3 9 2 9 11 0 12 6 15 20 10 12 -4 20 -2 20 5 0 6 6 10 13 7 6 -2 20 2
30 11 11 10 17 11 17 4 0 -22 20 -12 31 15 7 20 13 23 21 15 17 -17 38 -15 38
3 0 8 6 15 14 15 8 0 17 6 19 13 4 9 8 8 16 -3 8 -12 11 -12 17 3 4 10 13 16
20 13 8 -3 21 6 30 19 13 20 20 23 30 14 10 -8 14 -8 14 -1 0 6 7 9 15 6 9 -4
19 3 26 20 12 26 29 35 29 16 0 -21 16 -9 27 21 7 17 17 28 22 24 7 -4 11 7
11 29 0 40 -5 43 -32 19 -17 -15 -18 -15 -18 0 0 31 -30 17 -46 -20 -9 -21
-18 -32 -21 -25 -3 6 -9 10 -13 7 -5 -3 -13 9 -18 27 -8 30 -9 31 -14 11z"/>
<path d="M15739 21020 c-3 -8 -5 -42 -3 -75 3 -59 3 -59 -6 -16 -5 24 -11 46
-14 48 -10 10 -49 -25 -68 -60 -18 -35 -21 -37 -32 -21 -12 16 -13 15 -19 -6
-4 -15 -11 -21 -21 -17 -11 4 -16 1 -16 -11 0 -9 -10 -22 -22 -27 -15 -7 -22
-18 -21 -32 2 -14 -2 -21 -10 -17 -11 4 -87 -66 -87 -80 0 -3 -8 -14 -17 -25
-10 -10 -38 -49 -63 -85 -25 -37 -58 -84 -73 -104 -16 -20 -38 -54 -49 -76
-11 -21 -68 -112 -126 -202 -59 -89 -114 -175 -123 -191 -9 -15 -54 -89 -99
-163 -45 -74 -102 -169 -127 -210 -24 -41 -48 -82 -53 -90 -36 -59 -137 -234
-190 -330 -35 -63 -79 -142 -97 -175 -19 -33 -48 -88 -65 -122 -16 -35 -34
-63 -38 -63 -5 0 -12 -10 -16 -22 -7 -26 -51 -125 -65 -148 -5 -8 -13 -25 -19
-38 -5 -12 -21 -39 -35 -60 -14 -20 -32 -59 -41 -87 -9 -27 -30 -68 -45 -89
-16 -22 -29 -44 -29 -49 0 -4 -7 -15 -15 -23 -8 -9 -15 -24 -15 -34 0 -10 -4
-22 -10 -25 -5 -3 -10 -13 -10 -22 0 -8 -8 -27 -19 -41 -36 -52 -191 -352
-191 -370 0 -5 -9 -17 -20 -27 -11 -10 -20 -25 -20 -33 0 -14 -59 -132 -71
-142 -4 -3 -18 -32 -33 -65 -15 -33 -31 -67 -36 -76 -4 -8 -21 -40 -36 -70
-15 -30 -31 -56 -35 -59 -4 -3 -12 -24 -18 -47 -6 -23 -15 -43 -19 -45 -11 -5
-42 -76 -42 -96 0 -10 -10 -33 -23 -52 -28 -42 -67 -143 -67 -173 0 -17 -2
-19 -9 -7 -7 10 -11 1 -13 -30 -2 -26 -8 -44 -14 -43 -14 3 -38 -54 -54 -127
-14 -68 -30 -110 -40 -110 -5 0 -11 -18 -15 -40 -4 -22 -10 -40 -14 -40 -8 0
-28 -92 -37 -173 -5 -44 -10 -57 -20 -53 -10 4 -14 -3 -14 -22 -1 -26 -28 -76
-32 -56 0 5 -4 -13 -7 -40 -6 -50 -25 -72 -34 -39 -3 10 -5 -5 -6 -34 -1 -60
-8 -83 -25 -83 -7 0 -20 -35 -31 -77 -20 -86 -49 -156 -71 -174 -8 -6 -14 -23
-14 -38 0 -40 -20 -103 -41 -129 -10 -13 -21 -43 -25 -68 -3 -24 -10 -44 -15
-44 -5 0 -9 -11 -9 -25 0 -14 -4 -25 -10 -25 -6 0 -11 -32 -11 -72 -1 -40 -3
-65 -6 -55 -2 9 -9 17 -14 17 -12 0 -12 -77 0 -84 5 -4 12 -29 16 -56 8 -61
25 -66 25 -7 1 41 1 42 15 17 l14 -25 1 28 c0 50 20 28 21 -25 1 -29 4 -43 6
-30 5 24 18 29 26 10 4 -8 6 -7 6 3 1 9 10 19 21 22 15 4 20 14 20 41 0 35 12
47 25 26 11 -18 25 0 25 31 0 34 12 37 32 7 18 -27 33 -18 42 24 5 24 9 29 15
19 8 -12 12 -12 25 2 9 8 16 23 16 32 0 27 25 11 28 -18 4 -34 17 -34 39 1 10
15 27 36 39 47 11 11 23 28 27 38 9 24 27 22 27 -4 0 -13 4 -18 12 -13 8 5 10
-8 5 -52 -3 -32 -9 -86 -12 -119 l-6 -60 15 39 c8 22 24 49 35 60 57 59 91
103 97 128 3 16 10 26 14 23 5 -3 17 11 26 31 9 19 28 40 41 45 13 5 23 17 23
28 0 48 29 65 31 18 1 -16 4 -12 12 13 7 25 12 30 15 17 4 -18 4 -18 18 0 13
17 13 17 14 0 0 -11 -7 -43 -16 -73 -8 -30 -13 -60 -11 -67 2 -6 8 0 12 16 8
32 21 35 30 8 4 -12 12 -18 21 -14 7 3 14 0 14 -7 0 -6 5 -8 10 -5 6 3 10 17
10 31 0 28 21 54 43 54 16 0 46 51 66 112 8 25 19 38 36 42 18 5 25 13 25 32
0 14 4 23 10 19 6 -3 10 -1 10 5 0 7 7 9 15 6 11 -4 17 3 22 24 6 31 33 42 33
14 0 -28 18 -5 25 33 5 26 9 33 15 22 7 -10 13 -4 25 24 8 20 20 37 25 37 6 0
10 11 10 25 0 14 8 29 20 35 11 6 20 20 20 30 0 11 4 20 9 20 5 0 15 16 21 36
7 19 21 45 32 57 31 35 83 120 102 168 10 24 24 51 32 60 8 9 30 45 48 80 18
35 37 73 44 84 6 11 22 45 37 75 14 30 30 62 35 70 5 8 30 60 55 115 25 55 50
107 55 115 18 28 70 143 70 154 0 7 7 21 15 32 8 10 15 25 15 32 0 8 8 26 19
40 10 15 22 38 26 52 8 26 48 118 69 160 7 14 16 37 20 53 3 15 10 27 15 27 5
0 15 17 21 38 6 20 23 61 36 90 13 29 24 55 24 58 0 3 6 20 14 37 53 124 76
184 76 194 0 6 6 24 14 40 42 83 105 242 158 398 11 33 28 74 39 91 10 17 19
40 19 51 0 10 4 23 9 29 5 5 19 32 30 60 11 28 29 71 40 95 11 24 35 82 54
129 31 75 81 190 137 315 10 22 32 76 50 120 18 44 47 112 65 150 18 39 40 94
49 122 10 29 22 55 27 58 5 4 9 18 9 32 0 13 8 37 18 51 21 30 52 121 51 149
0 16 -1 16 -9 -2 -5 -11 -11 -32 -14 -47 -7 -29 -26 -39 -26 -13 0 8 -6 14
-12 12 -8 -1 -14 11 -16 31 -2 22 1 32 11 32 18 0 30 86 17 126 -4 16 -9 23
-9 16 -1 -7 -11 -16 -23 -21 -13 -5 -26 -23 -34 -47 l-12 -39 -1 47 c-1 26 4
50 9 53 13 8 13 112 1 120 -6 3 -13 -11 -17 -30 -4 -24 -10 -33 -16 -27 -13
13 20 148 40 169 8 8 19 35 23 60 5 25 25 78 44 119 19 40 35 77 35 83 0 6 14
41 30 78 17 36 30 71 30 77 0 6 12 34 25 61 26 53 30 81 16 104 -7 11 -13 9
-30 -8 -11 -11 -21 -28 -21 -36 0 -8 -7 -15 -15 -15 -8 0 -15 9 -15 19 0 23
-16 37 -22 19 -3 -7 -10 -8 -17 -4 -15 10 -11 46 13 126 10 30 19 69 22 85 4
30 4 30 -8 5 -11 -23 -13 -21 -18 35 -3 33 -8 53 -11 45z"/>
<path d="M3760 18942 c0 -27 -36 -31 -43 -4 -3 13 -6 11 -15 -10 -8 -19 -16
-26 -27 -22 -10 4 -15 0 -15 -10 0 -15 -12 -21 -33 -17 -4 1 -15 -5 -23 -14
-19 -18 -34 -19 -34 -2 -1 6 -7 1 -15 -13 -7 -14 -16 -24 -19 -22 -3 1 -7 2
-8 1 -2 0 -13 -2 -26 -5 -35 -6 -70 -35 -83 -69 -9 -23 -13 -26 -16 -12 -6 23
-34 22 -40 -1 -3 -14 -11 -18 -28 -14 -14 2 -31 -3 -40 -12 -9 -9 -29 -16 -44
-16 -16 0 -34 -7 -41 -15 -7 -9 -20 -14 -29 -13 -9 2 -28 -7 -41 -20 -13 -12
-41 -25 -61 -28 -26 -5 -41 -14 -54 -37 -10 -17 -20 -26 -23 -19 -5 17 -27 15
-42 -3 -7 -9 -21 -13 -31 -10 -13 5 -19 1 -19 -10 0 -9 -13 -21 -30 -26 -16
-6 -30 -15 -30 -21 0 -5 -8 -7 -19 -3 -12 3 -21 0 -25 -10 -3 -9 -10 -13 -16
-10 -5 3 -21 -6 -34 -20 -17 -19 -31 -25 -45 -20 -13 4 -24 -1 -34 -15 -7 -11
-17 -17 -20 -14 -3 4 -22 -3 -42 -15 -20 -11 -43 -21 -51 -21 -9 0 -22 -7 -30
-15 -9 -8 -23 -15 -33 -15 -10 0 -23 -11 -29 -25 -10 -21 -15 -24 -31 -16 -13
7 -24 6 -37 -4 -11 -8 -27 -15 -36 -15 -10 0 -18 -7 -18 -15 0 -8 -21 -22 -51
-32 -29 -10 -65 -30 -82 -46 -21 -20 -33 -25 -42 -17 -13 11 -27 0 -39 -34 -5
-15 -9 -16 -22 -5 -13 11 -17 10 -25 -4 -6 -9 -21 -17 -35 -17 -18 0 -27 -8
-35 -27 -9 -25 -11 -26 -21 -10 -9 17 -11 16 -33 -7 -14 -15 -35 -26 -50 -26
-14 0 -25 -5 -25 -11 0 -5 -21 -19 -47 -31 -25 -11 -56 -29 -67 -40 -12 -10
-29 -17 -39 -14 -10 2 -21 -2 -24 -10 -3 -7 -23 -19 -44 -25 -21 -7 -39 -16
-39 -22 0 -5 -6 -7 -14 -4 -7 3 -30 -8 -50 -25 -20 -16 -43 -27 -51 -24 -8 3
-17 -3 -20 -15 -4 -13 -12 -18 -22 -15 -8 3 -29 -1 -46 -10 -58 -31 -67 -34
-82 -34 -9 0 -18 -7 -21 -15 -4 -8 -12 -15 -19 -15 -17 0 -75 -30 -75 -39 0
-8 -61 -34 -76 -32 -6 1 -17 -6 -24 -14 -7 -8 -21 -15 -31 -15 -11 0 -19 -7
-19 -15 0 -8 -6 -12 -13 -9 -8 3 -20 -2 -27 -11 -7 -8 -19 -15 -27 -15 -8 0
-27 -8 -41 -17 -49 -32 -67 -43 -82 -49 -8 -4 -27 -11 -43 -18 -15 -6 -27 -14
-27 -18 0 -5 -8 -8 -18 -8 -11 0 -27 -9 -37 -20 -10 -11 -28 -20 -40 -20 -12
0 -39 -13 -61 -30 -21 -16 -44 -30 -50 -30 -7 0 -42 -18 -78 -40 -37 -22 -92
-52 -124 -67 -31 -15 -60 -31 -63 -35 -3 -5 -57 -35 -120 -67 -63 -32 -140
-73 -171 -91 l-58 -32 1 -466 c1 -257 4 -456 6 -442 7 37 21 47 37 25 13 -18
14 -17 30 12 9 19 25 33 38 35 16 2 26 13 33 36 11 38 18 40 33 10 l11 -23 7
23 c3 12 12 22 20 22 7 0 19 10 25 22 11 21 12 21 25 3 12 -16 14 -16 14 -3 0
20 53 74 81 83 11 4 26 1 34 -5 11 -9 16 -5 23 22 6 23 14 33 28 33 10 0 23
10 29 23 10 23 35 31 35 10 0 -7 15 2 33 20 18 18 39 32 46 32 7 0 9 4 6 10
-3 6 1 7 9 4 10 -4 20 3 28 20 6 16 17 25 25 22 18 -7 43 3 43 18 0 6 14 20
30 31 16 11 30 26 30 33 0 6 10 12 21 12 26 0 85 35 98 57 5 9 18 17 31 18 12
1 26 8 31 16 8 12 10 12 18 -1 8 -11 12 -9 20 13 7 18 15 25 26 21 8 -4 17 1
21 10 3 9 10 16 15 16 10 0 24 10 60 43 10 9 20 17 22 16 8 -2 43 17 62 35 43
39 54 46 73 46 12 0 22 9 25 21 4 14 11 20 20 16 9 -3 23 3 32 13 9 10 23 16
31 13 8 -3 17 2 20 11 4 9 20 24 37 32 16 9 41 28 54 42 14 15 31 26 38 24 7
-1 15 4 19 13 3 8 11 15 17 15 7 0 18 8 25 18 13 16 13 16 14 -2 0 -18 3 -17
28 7 16 15 31 25 34 22 3 -3 17 8 32 25 14 17 30 29 35 26 5 -3 11 1 15 9 3 8
15 15 26 15 11 0 23 7 26 15 4 8 10 13 14 10 5 -3 11 3 14 12 3 10 15 24 27
31 18 11 23 11 33 -4 12 -15 14 -13 20 18 5 29 10 35 25 31 13 -3 21 2 26 17
4 14 12 19 22 15 20 -7 83 35 83 55 0 12 2 13 9 1 7 -11 10 -9 16 8 5 15 12
20 25 16 14 -4 20 1 25 25 7 30 35 43 35 15 0 -25 19 -17 26 11 4 14 17 47 30
72 18 37 23 42 23 23 1 -17 5 -22 17 -17 9 3 20 6 24 6 5 0 12 17 15 38 11 65
16 69 30 27 l13 -40 2 35 c1 19 4 27 7 17 7 -27 33 -2 33 32 0 20 2 23 10 11
5 -8 10 -25 10 -38 0 -51 25 -12 36 54 9 59 11 64 15 34 l5 -35 8 40 c14 77
25 84 26 20 1 -47 3 -55 10 -37 11 26 26 29 34 5 3 -10 4 16 2 57 -2 41 -2 67
1 58 6 -24 23 -23 23 1 0 38 11 51 36 45 20 -5 24 -2 25 17 1 21 2 21 6 4 11
-46 42 -40 43 8 0 19 35 59 44 50 3 -4 17 5 30 18 13 13 36 33 50 44 14 11 26
30 26 41 0 12 6 24 14 27 8 3 16 16 19 29 3 17 5 15 6 -9 0 -18 4 -33 7 -33
15 0 36 33 31 49 -2 10 -1 25 4 32 6 10 9 3 9 -19 0 -20 4 -31 10 -27 6 3 10
17 10 30 0 13 5 27 10 30 6 3 10 0 10 -7 0 -10 2 -10 9 1 7 11 9 11 14 0 3 -8
6 9 6 36 1 39 7 55 26 74 16 15 25 18 25 10 1 -8 7 0 14 16 l13 30 8 -26 c5
-20 11 -25 26 -22 10 3 19 13 19 23 0 29 11 50 26 50 8 0 14 10 14 21 0 18 2
19 15 9 8 -7 15 -19 15 -27 0 -8 5 -11 10 -8 6 3 10 20 10 36 0 26 2 29 19 19
17 -9 20 -6 23 17 3 28 28 45 28 19 0 -20 16 -21 24 -1 3 9 14 15 23 13 12 -2
19 4 21 20 3 17 8 21 22 17 14 -4 24 4 41 35 17 30 29 40 44 38 28 -3 45 9 45
35 0 18 2 19 10 7 8 -12 10 -12 16 3 3 9 12 17 19 17 7 0 16 8 19 17 6 15 8
15 16 3 7 -11 10 -7 10 15 1 27 2 28 14 13 16 -22 26 -23 26 -3 0 9 7 18 15
21 8 4 15 14 15 23 0 25 11 33 26 20 16 -13 34 -3 34 19 0 15 2 15 10 2 9 -13
14 -11 33 13 27 32 34 33 41 10 2 -10 2 5 -1 32 -6 53 -33 100 -33 57z"/>
<path d="M1708 18372 c-10 -2 -18 -9 -18 -17 0 -16 -40 -27 -55 -15 -7 6 -19
4 -32 -5 -11 -8 -23 -12 -26 -8 -4 3 -22 -6 -42 -21 -19 -15 -39 -24 -45 -21
-5 3 -17 -6 -26 -20 -11 -16 -25 -25 -43 -25 -15 0 -32 -5 -39 -12 -6 -6 -23
-13 -38 -14 -15 -2 -32 -10 -36 -19 -5 -8 -13 -13 -18 -10 -11 7 -77 -32 -84
-50 -3 -8 -15 -15 -26 -15 -12 0 -37 -12 -56 -26 -18 -14 -40 -24 -48 -21 -8
3 -20 -1 -27 -9 -7 -9 -21 -13 -31 -11 -10 3 -18 1 -18 -4 0 -5 -6 -9 -14 -9
-7 0 -19 -7 -26 -15 -7 -8 -16 -13 -20 -10 -5 3 -11 1 -15 -4 -7 -13 -64 -41
-82 -41 -8 0 -24 -11 -36 -23 -12 -13 -27 -22 -33 -20 -5 2 -32 -8 -58 -22
-26 -14 -53 -25 -60 -25 -8 0 -16 -7 -20 -15 -3 -8 -14 -15 -24 -15 -11 0 -25
-7 -32 -15 -7 -8 -20 -15 -30 -15 -10 0 -23 -6 -29 -13 -6 -8 -28 -19 -49 -25
-21 -6 -47 -21 -59 -32 -12 -11 -27 -20 -33 -20 -6 0 -30 -10 -53 -21 -23 -12
-44 -21 -46 -20 -2 2 -8 -5 -13 -14 -6 -10 -16 -14 -29 -10 -12 4 -21 1 -25
-9 -3 -8 -15 -18 -26 -22 -11 -3 -28 -13 -38 -22 -10 -8 -38 -22 -61 -30 -85
-28 -88 -34 -89 -149 0 -118 5 -123 69 -75 20 15 76 48 124 72 181 92 208 107
221 126 8 10 18 16 22 12 4 -4 21 3 38 15 17 12 36 21 42 19 6 -1 17 5 24 13
7 8 19 15 27 15 7 0 16 7 19 15 4 8 10 12 15 9 5 -3 29 9 55 26 25 18 52 33
59 34 8 1 22 9 32 17 10 9 40 26 67 38 28 13 64 34 81 47 18 13 39 24 49 24 9
0 24 9 33 20 10 11 28 20 41 20 12 0 25 7 28 15 4 8 14 15 23 15 10 0 27 9 39
20 12 11 28 20 37 20 8 0 15 4 15 9 0 12 57 41 80 41 10 0 20 9 23 20 3 11 14
20 25 20 11 0 25 7 32 15 7 8 19 15 27 15 7 0 16 7 19 15 4 8 10 13 14 10 5
-3 15 2 23 10 9 8 20 15 25 15 6 0 12 6 15 14 3 7 19 16 36 19 27 6 32 12 38
49 l6 43 13 -30 c11 -26 13 -27 19 -12 4 10 13 16 20 14 6 -3 17 4 24 15 7 12
18 17 28 14 10 -4 26 2 39 15 13 12 34 27 46 33 39 19 35 86 -4 78z"/>
<path d="M3347 15678 c4 -63 3 -88 -6 -88 -6 0 -11 5 -11 11 0 5 -5 7 -10 4
-15 -9 -32 44 -33 100 0 28 -2 41 -5 30 -5 -21 -32 -65 -32 -52 0 4 -9 3 -20
-3 -15 -8 -20 -22 -21 -53 l-1 -42 -9 33 c-11 35 -23 41 -33 15 -5 -13 -9 -14
-15 -5 -4 7 -15 10 -24 6 -13 -4 -17 -20 -18 -58 -1 -33 -4 -41 -6 -21 -3 16
-11 38 -18 48 -13 18 -14 17 -21 -18 -6 -33 -8 -36 -19 -22 -7 10 -17 17 -22
17 -14 0 -72 -30 -78 -41 -4 -5 -13 -9 -22 -9 -16 0 -53 -36 -53 -53 0 -5 -10
-7 -22 -4 -14 4 -26 0 -34 -11 -11 -15 -13 -13 -22 18 l-10 35 -1 -32 c-1 -38
-16 -50 -30 -26 -10 17 -10 17 -11 1 0 -10 -4 -18 -10 -18 -5 0 -10 8 -10 18
0 14 -2 15 -10 2 -5 -8 -7 -26 -4 -40 l5 -25 -19 23 c-26 28 -30 28 -34 -5 -2
-22 -8 -27 -24 -25 -13 2 -24 -5 -32 -20 l-11 -23 0 22 c-2 43 -46 40 -57 -4
-6 -21 -11 -24 -33 -20 -23 5 -30 0 -49 -34 -19 -33 -26 -38 -38 -29 -11 10
-16 8 -23 -11 -7 -18 -10 -19 -10 -6 -1 22 -17 22 -25 0 -5 -12 -10 -13 -18
-5 -15 15 -58 -14 -59 -42 0 -21 0 -21 -11 2 -14 27 -28 29 -28 3 0 -11 -4
-23 -10 -26 -5 -3 -14 -20 -19 -38 l-9 -32 -1 33 c-2 51 -31 34 -31 -19 0 -10
-4 -19 -10 -19 -5 0 -10 9 -10 19 0 11 -4 23 -10 26 -5 3 -10 1 -10 -5 0 -16
-51 -56 -68 -52 -7 2 -17 -11 -23 -27 -12 -34 -29 -39 -53 -15 -15 14 -17 14
-23 -3 -8 -21 -33 -48 -45 -48 -5 0 -13 -6 -17 -14 -5 -7 -14 -10 -20 -7 -6 4
-11 3 -11 -2 0 -5 -18 -21 -41 -36 -31 -21 -44 -25 -54 -16 -11 9 -18 5 -32
-17 -21 -34 -33 -43 -55 -43 -9 0 -29 -11 -44 -25 -15 -14 -33 -25 -39 -25 -7
0 -15 -7 -19 -15 -3 -8 -14 -15 -24 -15 -10 0 -23 -5 -30 -12 -9 -9 -12 -8
-12 6 0 26 -18 10 -25 -24 -4 -17 -13 -30 -20 -30 -7 0 -16 -8 -20 -17 -7 -17
-8 -16 -15 2 -7 19 -7 19 -14 -3 -6 -19 -13 -22 -31 -18 -17 4 -25 1 -28 -11
-3 -13 -6 -10 -12 12 -9 30 -9 29 -20 -20 l-12 -50 -13 27 c-10 22 -11 36 -2
67 17 54 16 161 -1 161 -8 0 -13 -15 -13 -42 -2 -108 -27 -224 -45 -212 -13 8
-11 38 6 70 8 16 15 53 15 82 0 47 -3 53 -26 62 -23 9 -25 14 -20 43 5 29 4
33 -16 32 -34 0 -48 -13 -48 -43 0 -15 -5 -34 -10 -42 -7 -11 -10 -7 -10 17 0
17 -4 34 -9 37 -11 7 -31 -46 -32 -83 0 -24 -1 -24 -13 8 -9 26 -14 30 -23 20
-6 -8 -14 -24 -17 -36 -10 -30 -20 -29 -33 5 l-11 27 -1 -30 -1 -30 -19 24
-19 24 -7 -23 c-7 -24 -8 -24 -20 6 l-13 29 -1 -30 c-2 -51 -20 -67 -49 -43
-9 8 -12 4 -12 -15 0 -32 -16 -43 -28 -21 -11 20 -32 10 -32 -14 0 -14 -2 -14
-9 -3 -12 19 -70 -15 -77 -46 -7 -26 -24 -31 -24 -8 0 18 -16 20 -23 3 -4 -10
-8 -10 -15 0 -7 11 -11 8 -16 -12 -3 -14 -13 -26 -21 -26 -8 0 -15 -7 -15 -15
0 -8 -7 -15 -15 -15 -8 0 -15 5 -15 10 0 19 -19 10 -26 -12 -12 -40 -24 -49
-48 -36 -34 19 -43 18 -55 -8 -6 -13 -17 -24 -25 -24 -9 0 -20 -9 -26 -20 -6
-11 -15 -18 -21 -14 -5 3 -17 0 -25 -7 -13 -10 -17 -10 -24 1 -7 12 -10 11
-14 -3 -17 -52 -18 -53 -26 -27 -7 24 -7 24 -23 -12 -16 -38 -37 -51 -37 -23
0 8 -4 15 -10 15 -5 0 -10 -4 -10 -9 0 -22 -60 -68 -84 -66 -18 2 -27 -3 -31
-16 -4 -10 -15 -19 -26 -19 -11 0 -22 -7 -26 -16 -3 -8 -12 -13 -19 -10 -12 5
-14 -260 -14 -1704 0 -941 3 -1710 6 -1710 6 0 46 35 104 93 21 20 43 37 48
37 5 0 12 7 16 15 3 8 10 15 16 15 5 0 38 28 73 63 34 35 71 66 81 70 10 4 20
16 23 26 3 11 18 24 34 30 16 5 29 17 29 25 0 9 7 16 15 16 8 0 22 14 31 31
11 23 18 28 24 19 6 -9 11 -6 21 11 15 29 34 49 47 49 6 0 12 7 16 15 3 8 10
15 16 15 15 0 67 46 133 117 20 23 50 47 66 54 17 7 35 24 40 37 6 13 15 20
21 17 5 -3 12 6 16 20 3 14 12 25 20 25 8 0 14 5 14 10 0 6 7 10 15 10 9 0 20
12 25 26 6 14 14 23 19 20 5 -3 12 1 15 10 3 8 10 13 14 10 10 -6 43 29 61 63
7 12 17 18 26 15 9 -4 16 3 21 20 3 14 11 26 18 26 6 0 22 12 35 25 13 14 27
25 31 25 5 0 13 12 18 28 6 15 11 21 11 13 1 -16 91 73 91 90 0 6 6 9 14 6 8
-3 18 5 25 21 9 18 15 22 20 14 5 -9 11 -5 19 13 7 15 20 25 32 25 15 0 22 8
27 30 4 23 10 29 22 25 12 -4 22 5 34 30 9 19 22 35 29 35 7 0 21 14 30 31 10
17 23 27 28 24 6 -4 16 7 23 24 12 32 32 41 40 19 2 -7 8 4 12 25 6 30 10 35
21 26 14 -11 22 1 47 74 4 10 12 15 17 12 15 -9 60 22 60 41 0 10 6 14 14 11
11 -4 20 12 35 60 12 37 21 74 21 84 0 10 5 21 10 24 6 4 10 -8 10 -30 0 -35
0 -35 23 -20 13 8 30 34 38 58 13 41 13 41 17 12 5 -42 20 -53 27 -22 9 33 2
63 -13 59 -8 -1 -12 12 -12 38 0 22 5 40 10 40 6 0 10 -6 11 -12 0 -7 9 -31
20 -53 l19 -40 -3 55 c-1 40 2 54 11 52 8 -1 12 10 12 33 0 19 5 35 10 35 6 0
10 -10 10 -22 1 -53 17 -47 29 9 7 32 15 64 17 71 6 22 21 12 30 -20 8 -32 8
-31 11 17 4 55 30 115 50 115 7 0 13 12 13 28 1 27 1 27 13 5 22 -40 40 -12
47 74 l6 78 14 -47 c8 -27 18 -48 22 -48 4 0 12 19 18 43 16 63 44 130 56 134
7 2 14 -8 18 -22 8 -32 26 -33 26 -1 0 14 4 27 9 31 5 3 12 18 16 34 6 30 40
76 56 76 13 0 35 35 43 69 4 16 14 39 22 50 12 18 14 18 14 3 0 -42 44 1 55
53 11 58 16 71 26 65 5 -4 10 -21 10 -38 l2 -32 4 29 c3 16 11 35 18 42 9 9
11 32 8 78 -7 82 2 123 22 106 13 -11 15 -6 16 26 l1 39 15 -35 16 -35 9 33
c6 23 13 32 24 28 7 -3 14 -1 14 4 0 6 7 10 15 10 10 0 15 11 15 35 0 19 -4
35 -10 35 -5 0 -10 16 -10 35 0 38 14 47 23 14 8 -30 25 -15 33 28 6 33 8 35
15 15 10 -27 29 -29 29 -2 0 27 18 25 30 -2 7 -19 9 -16 9 19 1 23 6 53 13 67
10 24 12 24 24 8 11 -14 15 -15 23 -3 7 11 9 11 13 0 2 -7 10 8 18 34 7 26 17
50 21 53 5 3 9 13 9 23 0 10 9 21 20 24 14 4 20 14 20 32 0 23 2 26 15 15 8
-7 15 -20 16 -29 0 -9 5 0 11 19 5 19 15 42 22 50 28 33 28 49 1 205 -3 17 -2
24 1 18 3 -7 12 -13 19 -13 7 0 16 -6 18 -12 8 -19 7 21 -1 67 l-7 40 -22 -22
c-14 -14 -23 -18 -26 -10 -3 9 -8 8 -21 -2 -14 -11 -22 -12 -36 -3 -21 13 -30
6 -30 -24 0 -13 -3 -25 -8 -28 -6 -4 -9 183 -3 247 3 35 21 15 21 -24 0 -24 4
-38 10 -34 6 3 10 -1 10 -9 0 -8 5 -18 11 -22 8 -5 9 16 4 74 -5 54 -3 82 4
86 6 4 11 16 11 27 0 24 18 16 30 -15 7 -16 9 -9 9 31 1 62 17 79 26 26 10
-61 12 -61 20 -3 8 59 20 90 35 90 6 0 10 -11 10 -25 0 -31 15 -32 34 -2 19
28 33 147 18 147 -6 0 -14 -17 -17 -37 -10 -60 -12 -61 -20 -12 -5 33 -2 64
10 105 27 91 28 93 36 34 4 -30 12 -71 17 -90 9 -28 9 -20 5 43 -4 50 -2 77 5
77 5 0 14 24 18 53 l7 52 12 -50 13 -50 0 80 c0 44 -3 89 -8 100 -7 18 -8 17
-15 -10 -11 -49 -13 -52 -14 -18 -1 17 3 43 8 56 14 36 3 69 -20 62 -20 -7
-34 14 -48 72 -7 28 -8 14 -4 -49z"/>
</g>
</svg>
