<?xml version="1.0" standalone="no"?>
<!DOCTYPE svg PUBLIC "-//W3C//DTD SVG 1.0//EN" "http://www.w3.org/TR/2001/REC-SVG-20010904/DTD/svg10.dtd">
<svg xmlns="http://www.w3.org/2000/svg" xmlns:xlink="http://www.w3.org/1999/xlink" id="body_1" width="46" height="35">

<g transform="matrix(0.059895836 0 0 0.060763888 0 0)">
	<g transform="matrix(1.1419508 0 0 1.1419508 96 -0)">
	</g>
    <path transform="matrix(1.1419508 0 0 1.1419508 96 -0)"  d="M254.8 265.4C 254.8 265.4 254.40001 265.4 254 265.4C 240 306.19998 226 347 212 387.8C 241.6 396.19998 270.4 395.4 298.8 385.8C 284 345.4 269.6 305.4 254.8 265.4z" stroke="none" fill="#000000" fill-rule="nonzero" />
	<g transform="matrix(1.1419508 0 0 1.1419508 96 -0)">
	</g>
    <path transform="matrix(1.1419508 0 0 1.1419508 96 -0)"  d="M123.2 195.4C 122.799995 195.4 122.799995 195.4 122.399994 195.4C 106.799995 232.59999 105.99999 270.2 121.99999 307.8C 135.59999 339.8 158.4 363.4 189.59999 379.4C 189.99998 379.4 189.99998 379 190.4 379C 168 317.4 145.6 256.6 123.2 195.4z" stroke="none" fill="#000000" fill-rule="nonzero" />
	<g transform="matrix(1.1419508 0 0 1.1419508 96 -0)">
	</g>
    <path transform="matrix(1.1419508 0 0 1.1419508 96 -0)"  d="M338.8 211.8C 335.59998 205.8 332 200.2 328.4 194.2C 325.19998 188.59999 322.8 182.59999 322 176.2C 320.4 163 329.2 150.59999 342.4 148.2C 343.6 147.8 345.19998 147.8 347.6 147.4C 308.4 114.59999 264.8 102.99999 216 115.399994C 181.2 124.2 154.4 144.2 133.6 174.59999C 141.20001 174.59999 148 174.59999 154.40001 174.59999C 162.8 174.2 171.20001 173.4 179.6 172.99998C 183.6 172.59999 186 174.59999 186.40001 177.79999C 186.8 181.4 185.20001 183.79999 180.8 184.19998C 179.6 184.59998 178.40001 184.59998 177.2 184.59998C 173.2 184.99997 169.59999 185.39998 165.2 185.79997C 182.4 236.99997 199.6 287.8 216.4 338.19995C 217.2 337.79996 217.59999 337.39996 217.59999 336.99994C 227.59999 307.39993 237.59999 277.79993 247.2 247.79994C 247.59999 246.59995 247.2 244.59995 246.8 243.39995C 240.40001 224.99995 233.6 206.99994 226.8 188.59995C 226 186.19995 224.8 185.39995 222.40001 185.39995C 218.40001 185.39995 214.40001 184.59995 210.40001 184.19995C 207.20001 183.79996 205.6 181.39995 205.6 178.19995C 206 174.99995 208 172.99995 211.20001 172.99995C 212.80002 172.99995 214.00002 173.39995 215.6 173.39995C 230.8 173.79994 246.40001 174.19995 261.6 174.59995C 269.6 174.59995 278 173.79994 286 173.39995C 289.6 173.39995 292 175.39995 292.4 178.59995C 292.8 181.79994 290.8 184.19995 287.6 184.59995C 286 184.99994 284.80002 184.99994 283.2 184.99994C 279.2 185.39993 275.2 185.79994 271.2 186.19994C 288.40002 236.99994 305.2 286.99994 322.40002 338.19995C 322.80002 336.99994 323.2 336.59995 323.2 336.19995C 330.40002 312.59995 337.2 288.99994 344.40002 265.39996C 350 246.6 348.4 228.6 338.8 211.8z" stroke="none" fill="#000000" fill-rule="nonzero" />
	<g transform="matrix(1.1419508 0 0 1.1419508 96 -0)">
	</g>
    <path transform="matrix(1.1419508 0 0 1.1419508 96 -0)"  d="M377.6 0.2L126.4 0.2C 56.8 0.2 0 57 0 126.6L0 126.6L0 378.2C 0 447.40002 56.8 504.2 126.4 504.2L126.4 504.2L378 504.2C 447.6 504.2 504.4 447.40002 504.4 377.80002L504.4 377.80002L504.4 126.6C 504 57 447.2 0.2 377.6 0.2zM408 260.2C 408 261.40002 408 262.2 408 263.40002C 406.8 284.2 401.6 304.2 392 322.60004C 366.8 370.20004 328 398.20004 274.4 407.00003C 269.6 407.80002 264.8 408.20004 260 408.20004L260 408.20004L244 408.20004C 243.2 408.20004 242 408.20004 240.8 408.20004C 220 407.00003 200.4 402.20004 182.4 392.60004C 134.4 367.40002 106.399994 328.60004 97.59999 275.00003C 96.399994 269.80002 95.99999 265.40002 95.99999 260.20004L95.99999 260.20004L95.99999 244.20004C 95.99999 243.40004 95.99999 242.20004 95.99999 241.00005C 97.19999 219.80005 102.399994 199.80005 112.399994 181.40005C 137.59999 134.20006 176.4 106.60005 229.2 97.80006C 234 97.00005 239.2 96.60006 244 96.60006L244 96.60006L260 96.60006C 261.2 96.60006 262 96.60006 263.2 96.60006C 283.6 97.80006 303.2 102.60006 321.6 112.20006C 369.6 137.40005 398 176.20006 406.8 230.20006C 407.59998 235.00006 408 239.80006 408 244.60005L408 244.60005L408 260.2z" stroke="none" fill="#000000" fill-rule="nonzero" />
	<g transform="matrix(1.1419508 0 0 1.1419508 96 -0)">
	</g>
    <path transform="matrix(1.1419508 0 0 1.1419508 96 -0)"  d="M376.8 185.4C 377.19998 196.2 377.19998 206.2 375.59998 216.59999C 373.59998 228.2 369.99997 239.4 365.99997 250.59999C 351.99997 289.4 338.79996 328.19998 325.59998 367C 324.8 369 323.99997 371.4 323.59998 373.4C 323.99997 373.4 323.99997 373.8 324.39996 373.8C 362.39996 350.19998 385.59998 316.19998 392.39996 271.8C 396.8 241.4 391.6 212.6 376.8 185.4z" stroke="none" fill="#000000" fill-rule="nonzero" />
</g>
</svg>